{
	"asset":{
		"generator":"Khronos glTF Blender I/O v5.0.21",
		"version":"2.0"
	},
	"scene":0,
	"scenes":[
		{
			"name":"Scene",
			"nodes":[
				0
			]
		}
	],
	"nodes":[
		{
			"mesh":0,
			"name":"BirchTree_4"
		}
	],
	"materials":[
		{
			"doubleSided":true,
			"name":"BirchTree_Bark"
		},
		{
			"doubleSided":true,
			"name":"BirchTree_Leaves"
		}
	],
	"meshes":[
		{
			"name":"Cube.008",
			"primitives":[
				{
					"attributes":{
						"POSITION":0,
						"NORMAL":1,
						"TEXCOORD_0":2,
						"TANGENT":3
					},
					"indices":4,
					"material":0
				},
				{
					"attributes":{
						"POSITION":5,
						"NORMAL":6,
						"TEXCOORD_0":7,
						"TANGENT":8
					},
					"indices":9,
					"material":1
				}
			]
		}
	],
	"accessors":[
		{
			"bufferView":0,
			"componentType":5126,
			"count":1506,
			"max":[
				0.8901490569114685,
				3.914390802383423,
				0.6418969631195068
			],
			"min":[
				-1.0127718448638916,
				-0.012601720169186592,
				-0.6777445077896118
			],
			"type":"VEC3"
		},
		{
			"bufferView":1,
			"componentType":5126,
			"count":1506,
			"type":"VEC3"
		},
		{
			"bufferView":2,
			"componentType":5126,
			"count":1506,
			"type":"VEC2"
		},
		{
			"bufferView":3,
			"componentType":5126,
			"count":1506,
			"type":"VEC4"
		},
		{
			"bufferView":4,
			"componentType":5123,
			"count":7392,
			"type":"SCALAR"
		},
		{
			"bufferView":5,
			"componentType":5126,
			"count":2196,
			"max":[
				1.4235057830810547,
				4.202384948730469,
				0.9662778377532959
			],
			"min":[
				-1.3528141975402832,
				1.9233697652816772,
				-0.8725736141204834
			],
			"type":"VEC3"
		},
		{
			"bufferView":6,
			"componentType":5126,
			"count":2196,
			"type":"VEC3"
		},
		{
			"bufferView":7,
			"componentType":5126,
			"count":2196,
			"type":"VEC2"
		},
		{
			"bufferView":8,
			"componentType":5126,
			"count":2196,
			"type":"VEC4"
		},
		{
			"bufferView":9,
			"componentType":5123,
			"count":3294,
			"type":"SCALAR"
		}
	],
	"bufferViews":[
		{
			"buffer":0,
			"byteLength":18072,
			"byteOffset":0,
			"target":34962
		},
		{
			"buffer":0,
			"byteLength":18072,
			"byteOffset":18072,
			"target":34962
		},
		{
			"buffer":0,
			"byteLength":12048,
			"byteOffset":36144,
			"target":34962
		},
		{
			"buffer":0,
			"byteLength":24096,
			"byteOffset":48192,
			"target":34962
		},
		{
			"buffer":0,
			"byteLength":14784,
			"byteOffset":72288,
			"target":34963
		},
		{
			"buffer":0,
			"byteLength":26352,
			"byteOffset":87072,
			"target":34962
		},
		{
			"buffer":0,
			"byteLength":26352,
			"byteOffset":113424,
			"target":34962
		},
		{
			"buffer":0,
			"byteLength":17568,
			"byteOffset":139776,
			"target":34962
		},
		{
			"buffer":0,
			"byteLength":35136,
			"byteOffset":157344,
			"target":34962
		},
		{
			"buffer":0,
			"byteLength":6588,
			"byteOffset":192480,
			"target":34963
		}
	],
	"buffers":[
		{
			"byteLength":199068,
			"uri":"BirchTree_4-c4cd11994d591542b210a78a4804e7bd.bin"
		}
	]
}
