{
	"asset":{
		"generator":"Khronos glTF Blender I/O v5.0.21",
		"version":"2.0"
	},
	"scene":0,
	"scenes":[
		{
			"name":"Scene",
			"nodes":[
				0
			]
		}
	],
	"nodes":[
		{
			"mesh":0,
			"name":"BirchTree_2"
		}
	],
	"materials":[
		{
			"doubleSided":true,
			"name":"BirchTree_Bark"
		},
		{
			"doubleSided":true,
			"name":"BirchTree_Leaves"
		}
	],
	"meshes":[
		{
			"name":"Cube.002",
			"primitives":[
				{
					"attributes":{
						"POSITION":0,
						"NORMAL":1,
						"TEXCOORD_0":2,
						"TANGENT":3
					},
					"indices":4,
					"material":0
				},
				{
					"attributes":{
						"POSITION":5,
						"NORMAL":6,
						"TEXCOORD_0":7,
						"TANGENT":8
					},
					"indices":9,
					"material":1
				}
			]
		}
	],
	"accessors":[
		{
			"bufferView":0,
			"componentType":5126,
			"count":3343,
			"max":[
				0.9988946914672852,
				6.980755805969238,
				1.3765312433242798
			],
			"min":[
				-1.5172796249389648,
				-0.030497614294290543,
				-1.0557466745376587
			],
			"type":"VEC3"
		},
		{
			"bufferView":1,
			"componentType":5126,
			"count":3343,
			"type":"VEC3"
		},
		{
			"bufferView":2,
			"componentType":5126,
			"count":3343,
			"type":"VEC2"
		},
		{
			"bufferView":3,
			"componentType":5126,
			"count":3343,
			"type":"VEC4"
		},
		{
			"bufferView":4,
			"componentType":5123,
			"count":16392,
			"type":"SCALAR"
		},
		{
			"bufferView":5,
			"componentType":5126,
			"count":4392,
			"max":[
				1.6454285383224487,
				7.539974212646484,
				1.5346627235412598
			],
			"min":[
				-1.701135277748108,
				2.6353759765625,
				-1.278183937072754
			],
			"type":"VEC3"
		},
		{
			"bufferView":6,
			"componentType":5126,
			"count":4392,
			"type":"VEC3"
		},
		{
			"bufferView":7,
			"componentType":5126,
			"count":4392,
			"type":"VEC2"
		},
		{
			"bufferView":8,
			"componentType":5126,
			"count":4392,
			"type":"VEC4"
		},
		{
			"bufferView":9,
			"componentType":5123,
			"count":6588,
			"type":"SCALAR"
		}
	],
	"bufferViews":[
		{
			"buffer":0,
			"byteLength":40116,
			"byteOffset":0,
			"target":34962
		},
		{
			"buffer":0,
			"byteLength":40116,
			"byteOffset":40116,
			"target":34962
		},
		{
			"buffer":0,
			"byteLength":26744,
			"byteOffset":80232,
			"target":34962
		},
		{
			"buffer":0,
			"byteLength":53488,
			"byteOffset":106976,
			"target":34962
		},
		{
			"buffer":0,
			"byteLength":32784,
			"byteOffset":160464,
			"target":34963
		},
		{
			"buffer":0,
			"byteLength":52704,
			"byteOffset":193248,
			"target":34962
		},
		{
			"buffer":0,
			"byteLength":52704,
			"byteOffset":245952,
			"target":34962
		},
		{
			"buffer":0,
			"byteLength":35136,
			"byteOffset":298656,
			"target":34962
		},
		{
			"buffer":0,
			"byteLength":70272,
			"byteOffset":333792,
			"target":34962
		},
		{
			"buffer":0,
			"byteLength":13176,
			"byteOffset":404064,
			"target":34963
		}
	],
	"buffers":[
		{
			"byteLength":417240,
			"uri":"BirchTree_2-3403e20b04827122a65459f51bac7b6c.bin"
		}
	]
}
