{
	"asset":{
		"generator":"Khronos glTF Blender I/O v5.0.21",
		"version":"2.0"
	},
	"scene":0,
	"scenes":[
		{
			"name":"Scene",
			"nodes":[
				0
			]
		}
	],
	"nodes":[
		{
			"mesh":0,
			"name":"BirchTree_3"
		}
	],
	"materials":[
		{
			"doubleSided":true,
			"name":"BirchTree_Bark"
		},
		{
			"doubleSided":true,
			"name":"BirchTree_Leaves"
		}
	],
	"meshes":[
		{
			"name":"Cube.000",
			"primitives":[
				{
					"attributes":{
						"POSITION":0,
						"NORMAL":1,
						"TEXCOORD_0":2,
						"TEXCOORD_1":3,
						"TANGENT":4
					},
					"indices":5,
					"material":0
				},
				{
					"attributes":{
						"POSITION":6,
						"NORMAL":7,
						"TEXCOORD_0":8,
						"TEXCOORD_1":9,
						"TANGENT":10
					},
					"indices":11,
					"material":1
				}
			]
		}
	],
	"accessors":[
		{
			"bufferView":0,
			"componentType":5126,
			"count":1646,
			"max":[
				1.4055445194244385,
				5.545559406280518,
				0.8506550192832947
			],
			"min":[
				-1.446382761001587,
				-0.008469140157103539,
				-0.5328736305236816
			],
			"type":"VEC3"
		},
		{
			"bufferView":1,
			"componentType":5126,
			"count":1646,
			"type":"VEC3"
		},
		{
			"bufferView":2,
			"componentType":5126,
			"count":1646,
			"type":"VEC2"
		},
		{
			"bufferView":3,
			"componentType":5126,
			"count":1646,
			"type":"VEC2"
		},
		{
			"bufferView":4,
			"componentType":5126,
			"count":1646,
			"type":"VEC4"
		},
		{
			"bufferView":5,
			"componentType":5123,
			"count":8040,
			"type":"SCALAR"
		},
		{
			"bufferView":6,
			"componentType":5126,
			"count":8276,
			"max":[
				1.7693895101547241,
				5.745725154876709,
				1.3416640758514404
			],
			"min":[
				-1.66342294216156,
				2.2327804565429688,
				-0.9253931045532227
			],
			"type":"VEC3"
		},
		{
			"bufferView":7,
			"componentType":5126,
			"count":8276,
			"type":"VEC3"
		},
		{
			"bufferView":8,
			"componentType":5126,
			"count":8276,
			"type":"VEC2"
		},
		{
			"bufferView":9,
			"componentType":5126,
			"count":8276,
			"type":"VEC2"
		},
		{
			"bufferView":10,
			"componentType":5126,
			"count":8276,
			"type":"VEC4"
		},
		{
			"bufferView":11,
			"componentType":5123,
			"count":12414,
			"type":"SCALAR"
		}
	],
	"bufferViews":[
		{
			"buffer":0,
			"byteLength":19752,
			"byteOffset":0,
			"target":34962
		},
		{
			"buffer":0,
			"byteLength":19752,
			"byteOffset":19752,
			"target":34962
		},
		{
			"buffer":0,
			"byteLength":13168,
			"byteOffset":39504,
			"target":34962
		},
		{
			"buffer":0,
			"byteLength":13168,
			"byteOffset":52672,
			"target":34962
		},
		{
			"buffer":0,
			"byteLength":26336,
			"byteOffset":65840,
			"target":34962
		},
		{
			"buffer":0,
			"byteLength":16080,
			"byteOffset":92176,
			"target":34963
		},
		{
			"buffer":0,
			"byteLength":99312,
			"byteOffset":108256,
			"target":34962
		},
		{
			"buffer":0,
			"byteLength":99312,
			"byteOffset":207568,
			"target":34962
		},
		{
			"buffer":0,
			"byteLength":66208,
			"byteOffset":306880,
			"target":34962
		},
		{
			"buffer":0,
			"byteLength":66208,
			"byteOffset":373088,
			"target":34962
		},
		{
			"buffer":0,
			"byteLength":132416,
			"byteOffset":439296,
			"target":34962
		},
		{
			"buffer":0,
			"byteLength":24828,
			"byteOffset":571712,
			"target":34963
		}
	],
	"buffers":[
		{
			"byteLength":596540,
			"uri":"BirchTree_3-28d6f72bdb0dc96b20f1ddda08ef07bb.bin"
		}
	]
}
