{
	"asset":{
		"generator":"Khronos glTF Blender I/O v5.0.21",
		"version":"2.0"
	},
	"scene":0,
	"scenes":[
		{
			"name":"Scene",
			"nodes":[
				0
			]
		}
	],
	"nodes":[
		{
			"mesh":0,
			"name":"BirchTree_1"
		}
	],
	"materials":[
		{
			"doubleSided":true,
			"name":"BirchTree_Bark"
		},
		{
			"doubleSided":true,
			"name":"BirchTree_Leaves"
		}
	],
	"meshes":[
		{
			"name":"Cube.004",
			"primitives":[
				{
					"attributes":{
						"POSITION":0,
						"NORMAL":1,
						"TEXCOORD_0":2,
						"TANGENT":3
					},
					"indices":4,
					"material":0
				},
				{
					"attributes":{
						"POSITION":5,
						"NORMAL":6,
						"TEXCOORD_0":7,
						"TANGENT":8
					},
					"indices":9,
					"material":1
				}
			]
		}
	],
	"accessors":[
		{
			"bufferView":0,
			"componentType":5126,
			"count":1634,
			"max":[
				0.9670372009277344,
				4.8608198165893555,
				0.6318668127059937
			],
			"min":[
				-0.8300637602806091,
				-0.01774914562702179,
				-0.5289766192436218
			],
			"type":"VEC3"
		},
		{
			"bufferView":1,
			"componentType":5126,
			"count":1634,
			"type":"VEC3"
		},
		{
			"bufferView":2,
			"componentType":5126,
			"count":1634,
			"type":"VEC2"
		},
		{
			"bufferView":3,
			"componentType":5126,
			"count":1634,
			"type":"VEC4"
		},
		{
			"bufferView":4,
			"componentType":5123,
			"count":8064,
			"type":"SCALAR"
		},
		{
			"bufferView":5,
			"componentType":5126,
			"count":3816,
			"max":[
				1.3658959865570068,
				5.43514347076416,
				1.068799376487732
			],
			"min":[
				-1.341935396194458,
				2.142258405685425,
				-0.8737319111824036
			],
			"type":"VEC3"
		},
		{
			"bufferView":6,
			"componentType":5126,
			"count":3816,
			"type":"VEC3"
		},
		{
			"bufferView":7,
			"componentType":5126,
			"count":3816,
			"type":"VEC2"
		},
		{
			"bufferView":8,
			"componentType":5126,
			"count":3816,
			"type":"VEC4"
		},
		{
			"bufferView":9,
			"componentType":5123,
			"count":5724,
			"type":"SCALAR"
		}
	],
	"bufferViews":[
		{
			"buffer":0,
			"byteLength":19608,
			"byteOffset":0,
			"target":34962
		},
		{
			"buffer":0,
			"byteLength":19608,
			"byteOffset":19608,
			"target":34962
		},
		{
			"buffer":0,
			"byteLength":13072,
			"byteOffset":39216,
			"target":34962
		},
		{
			"buffer":0,
			"byteLength":26144,
			"byteOffset":52288,
			"target":34962
		},
		{
			"buffer":0,
			"byteLength":16128,
			"byteOffset":78432,
			"target":34963
		},
		{
			"buffer":0,
			"byteLength":45792,
			"byteOffset":94560,
			"target":34962
		},
		{
			"buffer":0,
			"byteLength":45792,
			"byteOffset":140352,
			"target":34962
		},
		{
			"buffer":0,
			"byteLength":30528,
			"byteOffset":186144,
			"target":34962
		},
		{
			"buffer":0,
			"byteLength":61056,
			"byteOffset":216672,
			"target":34962
		},
		{
			"buffer":0,
			"byteLength":11448,
			"byteOffset":277728,
			"target":34963
		}
	],
	"buffers":[
		{
			"byteLength":289176,
			"uri":"BirchTree_1-c49c8e4717ca5f36346513b921784173.bin"
		}
	]
}
