{
	"asset":{
		"generator":"Khronos glTF Blender I/O v5.0.21",
		"version":"2.0"
	},
	"scene":0,
	"scenes":[
		{
			"name":"Scene",
			"nodes":[
				0
			]
		}
	],
	"nodes":[
		{
			"mesh":0,
			"name":"Bush_Large_Flowers",
			"rotation":[
				0.8006435632705688,
				0.26975396275520325,
				-0.040793512016534805,
				0.5334215760231018
			]
		}
	],
	"materials":[
		{
			"doubleSided":true,
			"name":"Bush_Leaves"
		},
		{
			"doubleSided":true,
			"name":"Flowers"
		}
	],
	"meshes":[
		{
			"name":"Plane.029",
			"primitives":[
				{
					"attributes":{
						"POSITION":0,
						"NORMAL":1,
						"TEXCOORD_0":2,
						"TANGENT":3
					},
					"indices":4,
					"material":0
				},
				{
					"attributes":{
						"POSITION":5,
						"NORMAL":6,
						"TEXCOORD_0":7,
						"TANGENT":8
					},
					"indices":9,
					"material":1
				}
			]
		}
	],
	"accessors":[
		{
			"bufferView":0,
			"componentType":5126,
			"count":552,
			"max":[
				1.149157166481018,
				0.5573542714118958,
				0.4012354910373688
			],
			"min":[
				-0.8172093629837036,
				-0.7824836373329163,
				-1.0758378505706787
			],
			"type":"VEC3"
		},
		{
			"bufferView":1,
			"componentType":5126,
			"count":552,
			"type":"VEC3"
		},
		{
			"bufferView":2,
			"componentType":5126,
			"count":552,
			"type":"VEC2"
		},
		{
			"bufferView":3,
			"componentType":5126,
			"count":552,
			"type":"VEC4"
		},
		{
			"bufferView":4,
			"componentType":5123,
			"count":828,
			"type":"SCALAR"
		},
		{
			"bufferView":5,
			"componentType":5126,
			"count":147,
			"max":[
				1.1831327676773071,
				0.4660194218158722,
				0.07130126655101776
			],
			"min":[
				-0.6124211549758911,
				-0.8222407698631287,
				-1.1121408939361572
			],
			"type":"VEC3"
		},
		{
			"bufferView":6,
			"componentType":5126,
			"count":147,
			"type":"VEC3"
		},
		{
			"bufferView":7,
			"componentType":5126,
			"count":147,
			"type":"VEC2"
		},
		{
			"bufferView":8,
			"componentType":5126,
			"count":147,
			"type":"VEC4"
		},
		{
			"bufferView":9,
			"componentType":5123,
			"count":378,
			"type":"SCALAR"
		}
	],
	"bufferViews":[
		{
			"buffer":0,
			"byteLength":6624,
			"byteOffset":0,
			"target":34962
		},
		{
			"buffer":0,
			"byteLength":6624,
			"byteOffset":6624,
			"target":34962
		},
		{
			"buffer":0,
			"byteLength":4416,
			"byteOffset":13248,
			"target":34962
		},
		{
			"buffer":0,
			"byteLength":8832,
			"byteOffset":17664,
			"target":34962
		},
		{
			"buffer":0,
			"byteLength":1656,
			"byteOffset":26496,
			"target":34963
		},
		{
			"buffer":0,
			"byteLength":1764,
			"byteOffset":28152,
			"target":34962
		},
		{
			"buffer":0,
			"byteLength":1764,
			"byteOffset":29916,
			"target":34962
		},
		{
			"buffer":0,
			"byteLength":1176,
			"byteOffset":31680,
			"target":34962
		},
		{
			"buffer":0,
			"byteLength":2352,
			"byteOffset":32856,
			"target":34962
		},
		{
			"buffer":0,
			"byteLength":756,
			"byteOffset":35208,
			"target":34963
		}
	],
	"buffers":[
		{
			"byteLength":35964,
			"uri":"Bush_Large_Flowers-cfaf9ae198477022f41dedf7930d76ed.bin"
		}
	]
}
