{
	"asset":{
		"generator":"Khronos glTF Blender I/O v5.0.21",
		"version":"2.0"
	},
	"scene":0,
	"scenes":[
		{
			"name":"Scene",
			"nodes":[
				0
			]
		}
	],
	"nodes":[
		{
			"mesh":0,
			"name":"Bush_Flowers",
			"rotation":[
				0.7904141545295715,
				0.20954930782318115,
				-0.402734637260437,
				0.4112655818462372
			]
		}
	],
	"materials":[
		{
			"doubleSided":true,
			"name":"Bush_Leaves"
		},
		{
			"doubleSided":true,
			"name":"Flowers"
		}
	],
	"meshes":[
		{
			"name":"Plane.003",
			"primitives":[
				{
					"attributes":{
						"POSITION":0,
						"NORMAL":1,
						"TEXCOORD_0":2,
						"TANGENT":3
					},
					"indices":4,
					"material":0
				},
				{
					"attributes":{
						"POSITION":5,
						"NORMAL":6,
						"TEXCOORD_0":7,
						"TANGENT":8
					},
					"indices":9,
					"material":1
				}
			]
		}
	],
	"accessors":[
		{
			"bufferView":0,
			"componentType":5126,
			"count":800,
			"max":[
				0.5290597081184387,
				0.47277382016181946,
				0.36149728298187256
			],
			"min":[
				-0.5728190541267395,
				-0.6429753303527832,
				-0.652008593082428
			],
			"type":"VEC3"
		},
		{
			"bufferView":1,
			"componentType":5126,
			"count":800,
			"type":"VEC3"
		},
		{
			"bufferView":2,
			"componentType":5126,
			"count":800,
			"type":"VEC2"
		},
		{
			"bufferView":3,
			"componentType":5126,
			"count":800,
			"type":"VEC4"
		},
		{
			"bufferView":4,
			"componentType":5123,
			"count":1200,
			"type":"SCALAR"
		},
		{
			"bufferView":5,
			"componentType":5126,
			"count":91,
			"max":[
				0.5439478754997253,
				0.42564618587493896,
				0.3131656348705292
			],
			"min":[
				-0.5594223141670227,
				-0.6218320727348328,
				-0.6686300039291382
			],
			"type":"VEC3"
		},
		{
			"bufferView":6,
			"componentType":5126,
			"count":91,
			"type":"VEC3"
		},
		{
			"bufferView":7,
			"componentType":5126,
			"count":91,
			"type":"VEC2"
		},
		{
			"bufferView":8,
			"componentType":5126,
			"count":91,
			"type":"VEC4"
		},
		{
			"bufferView":9,
			"componentType":5123,
			"count":234,
			"type":"SCALAR"
		}
	],
	"bufferViews":[
		{
			"buffer":0,
			"byteLength":9600,
			"byteOffset":0,
			"target":34962
		},
		{
			"buffer":0,
			"byteLength":9600,
			"byteOffset":9600,
			"target":34962
		},
		{
			"buffer":0,
			"byteLength":6400,
			"byteOffset":19200,
			"target":34962
		},
		{
			"buffer":0,
			"byteLength":12800,
			"byteOffset":25600,
			"target":34962
		},
		{
			"buffer":0,
			"byteLength":2400,
			"byteOffset":38400,
			"target":34963
		},
		{
			"buffer":0,
			"byteLength":1092,
			"byteOffset":40800,
			"target":34962
		},
		{
			"buffer":0,
			"byteLength":1092,
			"byteOffset":41892,
			"target":34962
		},
		{
			"buffer":0,
			"byteLength":728,
			"byteOffset":42984,
			"target":34962
		},
		{
			"buffer":0,
			"byteLength":1456,
			"byteOffset":43712,
			"target":34962
		},
		{
			"buffer":0,
			"byteLength":468,
			"byteOffset":45168,
			"target":34963
		}
	],
	"buffers":[
		{
			"byteLength":45636,
			"uri":"Bush_Flowers-ff497f48d403821b83d47d8e3fccc0f9.bin"
		}
	]
}
