{
	"asset":{
		"generator":"Khronos glTF Blender I/O v5.0.21",
		"version":"2.0"
	},
	"scene":0,
	"scenes":[
		{
			"name":"Scene",
			"nodes":[
				0
			]
		}
	],
	"nodes":[
		{
			"mesh":0,
			"name":"Column_1"
		}
	],
	"materials":[
		{
			"doubleSided":true,
			"name":"Main",
			"pbrMetallicRoughness":{
				"baseColorFactor":[
					0.40196332335472107,
					0.40196332335472107,
					0.40196332335472107,
					1
				],
				"metallicFactor":0,
				"roughnessFactor":0.5
			}
		},
		{
			"doubleSided":true,
			"name":"DarkGrey",
			"pbrMetallicRoughness":{
				"baseColorFactor":[
					0.23954731225967407,
					0.23954731225967407,
					0.23954731225967407,
					1
				],
				"metallicFactor":0,
				"roughnessFactor":0.5
			}
		}
	],
	"meshes":[
		{
			"name":"Plane.266",
			"primitives":[
				{
					"attributes":{
						"POSITION":0,
						"NORMAL":1
					},
					"indices":2,
					"material":0
				},
				{
					"attributes":{
						"POSITION":3,
						"NORMAL":4
					},
					"indices":5,
					"material":1
				}
			]
		}
	],
	"accessors":[
		{
			"bufferView":0,
			"componentType":5126,
			"count":100,
			"max":[
				0.34214526414871216,
				4.463406085968018,
				0.34214532375335693
			],
			"min":[
				-0.34214526414871216,
				2.1724019050598145,
				-0.34214532375335693
			],
			"type":"VEC3"
		},
		{
			"bufferView":1,
			"componentType":5126,
			"count":100,
			"type":"VEC3"
		},
		{
			"bufferView":2,
			"componentType":5123,
			"count":150,
			"type":"SCALAR"
		},
		{
			"bufferView":3,
			"componentType":5126,
			"count":20,
			"max":[
				0.3183589577674866,
				2.1724019050598145,
				0.31835898756980896
			],
			"min":[
				-0.3183589577674866,
				0,
				-0.31835898756980896
			],
			"type":"VEC3"
		},
		{
			"bufferView":4,
			"componentType":5126,
			"count":20,
			"type":"VEC3"
		},
		{
			"bufferView":5,
			"componentType":5123,
			"count":30,
			"type":"SCALAR"
		}
	],
	"bufferViews":[
		{
			"buffer":0,
			"byteLength":1200,
			"byteOffset":0,
			"target":34962
		},
		{
			"buffer":0,
			"byteLength":1200,
			"byteOffset":1200,
			"target":34962
		},
		{
			"buffer":0,
			"byteLength":300,
			"byteOffset":2400,
			"target":34963
		},
		{
			"buffer":0,
			"byteLength":240,
			"byteOffset":2700,
			"target":34962
		},
		{
			"buffer":0,
			"byteLength":240,
			"byteOffset":2940,
			"target":34962
		},
		{
			"buffer":0,
			"byteLength":60,
			"byteOffset":3180,
			"target":34963
		}
	],
	"buffers":[
		{
			"byteLength":3240,
			"uri":"Column_1-14ab324ede3e0736c7854f133fd753c2.bin"
		}
	]
}
