{
	"asset":{
		"generator":"Khronos glTF Blender I/O v5.0.21",
		"version":"2.0"
	},
	"scene":0,
	"scenes":[
		{
			"name":"Scene",
			"nodes":[
				0
			]
		}
	],
	"nodes":[
		{
			"mesh":0,
			"name":"Column_Slim"
		}
	],
	"materials":[
		{
			"doubleSided":true,
			"name":"DarkGrey",
			"pbrMetallicRoughness":{
				"baseColorFactor":[
					0.23954731225967407,
					0.23954731225967407,
					0.23954731225967407,
					1
				],
				"metallicFactor":0,
				"roughnessFactor":0.5
			}
		},
		{
			"doubleSided":true,
			"name":"Main",
			"pbrMetallicRoughness":{
				"baseColorFactor":[
					0.40196332335472107,
					0.40196332335472107,
					0.40196332335472107,
					1
				],
				"metallicFactor":0,
				"roughnessFactor":0.5
			}
		},
		{
			"doubleSided":true,
			"name":"Pipes",
			"pbrMetallicRoughness":{
				"baseColorFactor":[
					0.01884707622230053,
					0.01884707622230053,
					0.01884707622230053,
					1
				],
				"metallicFactor":0,
				"roughnessFactor":0.5
			}
		}
	],
	"meshes":[
		{
			"name":"Plane.044",
			"primitives":[
				{
					"attributes":{
						"POSITION":0,
						"NORMAL":1
					},
					"indices":2,
					"material":0
				},
				{
					"attributes":{
						"POSITION":3,
						"NORMAL":4
					},
					"indices":5,
					"material":1
				},
				{
					"attributes":{
						"POSITION":6,
						"NORMAL":7
					},
					"indices":8,
					"material":2
				}
			]
		}
	],
	"accessors":[
		{
			"bufferView":0,
			"componentType":5126,
			"count":208,
			"max":[
				0.19587725400924683,
				4.459660053253174,
				0.30606579780578613
			],
			"min":[
				-0.1958777904510498,
				0,
				-0.25711020827293396
			],
			"type":"VEC3"
		},
		{
			"bufferView":1,
			"componentType":5126,
			"count":208,
			"type":"VEC3"
		},
		{
			"bufferView":2,
			"componentType":5123,
			"count":390,
			"type":"SCALAR"
		},
		{
			"bufferView":3,
			"componentType":5126,
			"count":20,
			"max":[
				0.061395466327667236,
				1.532764196395874,
				0.06200815364718437
			],
			"min":[
				-0.06139601394534111,
				0.8276324272155762,
				-0.13636821508407593
			],
			"type":"VEC3"
		},
		{
			"bufferView":4,
			"componentType":5126,
			"count":20,
			"type":"VEC3"
		},
		{
			"bufferView":5,
			"componentType":5123,
			"count":30,
			"type":"SCALAR"
		},
		{
			"bufferView":6,
			"componentType":5126,
			"count":160,
			"max":[
				0.30915534496307373,
				2.7190260887145996,
				0.0322125069797039
			],
			"min":[
				-0.3194441795349121,
				2.426861047744751,
				-0.38695088028907776
			],
			"type":"VEC3"
		},
		{
			"bufferView":7,
			"componentType":5126,
			"count":160,
			"type":"VEC3"
		},
		{
			"bufferView":8,
			"componentType":5123,
			"count":768,
			"type":"SCALAR"
		}
	],
	"bufferViews":[
		{
			"buffer":0,
			"byteLength":2496,
			"byteOffset":0,
			"target":34962
		},
		{
			"buffer":0,
			"byteLength":2496,
			"byteOffset":2496,
			"target":34962
		},
		{
			"buffer":0,
			"byteLength":780,
			"byteOffset":4992,
			"target":34963
		},
		{
			"buffer":0,
			"byteLength":240,
			"byteOffset":5772,
			"target":34962
		},
		{
			"buffer":0,
			"byteLength":240,
			"byteOffset":6012,
			"target":34962
		},
		{
			"buffer":0,
			"byteLength":60,
			"byteOffset":6252,
			"target":34963
		},
		{
			"buffer":0,
			"byteLength":1920,
			"byteOffset":6312,
			"target":34962
		},
		{
			"buffer":0,
			"byteLength":1920,
			"byteOffset":8232,
			"target":34962
		},
		{
			"buffer":0,
			"byteLength":1536,
			"byteOffset":10152,
			"target":34963
		}
	],
	"buffers":[
		{
			"byteLength":11688,
			"uri":"Column_Slim-7d6fa60a5fc26c61c8dd70ff3bf8e92d.bin"
		}
	]
}
