{
	"asset":{
		"generator":"Khronos glTF Blender I/O v5.0.21",
		"version":"2.0"
	},
	"scene":0,
	"scenes":[
		{
			"name":"Scene",
			"nodes":[
				0
			]
		}
	],
	"nodes":[
		{
			"mesh":0,
			"name":"DeadTree_2"
		}
	],
	"materials":[
		{
			"doubleSided":true,
			"name":"NormalTree_Bark"
		}
	],
	"meshes":[
		{
			"name":"Cylinder.004",
			"primitives":[
				{
					"attributes":{
						"POSITION":0,
						"NORMAL":1,
						"TEXCOORD_0":2,
						"TANGENT":3
					},
					"indices":4,
					"material":0
				}
			]
		}
	],
	"accessors":[
		{
			"bufferView":0,
			"componentType":5126,
			"count":3264,
			"max":[
				1.635667324066162,
				6.185760498046875,
				0.6366407871246338
			],
			"min":[
				-1.7882426977157593,
				-0.010010119527578354,
				-0.8091591000556946
			],
			"type":"VEC3"
		},
		{
			"bufferView":1,
			"componentType":5126,
			"count":3264,
			"type":"VEC3"
		},
		{
			"bufferView":2,
			"componentType":5126,
			"count":3264,
			"type":"VEC2"
		},
		{
			"bufferView":3,
			"componentType":5126,
			"count":3264,
			"type":"VEC4"
		},
		{
			"bufferView":4,
			"componentType":5123,
			"count":16032,
			"type":"SCALAR"
		}
	],
	"bufferViews":[
		{
			"buffer":0,
			"byteLength":39168,
			"byteOffset":0,
			"target":34962
		},
		{
			"buffer":0,
			"byteLength":39168,
			"byteOffset":39168,
			"target":34962
		},
		{
			"buffer":0,
			"byteLength":26112,
			"byteOffset":78336,
			"target":34962
		},
		{
			"buffer":0,
			"byteLength":52224,
			"byteOffset":104448,
			"target":34962
		},
		{
			"buffer":0,
			"byteLength":32064,
			"byteOffset":156672,
			"target":34963
		}
	],
	"buffers":[
		{
			"byteLength":188736,
			"uri":"DeadTree_2-e85a06b6e43f5ab2772b98672a1475bc.bin"
		}
	]
}
