{
	"asset":{
		"generator":"Khronos glTF Blender I/O v5.0.21",
		"version":"2.0"
	},
	"scene":0,
	"scenes":[
		{
			"name":"Scene",
			"nodes":[
				0
			]
		}
	],
	"nodes":[
		{
			"mesh":0,
			"name":"DeadTree_10"
		}
	],
	"materials":[
		{
			"doubleSided":true,
			"name":"MapleTree_Bark"
		}
	],
	"meshes":[
		{
			"name":"Cube.010",
			"primitives":[
				{
					"attributes":{
						"POSITION":0,
						"NORMAL":1,
						"TEXCOORD_0":2,
						"TANGENT":3
					},
					"indices":4,
					"material":0
				}
			]
		}
	],
	"accessors":[
		{
			"bufferView":0,
			"componentType":5126,
			"count":1952,
			"max":[
				2.441612482070923,
				7.126369953155518,
				1.9308204650878906
			],
			"min":[
				-3.0191519260406494,
				0.0006941246683709323,
				-1.3140323162078857
			],
			"type":"VEC3"
		},
		{
			"bufferView":1,
			"componentType":5126,
			"count":1952,
			"type":"VEC3"
		},
		{
			"bufferView":2,
			"componentType":5126,
			"count":1952,
			"type":"VEC2"
		},
		{
			"bufferView":3,
			"componentType":5126,
			"count":1952,
			"type":"VEC4"
		},
		{
			"bufferView":4,
			"componentType":5123,
			"count":9624,
			"type":"SCALAR"
		}
	],
	"bufferViews":[
		{
			"buffer":0,
			"byteLength":23424,
			"byteOffset":0,
			"target":34962
		},
		{
			"buffer":0,
			"byteLength":23424,
			"byteOffset":23424,
			"target":34962
		},
		{
			"buffer":0,
			"byteLength":15616,
			"byteOffset":46848,
			"target":34962
		},
		{
			"buffer":0,
			"byteLength":31232,
			"byteOffset":62464,
			"target":34962
		},
		{
			"buffer":0,
			"byteLength":19248,
			"byteOffset":93696,
			"target":34963
		}
	],
	"buffers":[
		{
			"byteLength":112944,
			"uri":"DeadTree_10-f944d089d1f7b545157c91922d19c35d.bin"
		}
	]
}
