{
	"asset":{
		"generator":"Khronos glTF Blender I/O v5.0.21",
		"version":"2.0"
	},
	"scene":0,
	"scenes":[
		{
			"name":"Scene",
			"nodes":[
				0
			]
		}
	],
	"nodes":[
		{
			"mesh":0,
			"name":"DeadTree_3"
		}
	],
	"materials":[
		{
			"doubleSided":true,
			"name":"NormalTree_Bark"
		}
	],
	"meshes":[
		{
			"name":"Cylinder.009",
			"primitives":[
				{
					"attributes":{
						"POSITION":0,
						"NORMAL":1,
						"TEXCOORD_0":2,
						"TANGENT":3
					},
					"indices":4,
					"material":0
				}
			]
		}
	],
	"accessors":[
		{
			"bufferView":0,
			"componentType":5126,
			"count":3004,
			"max":[
				2.8662118911743164,
				4.9478936195373535,
				0.7827639579772949
			],
			"min":[
				-1.3526040315628052,
				-0.010010122321546078,
				-0.918813169002533
			],
			"type":"VEC3"
		},
		{
			"bufferView":1,
			"componentType":5126,
			"count":3004,
			"type":"VEC3"
		},
		{
			"bufferView":2,
			"componentType":5126,
			"count":3004,
			"type":"VEC2"
		},
		{
			"bufferView":3,
			"componentType":5126,
			"count":3004,
			"type":"VEC4"
		},
		{
			"bufferView":4,
			"componentType":5123,
			"count":14784,
			"type":"SCALAR"
		}
	],
	"bufferViews":[
		{
			"buffer":0,
			"byteLength":36048,
			"byteOffset":0,
			"target":34962
		},
		{
			"buffer":0,
			"byteLength":36048,
			"byteOffset":36048,
			"target":34962
		},
		{
			"buffer":0,
			"byteLength":24032,
			"byteOffset":72096,
			"target":34962
		},
		{
			"buffer":0,
			"byteLength":48064,
			"byteOffset":96128,
			"target":34962
		},
		{
			"buffer":0,
			"byteLength":29568,
			"byteOffset":144192,
			"target":34963
		}
	],
	"buffers":[
		{
			"byteLength":173760,
			"uri":"DeadTree_3-85dda6237bb0efdd89974a6518635d60.bin"
		}
	]
}
