{
	"asset":{
		"generator":"Khronos glTF Blender I/O v5.0.21",
		"version":"2.0"
	},
	"scene":0,
	"scenes":[
		{
			"name":"Scene",
			"nodes":[
				0
			]
		}
	],
	"nodes":[
		{
			"mesh":0,
			"name":"DeadTree_1"
		}
	],
	"materials":[
		{
			"doubleSided":true,
			"name":"NormalTree_Bark"
		}
	],
	"meshes":[
		{
			"name":"Cylinder.001",
			"primitives":[
				{
					"attributes":{
						"POSITION":0,
						"NORMAL":1,
						"TEXCOORD_0":2,
						"TANGENT":3
					},
					"indices":4,
					"material":0
				}
			]
		}
	],
	"accessors":[
		{
			"bufferView":0,
			"componentType":5126,
			"count":2923,
			"max":[
				1.4404239654541016,
				6.185760498046875,
				0.6190109848976135
			],
			"min":[
				-1.6520121097564697,
				-0.009869025088846684,
				-0.676365852355957
			],
			"type":"VEC3"
		},
		{
			"bufferView":1,
			"componentType":5126,
			"count":2923,
			"type":"VEC3"
		},
		{
			"bufferView":2,
			"componentType":5126,
			"count":2923,
			"type":"VEC2"
		},
		{
			"bufferView":3,
			"componentType":5126,
			"count":2923,
			"type":"VEC4"
		},
		{
			"bufferView":4,
			"componentType":5123,
			"count":14376,
			"type":"SCALAR"
		}
	],
	"bufferViews":[
		{
			"buffer":0,
			"byteLength":35076,
			"byteOffset":0,
			"target":34962
		},
		{
			"buffer":0,
			"byteLength":35076,
			"byteOffset":35076,
			"target":34962
		},
		{
			"buffer":0,
			"byteLength":23384,
			"byteOffset":70152,
			"target":34962
		},
		{
			"buffer":0,
			"byteLength":46768,
			"byteOffset":93536,
			"target":34962
		},
		{
			"buffer":0,
			"byteLength":28752,
			"byteOffset":140304,
			"target":34963
		}
	],
	"buffers":[
		{
			"byteLength":169056,
			"uri":"DeadTree_1-37544bfb21e7696ebaf81670076bf0b2.bin"
		}
	]
}
