{
	"asset":{
		"generator":"Khronos glTF Blender I/O v5.0.21",
		"version":"2.0"
	},
	"scene":0,
	"scenes":[
		{
			"name":"Scene",
			"nodes":[
				0
			]
		}
	],
	"nodes":[
		{
			"mesh":0,
			"name":"DeadTree_8"
		}
	],
	"materials":[
		{
			"doubleSided":true,
			"name":"MapleTree_Bark"
		}
	],
	"meshes":[
		{
			"name":"Cube.008",
			"primitives":[
				{
					"attributes":{
						"POSITION":0,
						"NORMAL":1,
						"TEXCOORD_0":2,
						"TANGENT":3
					},
					"indices":4,
					"material":0
				}
			]
		}
	],
	"accessors":[
		{
			"bufferView":0,
			"componentType":5126,
			"count":2999,
			"max":[
				4.147934913635254,
				6.277482986450195,
				1.93081796169281
			],
			"min":[
				-4.017767429351807,
				0.0006945766508579254,
				-2.8707633018493652
			],
			"type":"VEC3"
		},
		{
			"bufferView":1,
			"componentType":5126,
			"count":2999,
			"type":"VEC3"
		},
		{
			"bufferView":2,
			"componentType":5126,
			"count":2999,
			"type":"VEC2"
		},
		{
			"bufferView":3,
			"componentType":5126,
			"count":2999,
			"type":"VEC4"
		},
		{
			"bufferView":4,
			"componentType":5123,
			"count":14832,
			"type":"SCALAR"
		}
	],
	"bufferViews":[
		{
			"buffer":0,
			"byteLength":35988,
			"byteOffset":0,
			"target":34962
		},
		{
			"buffer":0,
			"byteLength":35988,
			"byteOffset":35988,
			"target":34962
		},
		{
			"buffer":0,
			"byteLength":23992,
			"byteOffset":71976,
			"target":34962
		},
		{
			"buffer":0,
			"byteLength":47984,
			"byteOffset":95968,
			"target":34962
		},
		{
			"buffer":0,
			"byteLength":29664,
			"byteOffset":143952,
			"target":34963
		}
	],
	"buffers":[
		{
			"byteLength":173616,
			"uri":"DeadTree_8-6ce71b6b46d6e0b681449255cfbd88e8.bin"
		}
	]
}
