{
	"asset":{
		"generator":"Khronos glTF Blender I/O v5.0.21",
		"version":"2.0"
	},
	"scene":0,
	"scenes":[
		{
			"name":"Scene",
			"nodes":[
				0
			]
		}
	],
	"nodes":[
		{
			"mesh":0,
			"name":"Details_Plate_Large"
		}
	],
	"materials":[
		{
			"doubleSided":true,
			"name":"Main",
			"pbrMetallicRoughness":{
				"baseColorFactor":[
					0.40196332335472107,
					0.40196332335472107,
					0.40196332335472107,
					1
				],
				"metallicFactor":0,
				"roughnessFactor":0.5
			}
		},
		{
			"doubleSided":true,
			"name":"Accent",
			"pbrMetallicRoughness":{
				"baseColorFactor":[
					0.559592604637146,
					0.29767245054244995,
					0.06678982824087143,
					1
				],
				"metallicFactor":0,
				"roughnessFactor":0.5
			}
		}
	],
	"meshes":[
		{
			"name":"Cube.060",
			"primitives":[
				{
					"attributes":{
						"POSITION":0,
						"NORMAL":1
					},
					"indices":2,
					"material":0
				},
				{
					"attributes":{
						"POSITION":3,
						"NORMAL":4
					},
					"indices":5,
					"material":1
				}
			]
		}
	],
	"accessors":[
		{
			"bufferView":0,
			"componentType":5126,
			"count":192,
			"max":[
				0.5260709524154663,
				0.5244299173355103,
				0.006857043597847223
			],
			"min":[
				-0.5260710716247559,
				-0.5251241326332092,
				-0.015904687345027924
			],
			"type":"VEC3"
		},
		{
			"bufferView":1,
			"componentType":5126,
			"count":192,
			"type":"VEC3"
		},
		{
			"bufferView":2,
			"componentType":5123,
			"count":564,
			"type":"SCALAR"
		},
		{
			"bufferView":3,
			"componentType":5126,
			"count":240,
			"max":[
				0.43631264567375183,
				0.5382946133613586,
				0.012783252634108067
			],
			"min":[
				-0.4363126754760742,
				-0.5374268293380737,
				-0.008259442634880543
			],
			"type":"VEC3"
		},
		{
			"bufferView":4,
			"componentType":5126,
			"count":240,
			"type":"VEC3"
		},
		{
			"bufferView":5,
			"componentType":5123,
			"count":504,
			"type":"SCALAR"
		}
	],
	"bufferViews":[
		{
			"buffer":0,
			"byteLength":2304,
			"byteOffset":0,
			"target":34962
		},
		{
			"buffer":0,
			"byteLength":2304,
			"byteOffset":2304,
			"target":34962
		},
		{
			"buffer":0,
			"byteLength":1128,
			"byteOffset":4608,
			"target":34963
		},
		{
			"buffer":0,
			"byteLength":2880,
			"byteOffset":5736,
			"target":34962
		},
		{
			"buffer":0,
			"byteLength":2880,
			"byteOffset":8616,
			"target":34962
		},
		{
			"buffer":0,
			"byteLength":1008,
			"byteOffset":11496,
			"target":34963
		}
	],
	"buffers":[
		{
			"byteLength":12504,
			"uri":"Details_Plate_Large-26a5e3130537303ea8095221e33b4e63.bin"
		}
	]
}
