{
	"asset":{
		"generator":"Khronos glTF Blender I/O v5.0.21",
		"version":"2.0"
	},
	"scene":0,
	"scenes":[
		{
			"name":"Scene",
			"nodes":[
				0
			]
		}
	],
	"nodes":[
		{
			"mesh":0,
			"name":"Details_Output"
		}
	],
	"materials":[
		{
			"doubleSided":true,
			"name":"DarkGrey",
			"pbrMetallicRoughness":{
				"baseColorFactor":[
					0.23954731225967407,
					0.23954731225967407,
					0.23954731225967407,
					1
				],
				"metallicFactor":0,
				"roughnessFactor":0.5
			}
		},
		{
			"doubleSided":true,
			"name":"Accent",
			"pbrMetallicRoughness":{
				"baseColorFactor":[
					0.559592604637146,
					0.29767245054244995,
					0.06678982824087143,
					1
				],
				"metallicFactor":0,
				"roughnessFactor":0.5
			}
		}
	],
	"meshes":[
		{
			"name":"Cube.059",
			"primitives":[
				{
					"attributes":{
						"POSITION":0,
						"NORMAL":1
					},
					"indices":2,
					"material":0
				},
				{
					"attributes":{
						"POSITION":3,
						"NORMAL":4
					},
					"indices":5,
					"material":1
				}
			]
		}
	],
	"accessors":[
		{
			"bufferView":0,
			"componentType":5126,
			"count":196,
			"max":[
				0.07360115647315979,
				0.07360240817070007,
				0.02771616540849209
			],
			"min":[
				-0.0736030787229538,
				-0.07360144704580307,
				-0.022617971524596214
			],
			"type":"VEC3"
		},
		{
			"bufferView":1,
			"componentType":5126,
			"count":196,
			"type":"VEC3"
		},
		{
			"bufferView":2,
			"componentType":5123,
			"count":474,
			"type":"SCALAR"
		},
		{
			"bufferView":3,
			"componentType":5126,
			"count":196,
			"max":[
				0.14985588192939758,
				0.1485038697719574,
				0.02380051650106907
			],
			"min":[
				-0.1498577892780304,
				-0.14850404858589172,
				-0.03098106011748314
			],
			"type":"VEC3"
		},
		{
			"bufferView":4,
			"componentType":5126,
			"count":196,
			"type":"VEC3"
		},
		{
			"bufferView":5,
			"componentType":5123,
			"count":474,
			"type":"SCALAR"
		}
	],
	"bufferViews":[
		{
			"buffer":0,
			"byteLength":2352,
			"byteOffset":0,
			"target":34962
		},
		{
			"buffer":0,
			"byteLength":2352,
			"byteOffset":2352,
			"target":34962
		},
		{
			"buffer":0,
			"byteLength":948,
			"byteOffset":4704,
			"target":34963
		},
		{
			"buffer":0,
			"byteLength":2352,
			"byteOffset":5652,
			"target":34962
		},
		{
			"buffer":0,
			"byteLength":2352,
			"byteOffset":8004,
			"target":34962
		},
		{
			"buffer":0,
			"byteLength":948,
			"byteOffset":10356,
			"target":34963
		}
	],
	"buffers":[
		{
			"byteLength":11304,
			"uri":"Details_Output-51c5491091f190819696ede6b9484f2d.bin"
		}
	]
}
