{
	"asset":{
		"generator":"Khronos glTF Blender I/O v5.0.21",
		"version":"2.0"
	},
	"scene":0,
	"scenes":[
		{
			"name":"Scene",
			"nodes":[
				0
			]
		}
	],
	"nodes":[
		{
			"mesh":0,
			"name":"Details_Vent_4"
		}
	],
	"materials":[
		{
			"doubleSided":true,
			"name":"Accent",
			"pbrMetallicRoughness":{
				"baseColorFactor":[
					0.559592604637146,
					0.29767245054244995,
					0.06678982824087143,
					1
				],
				"metallicFactor":0,
				"roughnessFactor":0.5
			}
		},
		{
			"doubleSided":true,
			"name":"DarkAccent",
			"pbrMetallicRoughness":{
				"baseColorFactor":[
					0.226578950881958,
					0.12337818741798401,
					0.030147360637784004,
					1
				],
				"metallicFactor":0,
				"roughnessFactor":0.5
			}
		},
		{
			"doubleSided":true,
			"name":"Black",
			"pbrMetallicRoughness":{
				"baseColorFactor":[
					0.04202548414468765,
					0.04202548414468765,
					0.04202548414468765,
					1
				],
				"metallicFactor":0,
				"roughnessFactor":0.5
			}
		}
	],
	"meshes":[
		{
			"name":"Cube.065",
			"primitives":[
				{
					"attributes":{
						"POSITION":0,
						"NORMAL":1
					},
					"indices":2,
					"material":0
				},
				{
					"attributes":{
						"POSITION":3,
						"NORMAL":4
					},
					"indices":5,
					"material":1
				},
				{
					"attributes":{
						"POSITION":6,
						"NORMAL":7
					},
					"indices":8,
					"material":2
				}
			]
		}
	],
	"accessors":[
		{
			"bufferView":0,
			"componentType":5126,
			"count":112,
			"max":[
				0.11912894248962402,
				0.20578935742378235,
				0.036870554089546204
			],
			"min":[
				-0.11912894248962402,
				-0.16953341662883759,
				-0.02787344716489315
			],
			"type":"VEC3"
		},
		{
			"bufferView":1,
			"componentType":5126,
			"count":112,
			"type":"VEC3"
		},
		{
			"bufferView":2,
			"componentType":5123,
			"count":192,
			"type":"SCALAR"
		},
		{
			"bufferView":3,
			"componentType":5126,
			"count":1040,
			"max":[
				0.09936533123254776,
				0.15430451929569244,
				0.0626477375626564
			],
			"min":[
				-0.09723265469074249,
				-0.11305943131446838,
				-0.02094877138733864
			],
			"type":"VEC3"
		},
		{
			"bufferView":4,
			"componentType":5126,
			"count":1040,
			"type":"VEC3"
		},
		{
			"bufferView":5,
			"componentType":5123,
			"count":1680,
			"type":"SCALAR"
		},
		{
			"bufferView":6,
			"componentType":5126,
			"count":8,
			"max":[
				0.08656594157218933,
				0.16384945809841156,
				-0.018999818712472916
			],
			"min":[
				-0.08656594157218933,
				-0.1275935173034668,
				-0.018999818712472916
			],
			"type":"VEC3"
		},
		{
			"bufferView":7,
			"componentType":5126,
			"count":8,
			"type":"VEC3"
		},
		{
			"bufferView":8,
			"componentType":5123,
			"count":18,
			"type":"SCALAR"
		}
	],
	"bufferViews":[
		{
			"buffer":0,
			"byteLength":1344,
			"byteOffset":0,
			"target":34962
		},
		{
			"buffer":0,
			"byteLength":1344,
			"byteOffset":1344,
			"target":34962
		},
		{
			"buffer":0,
			"byteLength":384,
			"byteOffset":2688,
			"target":34963
		},
		{
			"buffer":0,
			"byteLength":12480,
			"byteOffset":3072,
			"target":34962
		},
		{
			"buffer":0,
			"byteLength":12480,
			"byteOffset":15552,
			"target":34962
		},
		{
			"buffer":0,
			"byteLength":3360,
			"byteOffset":28032,
			"target":34963
		},
		{
			"buffer":0,
			"byteLength":96,
			"byteOffset":31392,
			"target":34962
		},
		{
			"buffer":0,
			"byteLength":96,
			"byteOffset":31488,
			"target":34962
		},
		{
			"buffer":0,
			"byteLength":36,
			"byteOffset":31584,
			"target":34963
		}
	],
	"buffers":[
		{
			"byteLength":31620,
			"uri":"Details_Vent_4-9fe0e9ed009c9005e77d286fbd59b3fb.bin"
		}
	]
}
