{
	"asset":{
		"generator":"Khronos glTF Blender I/O v5.0.21",
		"version":"2.0"
	},
	"scene":0,
	"scenes":[
		{
			"name":"Scene",
			"nodes":[
				0
			]
		}
	],
	"nodes":[
		{
			"mesh":0,
			"name":"Details_Basic_2"
		}
	],
	"materials":[
		{
			"doubleSided":true,
			"name":"Main",
			"pbrMetallicRoughness":{
				"baseColorFactor":[
					0.40196332335472107,
					0.40196332335472107,
					0.40196332335472107,
					1
				],
				"metallicFactor":0,
				"roughnessFactor":0.5
			}
		},
		{
			"doubleSided":true,
			"name":"DarkGrey",
			"pbrMetallicRoughness":{
				"baseColorFactor":[
					0.23954731225967407,
					0.23954731225967407,
					0.23954731225967407,
					1
				],
				"metallicFactor":0,
				"roughnessFactor":0.5
			}
		}
	],
	"meshes":[
		{
			"name":"Cube.058",
			"primitives":[
				{
					"attributes":{
						"POSITION":0,
						"NORMAL":1
					},
					"indices":2,
					"material":0
				},
				{
					"attributes":{
						"POSITION":3,
						"NORMAL":4
					},
					"indices":5,
					"material":1
				}
			]
		}
	],
	"accessors":[
		{
			"bufferView":0,
			"componentType":5126,
			"count":96,
			"max":[
				0.1349606215953827,
				0.26461830735206604,
				0.01120926532894373
			],
			"min":[
				-0.13496074080467224,
				-0.2646181583404541,
				-0.028700653463602066
			],
			"type":"VEC3"
		},
		{
			"bufferView":1,
			"componentType":5126,
			"count":96,
			"type":"VEC3"
		},
		{
			"bufferView":2,
			"componentType":5123,
			"count":168,
			"type":"SCALAR"
		},
		{
			"bufferView":3,
			"componentType":5126,
			"count":160,
			"max":[
				0.03547687083482742,
				0.13455969095230103,
				0.02299603447318077
			],
			"min":[
				-0.03410819172859192,
				-0.13188651204109192,
				0.007284187246114016
			],
			"type":"VEC3"
		},
		{
			"bufferView":4,
			"componentType":5126,
			"count":160,
			"type":"VEC3"
		},
		{
			"bufferView":5,
			"componentType":5123,
			"count":468,
			"type":"SCALAR"
		}
	],
	"bufferViews":[
		{
			"buffer":0,
			"byteLength":1152,
			"byteOffset":0,
			"target":34962
		},
		{
			"buffer":0,
			"byteLength":1152,
			"byteOffset":1152,
			"target":34962
		},
		{
			"buffer":0,
			"byteLength":336,
			"byteOffset":2304,
			"target":34963
		},
		{
			"buffer":0,
			"byteLength":1920,
			"byteOffset":2640,
			"target":34962
		},
		{
			"buffer":0,
			"byteLength":1920,
			"byteOffset":4560,
			"target":34962
		},
		{
			"buffer":0,
			"byteLength":936,
			"byteOffset":6480,
			"target":34963
		}
	],
	"buffers":[
		{
			"byteLength":7416,
			"uri":"Details_Basic_2-eca35bf0e919928fd2028423428025fe.bin"
		}
	]
}
