{
	"asset":{
		"generator":"Khronos glTF Blender I/O v5.0.21",
		"version":"2.0"
	},
	"scene":0,
	"scenes":[
		{
			"name":"Scene",
			"nodes":[
				0
			]
		}
	],
	"nodes":[
		{
			"mesh":0,
			"name":"Details_Vent_5"
		}
	],
	"materials":[
		{
			"doubleSided":true,
			"name":"Accent",
			"pbrMetallicRoughness":{
				"baseColorFactor":[
					0.559592604637146,
					0.29767245054244995,
					0.06678982824087143,
					1
				],
				"metallicFactor":0,
				"roughnessFactor":0.5
			}
		},
		{
			"doubleSided":true,
			"name":"DarkAccent",
			"pbrMetallicRoughness":{
				"baseColorFactor":[
					0.226578950881958,
					0.12337818741798401,
					0.030147360637784004,
					1
				],
				"metallicFactor":0,
				"roughnessFactor":0.5
			}
		},
		{
			"doubleSided":true,
			"name":"Black",
			"pbrMetallicRoughness":{
				"baseColorFactor":[
					0.04202548414468765,
					0.04202548414468765,
					0.04202548414468765,
					1
				],
				"metallicFactor":0,
				"roughnessFactor":0.5
			}
		}
	],
	"meshes":[
		{
			"name":"Cube.051",
			"primitives":[
				{
					"attributes":{
						"POSITION":0,
						"NORMAL":1
					},
					"indices":2,
					"material":0
				},
				{
					"attributes":{
						"POSITION":3,
						"NORMAL":4
					},
					"indices":5,
					"material":1
				},
				{
					"attributes":{
						"POSITION":6,
						"NORMAL":7
					},
					"indices":8,
					"material":2
				}
			]
		}
	],
	"accessors":[
		{
			"bufferView":0,
			"componentType":5126,
			"count":112,
			"max":[
				0.34321239590644836,
				0.18766137957572937,
				0.019483409821987152
			],
			"min":[
				-0.34321239590644836,
				-0.18766137957572937,
				-0.04526059329509735
			],
			"type":"VEC3"
		},
		{
			"bufferView":1,
			"componentType":5126,
			"count":112,
			"type":"VEC3"
		},
		{
			"bufferView":2,
			"componentType":5123,
			"count":192,
			"type":"SCALAR"
		},
		{
			"bufferView":3,
			"componentType":5126,
			"count":1040,
			"max":[
				0.3234488070011139,
				0.13617655634880066,
				0.04526059329509735
			],
			"min":[
				-0.321316123008728,
				-0.13118740916252136,
				-0.03833591565489769
			],
			"type":"VEC3"
		},
		{
			"bufferView":4,
			"componentType":5126,
			"count":1040,
			"type":"VEC3"
		},
		{
			"bufferView":5,
			"componentType":5123,
			"count":1680,
			"type":"SCALAR"
		},
		{
			"bufferView":6,
			"componentType":5126,
			"count":8,
			"max":[
				0.3106493651866913,
				0.14572149515151978,
				-0.03638696298003197
			],
			"min":[
				-0.31064939498901367,
				-0.14572149515151978,
				-0.03638696298003197
			],
			"type":"VEC3"
		},
		{
			"bufferView":7,
			"componentType":5126,
			"count":8,
			"type":"VEC3"
		},
		{
			"bufferView":8,
			"componentType":5123,
			"count":18,
			"type":"SCALAR"
		}
	],
	"bufferViews":[
		{
			"buffer":0,
			"byteLength":1344,
			"byteOffset":0,
			"target":34962
		},
		{
			"buffer":0,
			"byteLength":1344,
			"byteOffset":1344,
			"target":34962
		},
		{
			"buffer":0,
			"byteLength":384,
			"byteOffset":2688,
			"target":34963
		},
		{
			"buffer":0,
			"byteLength":12480,
			"byteOffset":3072,
			"target":34962
		},
		{
			"buffer":0,
			"byteLength":12480,
			"byteOffset":15552,
			"target":34962
		},
		{
			"buffer":0,
			"byteLength":3360,
			"byteOffset":28032,
			"target":34963
		},
		{
			"buffer":0,
			"byteLength":96,
			"byteOffset":31392,
			"target":34962
		},
		{
			"buffer":0,
			"byteLength":96,
			"byteOffset":31488,
			"target":34962
		},
		{
			"buffer":0,
			"byteLength":36,
			"byteOffset":31584,
			"target":34963
		}
	],
	"buffers":[
		{
			"byteLength":31620,
			"uri":"Details_Vent_5-d0cd2dec6de61629b6fb68859d96ab6a.bin"
		}
	]
}
