{
	"asset":{
		"generator":"Khronos glTF Blender I/O v5.0.21",
		"version":"2.0"
	},
	"scene":0,
	"scenes":[
		{
			"name":"Scene",
			"nodes":[
				0
			]
		}
	],
	"nodes":[
		{
			"mesh":0,
			"name":"Details_Plate_Details"
		}
	],
	"materials":[
		{
			"doubleSided":true,
			"name":"Main",
			"pbrMetallicRoughness":{
				"baseColorFactor":[
					0.40196332335472107,
					0.40196332335472107,
					0.40196332335472107,
					1
				],
				"metallicFactor":0,
				"roughnessFactor":0.5
			}
		},
		{
			"doubleSided":true,
			"name":"Accent",
			"pbrMetallicRoughness":{
				"baseColorFactor":[
					0.559592604637146,
					0.29767245054244995,
					0.06678982824087143,
					1
				],
				"metallicFactor":0,
				"roughnessFactor":0.5
			}
		},
		{
			"doubleSided":true,
			"name":"DarkGrey",
			"pbrMetallicRoughness":{
				"baseColorFactor":[
					0.23954731225967407,
					0.23954731225967407,
					0.23954731225967407,
					1
				],
				"metallicFactor":0,
				"roughnessFactor":0.5
			}
		}
	],
	"meshes":[
		{
			"name":"Cube.047",
			"primitives":[
				{
					"attributes":{
						"POSITION":0,
						"NORMAL":1
					},
					"indices":2,
					"material":0
				},
				{
					"attributes":{
						"POSITION":3,
						"NORMAL":4
					},
					"indices":5,
					"material":1
				},
				{
					"attributes":{
						"POSITION":6,
						"NORMAL":7
					},
					"indices":8,
					"material":2
				}
			]
		}
	],
	"accessors":[
		{
			"bufferView":0,
			"componentType":5126,
			"count":96,
			"max":[
				0.29313206672668457,
				0.2963161766529083,
				0.00644579017534852
			],
			"min":[
				-0.29295480251312256,
				-0.2974519431591034,
				-0.016315938904881477
			],
			"type":"VEC3"
		},
		{
			"bufferView":1,
			"componentType":5126,
			"count":96,
			"type":"VEC3"
		},
		{
			"bufferView":2,
			"componentType":5123,
			"count":276,
			"type":"SCALAR"
		},
		{
			"bufferView":3,
			"componentType":5126,
			"count":320,
			"max":[
				0.30993446707725525,
				0.3101809024810791,
				0.012372050434350967
			],
			"min":[
				-0.310001015663147,
				-0.3097546398639679,
				-0.008670744486153126
			],
			"type":"VEC3"
		},
		{
			"bufferView":4,
			"componentType":5126,
			"count":320,
			"type":"VEC3"
		},
		{
			"bufferView":5,
			"componentType":5123,
			"count":672,
			"type":"SCALAR"
		},
		{
			"bufferView":6,
			"componentType":5126,
			"count":100,
			"max":[
				0.24526835978031158,
				0.24334105849266052,
				0.015819348394870758
			],
			"min":[
				-0.24526816606521606,
				-0.243340864777565,
				0.002185175893828273
			],
			"type":"VEC3"
		},
		{
			"bufferView":7,
			"componentType":5126,
			"count":100,
			"type":"VEC3"
		},
		{
			"bufferView":8,
			"componentType":5123,
			"count":156,
			"type":"SCALAR"
		}
	],
	"bufferViews":[
		{
			"buffer":0,
			"byteLength":1152,
			"byteOffset":0,
			"target":34962
		},
		{
			"buffer":0,
			"byteLength":1152,
			"byteOffset":1152,
			"target":34962
		},
		{
			"buffer":0,
			"byteLength":552,
			"byteOffset":2304,
			"target":34963
		},
		{
			"buffer":0,
			"byteLength":3840,
			"byteOffset":2856,
			"target":34962
		},
		{
			"buffer":0,
			"byteLength":3840,
			"byteOffset":6696,
			"target":34962
		},
		{
			"buffer":0,
			"byteLength":1344,
			"byteOffset":10536,
			"target":34963
		},
		{
			"buffer":0,
			"byteLength":1200,
			"byteOffset":11880,
			"target":34962
		},
		{
			"buffer":0,
			"byteLength":1200,
			"byteOffset":13080,
			"target":34962
		},
		{
			"buffer":0,
			"byteLength":312,
			"byteOffset":14280,
			"target":34963
		}
	],
	"buffers":[
		{
			"byteLength":14592,
			"uri":"Details_Plate_Details-b804e75893fd43cd55ec776dc76b732a.bin"
		}
	]
}
