{
	"asset":{
		"generator":"Khronos glTF Blender I/O v5.0.21",
		"version":"2.0"
	},
	"scene":0,
	"scenes":[
		{
			"name":"Scene",
			"nodes":[
				0
			]
		}
	],
	"nodes":[
		{
			"mesh":0,
			"name":"FloorTile_InnerCorner"
		}
	],
	"materials":[
		{
			"doubleSided":true,
			"name":"Accent",
			"pbrMetallicRoughness":{
				"baseColorFactor":[
					0.559592604637146,
					0.29767245054244995,
					0.06678982824087143,
					1
				],
				"metallicFactor":0,
				"roughnessFactor":0.5
			}
		},
		{
			"doubleSided":true,
			"name":"DarkAccent",
			"pbrMetallicRoughness":{
				"baseColorFactor":[
					0.226578950881958,
					0.12337818741798401,
					0.030147360637784004,
					1
				],
				"metallicFactor":0,
				"roughnessFactor":0.5
			}
		},
		{
			"doubleSided":true,
			"name":"Black",
			"pbrMetallicRoughness":{
				"baseColorFactor":[
					0.04202548414468765,
					0.04202548414468765,
					0.04202548414468765,
					1
				],
				"metallicFactor":0,
				"roughnessFactor":0.5
			}
		},
		{
			"doubleSided":true,
			"name":"Main",
			"pbrMetallicRoughness":{
				"baseColorFactor":[
					0.40196332335472107,
					0.40196332335472107,
					0.40196332335472107,
					1
				],
				"metallicFactor":0,
				"roughnessFactor":0.5
			}
		},
		{
			"doubleSided":true,
			"name":"DarkGrey",
			"pbrMetallicRoughness":{
				"baseColorFactor":[
					0.23954731225967407,
					0.23954731225967407,
					0.23954731225967407,
					1
				],
				"metallicFactor":0,
				"roughnessFactor":0.5
			}
		}
	],
	"meshes":[
		{
			"name":"Plane.228",
			"primitives":[
				{
					"attributes":{
						"POSITION":0,
						"NORMAL":1
					},
					"indices":2,
					"material":0
				},
				{
					"attributes":{
						"POSITION":3,
						"NORMAL":4
					},
					"indices":5,
					"material":1
				},
				{
					"attributes":{
						"POSITION":6,
						"NORMAL":7
					},
					"indices":8,
					"material":2
				},
				{
					"attributes":{
						"POSITION":9,
						"NORMAL":10
					},
					"indices":11,
					"material":3
				},
				{
					"attributes":{
						"POSITION":12,
						"NORMAL":13
					},
					"indices":14,
					"material":4
				}
			]
		}
	],
	"accessors":[
		{
			"bufferView":0,
			"componentType":5126,
			"count":22,
			"max":[
				-0.8335618376731873,
				0.039729099720716476,
				-0.8335619568824768
			],
			"min":[
				-1.0000003576278687,
				-4.656613983300417e-10,
				-1
			],
			"type":"VEC3"
		},
		{
			"bufferView":1,
			"componentType":5126,
			"count":22,
			"type":"VEC3"
		},
		{
			"bufferView":2,
			"componentType":5123,
			"count":36,
			"type":"SCALAR"
		},
		{
			"bufferView":3,
			"componentType":5126,
			"count":20,
			"max":[
				0.7247403860092163,
				0.04827168956398964,
				0.521851658821106
			],
			"min":[
				0.6853686571121216,
				0.030952010303735733,
				-0.17612913250923157
			],
			"type":"VEC3"
		},
		{
			"bufferView":4,
			"componentType":5126,
			"count":20,
			"type":"VEC3"
		},
		{
			"bufferView":5,
			"componentType":5123,
			"count":30,
			"type":"SCALAR"
		},
		{
			"bufferView":6,
			"componentType":5126,
			"count":9,
			"max":[
				-0.6137896776199341,
				0.00312693789601326,
				-0.6137899160385132
			],
			"min":[
				-0.9999998211860657,
				0.0031269374303519726,
				-1
			],
			"type":"VEC3"
		},
		{
			"bufferView":7,
			"componentType":5126,
			"count":9,
			"type":"VEC3"
		},
		{
			"bufferView":8,
			"componentType":5123,
			"count":21,
			"type":"SCALAR"
		},
		{
			"bufferView":9,
			"componentType":5126,
			"count":177,
			"max":[
				0.9999999403953552,
				0.04134384170174599,
				1
			],
			"min":[
				-1.000000238418579,
				-0.002718996489420533,
				-1
			],
			"type":"VEC3"
		},
		{
			"bufferView":10,
			"componentType":5126,
			"count":177,
			"type":"VEC3"
		},
		{
			"bufferView":11,
			"componentType":5123,
			"count":372,
			"type":"SCALAR"
		},
		{
			"bufferView":12,
			"componentType":5126,
			"count":94,
			"max":[
				1,
				0.015329640358686447,
				1
			],
			"min":[
				-1.000000238418579,
				-3.881575061370768e-10,
				-1
			],
			"type":"VEC3"
		},
		{
			"bufferView":13,
			"componentType":5126,
			"count":94,
			"type":"VEC3"
		},
		{
			"bufferView":14,
			"componentType":5123,
			"count":192,
			"type":"SCALAR"
		}
	],
	"bufferViews":[
		{
			"buffer":0,
			"byteLength":264,
			"byteOffset":0,
			"target":34962
		},
		{
			"buffer":0,
			"byteLength":264,
			"byteOffset":264,
			"target":34962
		},
		{
			"buffer":0,
			"byteLength":72,
			"byteOffset":528,
			"target":34963
		},
		{
			"buffer":0,
			"byteLength":240,
			"byteOffset":600,
			"target":34962
		},
		{
			"buffer":0,
			"byteLength":240,
			"byteOffset":840,
			"target":34962
		},
		{
			"buffer":0,
			"byteLength":60,
			"byteOffset":1080,
			"target":34963
		},
		{
			"buffer":0,
			"byteLength":108,
			"byteOffset":1140,
			"target":34962
		},
		{
			"buffer":0,
			"byteLength":108,
			"byteOffset":1248,
			"target":34962
		},
		{
			"buffer":0,
			"byteLength":42,
			"byteOffset":1356,
			"target":34963
		},
		{
			"buffer":0,
			"byteLength":2124,
			"byteOffset":1400,
			"target":34962
		},
		{
			"buffer":0,
			"byteLength":2124,
			"byteOffset":3524,
			"target":34962
		},
		{
			"buffer":0,
			"byteLength":744,
			"byteOffset":5648,
			"target":34963
		},
		{
			"buffer":0,
			"byteLength":1128,
			"byteOffset":6392,
			"target":34962
		},
		{
			"buffer":0,
			"byteLength":1128,
			"byteOffset":7520,
			"target":34962
		},
		{
			"buffer":0,
			"byteLength":384,
			"byteOffset":8648,
			"target":34963
		}
	],
	"buffers":[
		{
			"byteLength":9032,
			"uri":"FloorTile_InnerCorner-34e1557abf8d9f84482010d52f78010f.bin"
		}
	]
}
