{
	"asset":{
		"generator":"Khronos glTF Blender I/O v5.0.21",
		"version":"2.0"
	},
	"scene":0,
	"scenes":[
		{
			"name":"Scene",
			"nodes":[
				0
			]
		}
	],
	"nodes":[
		{
			"mesh":0,
			"name":"FloorTile_Side"
		}
	],
	"materials":[
		{
			"doubleSided":true,
			"name":"Accent",
			"pbrMetallicRoughness":{
				"baseColorFactor":[
					0.559592604637146,
					0.29767245054244995,
					0.06678982824087143,
					1
				],
				"metallicFactor":0,
				"roughnessFactor":0.5
			}
		},
		{
			"doubleSided":true,
			"name":"DarkAccent",
			"pbrMetallicRoughness":{
				"baseColorFactor":[
					0.226578950881958,
					0.12337818741798401,
					0.030147360637784004,
					1
				],
				"metallicFactor":0,
				"roughnessFactor":0.5
			}
		},
		{
			"doubleSided":true,
			"name":"Black",
			"pbrMetallicRoughness":{
				"baseColorFactor":[
					0.04202548414468765,
					0.04202548414468765,
					0.04202548414468765,
					1
				],
				"metallicFactor":0,
				"roughnessFactor":0.5
			}
		},
		{
			"doubleSided":true,
			"name":"Main",
			"pbrMetallicRoughness":{
				"baseColorFactor":[
					0.40196332335472107,
					0.40196332335472107,
					0.40196332335472107,
					1
				],
				"metallicFactor":0,
				"roughnessFactor":0.5
			}
		},
		{
			"doubleSided":true,
			"name":"DarkGrey",
			"pbrMetallicRoughness":{
				"baseColorFactor":[
					0.23954731225967407,
					0.23954731225967407,
					0.23954731225967407,
					1
				],
				"metallicFactor":0,
				"roughnessFactor":0.5
			}
		}
	],
	"meshes":[
		{
			"name":"Plane.046",
			"primitives":[
				{
					"attributes":{
						"POSITION":0,
						"NORMAL":1
					},
					"indices":2,
					"material":0
				},
				{
					"attributes":{
						"POSITION":3,
						"NORMAL":4
					},
					"indices":5,
					"material":1
				},
				{
					"attributes":{
						"POSITION":6,
						"NORMAL":7
					},
					"indices":8,
					"material":2
				},
				{
					"attributes":{
						"POSITION":9,
						"NORMAL":10
					},
					"indices":11,
					"material":3
				},
				{
					"attributes":{
						"POSITION":12,
						"NORMAL":13
					},
					"indices":14,
					"material":4
				}
			]
		}
	],
	"accessors":[
		{
			"bufferView":0,
			"componentType":5126,
			"count":48,
			"max":[
				-0.8335616588592529,
				0.039729099720716476,
				1
			],
			"min":[
				-1,
				0,
				-1
			],
			"type":"VEC3"
		},
		{
			"bufferView":1,
			"componentType":5126,
			"count":48,
			"type":"VEC3"
		},
		{
			"bufferView":2,
			"componentType":5123,
			"count":114,
			"type":"SCALAR"
		},
		{
			"bufferView":3,
			"componentType":5126,
			"count":116,
			"max":[
				0.7247403860092163,
				0.04827168956398964,
				0.8624410033226013
			],
			"min":[
				-0.8900842666625977,
				-0.02018086239695549,
				-0.8464927077293396
			],
			"type":"VEC3"
		},
		{
			"bufferView":4,
			"componentType":5126,
			"count":116,
			"type":"VEC3"
		},
		{
			"bufferView":5,
			"componentType":5123,
			"count":174,
			"type":"SCALAR"
		},
		{
			"bufferView":6,
			"componentType":5126,
			"count":12,
			"max":[
				-0.6137896776199341,
				0.00312693789601326,
				1
			],
			"min":[
				-0.8335616588592529,
				0.00312693789601326,
				-1
			],
			"type":"VEC3"
		},
		{
			"bufferView":7,
			"componentType":5126,
			"count":12,
			"type":"VEC3"
		},
		{
			"bufferView":8,
			"componentType":5123,
			"count":30,
			"type":"SCALAR"
		},
		{
			"bufferView":9,
			"componentType":5126,
			"count":140,
			"max":[
				1,
				0.04134384170174599,
				1
			],
			"min":[
				-0.5907391309738159,
				-0.0027189962565898895,
				-1
			],
			"type":"VEC3"
		},
		{
			"bufferView":10,
			"componentType":5126,
			"count":140,
			"type":"VEC3"
		},
		{
			"bufferView":11,
			"componentType":5123,
			"count":258,
			"type":"SCALAR"
		},
		{
			"bufferView":12,
			"componentType":5126,
			"count":68,
			"max":[
				1,
				0.015329640358686447,
				1
			],
			"min":[
				-0.8335616588592529,
				0,
				-1
			],
			"type":"VEC3"
		},
		{
			"bufferView":13,
			"componentType":5126,
			"count":68,
			"type":"VEC3"
		},
		{
			"bufferView":14,
			"componentType":5123,
			"count":138,
			"type":"SCALAR"
		}
	],
	"bufferViews":[
		{
			"buffer":0,
			"byteLength":576,
			"byteOffset":0,
			"target":34962
		},
		{
			"buffer":0,
			"byteLength":576,
			"byteOffset":576,
			"target":34962
		},
		{
			"buffer":0,
			"byteLength":228,
			"byteOffset":1152,
			"target":34963
		},
		{
			"buffer":0,
			"byteLength":1392,
			"byteOffset":1380,
			"target":34962
		},
		{
			"buffer":0,
			"byteLength":1392,
			"byteOffset":2772,
			"target":34962
		},
		{
			"buffer":0,
			"byteLength":348,
			"byteOffset":4164,
			"target":34963
		},
		{
			"buffer":0,
			"byteLength":144,
			"byteOffset":4512,
			"target":34962
		},
		{
			"buffer":0,
			"byteLength":144,
			"byteOffset":4656,
			"target":34962
		},
		{
			"buffer":0,
			"byteLength":60,
			"byteOffset":4800,
			"target":34963
		},
		{
			"buffer":0,
			"byteLength":1680,
			"byteOffset":4860,
			"target":34962
		},
		{
			"buffer":0,
			"byteLength":1680,
			"byteOffset":6540,
			"target":34962
		},
		{
			"buffer":0,
			"byteLength":516,
			"byteOffset":8220,
			"target":34963
		},
		{
			"buffer":0,
			"byteLength":816,
			"byteOffset":8736,
			"target":34962
		},
		{
			"buffer":0,
			"byteLength":816,
			"byteOffset":9552,
			"target":34962
		},
		{
			"buffer":0,
			"byteLength":276,
			"byteOffset":10368,
			"target":34963
		}
	],
	"buffers":[
		{
			"byteLength":10644,
			"uri":"FloorTile_Side-2cac7e9b30f50d952c2bd1b5b734ed57.bin"
		}
	]
}
