{
	"asset":{
		"generator":"Khronos glTF Blender I/O v5.0.21",
		"version":"2.0"
	},
	"scene":0,
	"scenes":[
		{
			"name":"Scene",
			"nodes":[
				0
			]
		}
	],
	"nodes":[
		{
			"mesh":0,
			"name":"FloorTile_Corner"
		}
	],
	"materials":[
		{
			"doubleSided":true,
			"name":"Accent",
			"pbrMetallicRoughness":{
				"baseColorFactor":[
					0.559592604637146,
					0.29767245054244995,
					0.06678982824087143,
					1
				],
				"metallicFactor":0,
				"roughnessFactor":0.5
			}
		},
		{
			"doubleSided":true,
			"name":"DarkAccent",
			"pbrMetallicRoughness":{
				"baseColorFactor":[
					0.226578950881958,
					0.12337818741798401,
					0.030147360637784004,
					1
				],
				"metallicFactor":0,
				"roughnessFactor":0.5
			}
		},
		{
			"doubleSided":true,
			"name":"Black",
			"pbrMetallicRoughness":{
				"baseColorFactor":[
					0.04202548414468765,
					0.04202548414468765,
					0.04202548414468765,
					1
				],
				"metallicFactor":0,
				"roughnessFactor":0.5
			}
		},
		{
			"doubleSided":true,
			"name":"Main",
			"pbrMetallicRoughness":{
				"baseColorFactor":[
					0.40196332335472107,
					0.40196332335472107,
					0.40196332335472107,
					1
				],
				"metallicFactor":0,
				"roughnessFactor":0.5
			}
		},
		{
			"doubleSided":true,
			"name":"DarkGrey",
			"pbrMetallicRoughness":{
				"baseColorFactor":[
					0.23954731225967407,
					0.23954731225967407,
					0.23954731225967407,
					1
				],
				"metallicFactor":0,
				"roughnessFactor":0.5
			}
		}
	],
	"meshes":[
		{
			"name":"Plane.250",
			"primitives":[
				{
					"attributes":{
						"POSITION":0,
						"NORMAL":1
					},
					"indices":2,
					"material":0
				},
				{
					"attributes":{
						"POSITION":3,
						"NORMAL":4
					},
					"indices":5,
					"material":1
				},
				{
					"attributes":{
						"POSITION":6,
						"NORMAL":7
					},
					"indices":8,
					"material":2
				},
				{
					"attributes":{
						"POSITION":9,
						"NORMAL":10
					},
					"indices":11,
					"material":3
				},
				{
					"attributes":{
						"POSITION":12,
						"NORMAL":13
					},
					"indices":14,
					"material":4
				}
			]
		}
	],
	"accessors":[
		{
			"bufferView":0,
			"componentType":5126,
			"count":112,
			"max":[
				1,
				0.039729099720716476,
				1
			],
			"min":[
				-1.000000238418579,
				-4.656613983300417e-10,
				-1.000000238418579
			],
			"type":"VEC3"
		},
		{
			"bufferView":1,
			"componentType":5126,
			"count":112,
			"type":"VEC3"
		},
		{
			"bufferView":2,
			"componentType":5123,
			"count":276,
			"type":"SCALAR"
		},
		{
			"bufferView":3,
			"componentType":5126,
			"count":160,
			"max":[
				0.8464927673339844,
				0.029167059808969498,
				0.8624410033226013
			],
			"min":[
				-0.8900845050811768,
				-0.02018086239695549,
				-0.8900842666625977
			],
			"type":"VEC3"
		},
		{
			"bufferView":4,
			"componentType":5126,
			"count":160,
			"type":"VEC3"
		},
		{
			"bufferView":5,
			"componentType":5123,
			"count":240,
			"type":"SCALAR"
		},
		{
			"bufferView":6,
			"componentType":5126,
			"count":26,
			"max":[
				1,
				0.00312693789601326,
				1
			],
			"min":[
				-0.8346525430679321,
				0.0031269374303519726,
				-0.8335619568824768
			],
			"type":"VEC3"
		},
		{
			"bufferView":7,
			"componentType":5126,
			"count":26,
			"type":"VEC3"
		},
		{
			"bufferView":8,
			"componentType":5123,
			"count":72,
			"type":"SCALAR"
		},
		{
			"bufferView":9,
			"componentType":5126,
			"count":160,
			"max":[
				1,
				0.04134384170174599,
				1
			],
			"min":[
				-0.590739369392395,
				-0.0029187314212322235,
				-0.5907394289970398
			],
			"type":"VEC3"
		},
		{
			"bufferView":10,
			"componentType":5126,
			"count":160,
			"type":"VEC3"
		},
		{
			"bufferView":11,
			"componentType":5123,
			"count":294,
			"type":"SCALAR"
		},
		{
			"bufferView":12,
			"componentType":5126,
			"count":102,
			"max":[
				1,
				0.04134384170174599,
				1
			],
			"min":[
				-0.833561897277832,
				-3.881575061370768e-10,
				-0.8335618376731873
			],
			"type":"VEC3"
		},
		{
			"bufferView":13,
			"componentType":5126,
			"count":102,
			"type":"VEC3"
		},
		{
			"bufferView":14,
			"componentType":5123,
			"count":198,
			"type":"SCALAR"
		}
	],
	"bufferViews":[
		{
			"buffer":0,
			"byteLength":1344,
			"byteOffset":0,
			"target":34962
		},
		{
			"buffer":0,
			"byteLength":1344,
			"byteOffset":1344,
			"target":34962
		},
		{
			"buffer":0,
			"byteLength":552,
			"byteOffset":2688,
			"target":34963
		},
		{
			"buffer":0,
			"byteLength":1920,
			"byteOffset":3240,
			"target":34962
		},
		{
			"buffer":0,
			"byteLength":1920,
			"byteOffset":5160,
			"target":34962
		},
		{
			"buffer":0,
			"byteLength":480,
			"byteOffset":7080,
			"target":34963
		},
		{
			"buffer":0,
			"byteLength":312,
			"byteOffset":7560,
			"target":34962
		},
		{
			"buffer":0,
			"byteLength":312,
			"byteOffset":7872,
			"target":34962
		},
		{
			"buffer":0,
			"byteLength":144,
			"byteOffset":8184,
			"target":34963
		},
		{
			"buffer":0,
			"byteLength":1920,
			"byteOffset":8328,
			"target":34962
		},
		{
			"buffer":0,
			"byteLength":1920,
			"byteOffset":10248,
			"target":34962
		},
		{
			"buffer":0,
			"byteLength":588,
			"byteOffset":12168,
			"target":34963
		},
		{
			"buffer":0,
			"byteLength":1224,
			"byteOffset":12756,
			"target":34962
		},
		{
			"buffer":0,
			"byteLength":1224,
			"byteOffset":13980,
			"target":34962
		},
		{
			"buffer":0,
			"byteLength":396,
			"byteOffset":15204,
			"target":34963
		}
	],
	"buffers":[
		{
			"byteLength":15600,
			"uri":"FloorTile_Corner-f9eb623ab956e45d4c1ef0a1fb5200e1.bin"
		}
	]
}
