{
	"asset":{
		"generator":"Khronos glTF Blender I/O v5.0.21",
		"version":"2.0"
	},
	"scene":0,
	"scenes":[
		{
			"name":"Scene",
			"nodes":[
				0
			]
		}
	],
	"nodes":[
		{
			"mesh":0,
			"name":"Flower_1_Clump"
		}
	],
	"materials":[
		{
			"doubleSided":true,
			"name":"Flowers"
		}
	],
	"meshes":[
		{
			"name":"Plane.049",
			"primitives":[
				{
					"attributes":{
						"POSITION":0,
						"NORMAL":1,
						"TEXCOORD_0":2,
						"TANGENT":3
					},
					"indices":4,
					"material":0
				}
			]
		}
	],
	"accessors":[
		{
			"bufferView":0,
			"componentType":5126,
			"count":678,
			"max":[
				0.23249699175357819,
				0.666481614112854,
				0.2129351645708084
			],
			"min":[
				-0.23863986134529114,
				-0.004863256588578224,
				-0.22226478159427643
			],
			"type":"VEC3"
		},
		{
			"bufferView":1,
			"componentType":5126,
			"count":678,
			"type":"VEC3"
		},
		{
			"bufferView":2,
			"componentType":5126,
			"count":678,
			"type":"VEC2"
		},
		{
			"bufferView":3,
			"componentType":5126,
			"count":678,
			"type":"VEC4"
		},
		{
			"bufferView":4,
			"componentType":5123,
			"count":1860,
			"type":"SCALAR"
		}
	],
	"bufferViews":[
		{
			"buffer":0,
			"byteLength":8136,
			"byteOffset":0,
			"target":34962
		},
		{
			"buffer":0,
			"byteLength":8136,
			"byteOffset":8136,
			"target":34962
		},
		{
			"buffer":0,
			"byteLength":5424,
			"byteOffset":16272,
			"target":34962
		},
		{
			"buffer":0,
			"byteLength":10848,
			"byteOffset":21696,
			"target":34962
		},
		{
			"buffer":0,
			"byteLength":3720,
			"byteOffset":32544,
			"target":34963
		}
	],
	"buffers":[
		{
			"byteLength":36264,
			"uri":"Flower_1_Clump-484913bed51399c5eab2ce1da19f29eb.bin"
		}
	]
}
