{
	"asset":{
		"generator":"Khronos glTF Blender I/O v5.0.21",
		"version":"2.0"
	},
	"scene":0,
	"scenes":[
		{
			"name":"Scene",
			"nodes":[
				0
			]
		}
	],
	"nodes":[
		{
			"mesh":0,
			"name":"Flower_5_Clump"
		}
	],
	"materials":[
		{
			"doubleSided":true,
			"name":"Flowers"
		}
	],
	"meshes":[
		{
			"name":"Plane.070",
			"primitives":[
				{
					"attributes":{
						"POSITION":0,
						"NORMAL":1,
						"TEXCOORD_0":2,
						"TANGENT":3
					},
					"indices":4,
					"material":0
				}
			]
		}
	],
	"accessors":[
		{
			"bufferView":0,
			"componentType":5126,
			"count":124,
			"max":[
				0.2367599606513977,
				0.451679527759552,
				0.183665469288826
			],
			"min":[
				-0.1892460733652115,
				0.0008912034099921584,
				-0.189786896109581
			],
			"type":"VEC3"
		},
		{
			"bufferView":1,
			"componentType":5126,
			"count":124,
			"type":"VEC3"
		},
		{
			"bufferView":2,
			"componentType":5126,
			"count":124,
			"type":"VEC2"
		},
		{
			"bufferView":3,
			"componentType":5126,
			"count":124,
			"type":"VEC4"
		},
		{
			"bufferView":4,
			"componentType":5123,
			"count":408,
			"type":"SCALAR"
		}
	],
	"bufferViews":[
		{
			"buffer":0,
			"byteLength":1488,
			"byteOffset":0,
			"target":34962
		},
		{
			"buffer":0,
			"byteLength":1488,
			"byteOffset":1488,
			"target":34962
		},
		{
			"buffer":0,
			"byteLength":992,
			"byteOffset":2976,
			"target":34962
		},
		{
			"buffer":0,
			"byteLength":1984,
			"byteOffset":3968,
			"target":34962
		},
		{
			"buffer":0,
			"byteLength":816,
			"byteOffset":5952,
			"target":34963
		}
	],
	"buffers":[
		{
			"byteLength":6768,
			"uri":"Flower_5_Clump-676032e60d9475d156e0b9e05f9b8a81.bin"
		}
	]
}
