{
	"asset":{
		"generator":"Khronos glTF Blender I/O v5.0.21",
		"version":"2.0"
	},
	"scene":0,
	"scenes":[
		{
			"name":"Scene",
			"nodes":[
				0
			]
		}
	],
	"nodes":[
		{
			"mesh":0,
			"name":"Flower_2",
			"scale":[
				0.75,
				0.75,
				0.75
			]
		}
	],
	"materials":[
		{
			"doubleSided":true,
			"name":"Flowers"
		}
	],
	"meshes":[
		{
			"name":"Plane.045",
			"primitives":[
				{
					"attributes":{
						"POSITION":0,
						"NORMAL":1,
						"TEXCOORD_0":2,
						"TANGENT":3
					},
					"indices":4,
					"material":0
				}
			]
		}
	],
	"accessors":[
		{
			"bufferView":0,
			"componentType":5126,
			"count":31,
			"max":[
				0.26469749212265015,
				0.47155654430389404,
				0.21766656637191772
			],
			"min":[
				-0.054014623165130615,
				-0.010238820686936378,
				-0.11212734133005142
			],
			"type":"VEC3"
		},
		{
			"bufferView":1,
			"componentType":5126,
			"count":31,
			"type":"VEC3"
		},
		{
			"bufferView":2,
			"componentType":5126,
			"count":31,
			"type":"VEC2"
		},
		{
			"bufferView":3,
			"componentType":5126,
			"count":31,
			"type":"VEC4"
		},
		{
			"bufferView":4,
			"componentType":5123,
			"count":102,
			"type":"SCALAR"
		}
	],
	"bufferViews":[
		{
			"buffer":0,
			"byteLength":372,
			"byteOffset":0,
			"target":34962
		},
		{
			"buffer":0,
			"byteLength":372,
			"byteOffset":372,
			"target":34962
		},
		{
			"buffer":0,
			"byteLength":248,
			"byteOffset":744,
			"target":34962
		},
		{
			"buffer":0,
			"byteLength":496,
			"byteOffset":992,
			"target":34962
		},
		{
			"buffer":0,
			"byteLength":204,
			"byteOffset":1488,
			"target":34963
		}
	],
	"buffers":[
		{
			"byteLength":1692,
			"uri":"Flower_2-0051729ed482cec70226248235a3ffa9.bin"
		}
	]
}
