{
	"asset":{
		"generator":"Khronos glTF Blender I/O v5.0.21",
		"version":"2.0"
	},
	"scene":0,
	"scenes":[
		{
			"name":"Scene",
			"nodes":[
				0
			]
		}
	],
	"nodes":[
		{
			"mesh":0,
			"name":"Grass_Large_Extruded"
		}
	],
	"materials":[
		{
			"doubleSided":true,
			"name":"Grass"
		}
	],
	"meshes":[
		{
			"name":"Plane.002",
			"primitives":[
				{
					"attributes":{
						"POSITION":0,
						"NORMAL":1,
						"TEXCOORD_0":2,
						"TANGENT":3
					},
					"indices":4,
					"material":0
				}
			]
		}
	],
	"accessors":[
		{
			"bufferView":0,
			"componentType":5126,
			"count":732,
			"max":[
				0.3902982473373413,
				0.5056881308555603,
				0.16745170950889587
			],
			"min":[
				-0.3543989956378937,
				-0.00317873852327466,
				-0.32985275983810425
			],
			"type":"VEC3"
		},
		{
			"bufferView":1,
			"componentType":5126,
			"count":732,
			"type":"VEC3"
		},
		{
			"bufferView":2,
			"componentType":5126,
			"count":732,
			"type":"VEC2"
		},
		{
			"bufferView":3,
			"componentType":5126,
			"count":732,
			"type":"VEC4"
		},
		{
			"bufferView":4,
			"componentType":5123,
			"count":1548,
			"type":"SCALAR"
		}
	],
	"bufferViews":[
		{
			"buffer":0,
			"byteLength":8784,
			"byteOffset":0,
			"target":34962
		},
		{
			"buffer":0,
			"byteLength":8784,
			"byteOffset":8784,
			"target":34962
		},
		{
			"buffer":0,
			"byteLength":5856,
			"byteOffset":17568,
			"target":34962
		},
		{
			"buffer":0,
			"byteLength":11712,
			"byteOffset":23424,
			"target":34962
		},
		{
			"buffer":0,
			"byteLength":3096,
			"byteOffset":35136,
			"target":34963
		}
	],
	"buffers":[
		{
			"byteLength":38232,
			"uri":"Grass_Large_Extruded-b410b9143f8ff7f6d476bfe7aa9823e2.bin"
		}
	]
}
