{
	"asset":{
		"generator":"Khronos glTF Blender I/O v5.0.21",
		"version":"2.0"
	},
	"scene":0,
	"scenes":[
		{
			"name":"Scene",
			"nodes":[
				0
			]
		}
	],
	"nodes":[
		{
			"mesh":0,
			"name":"MapleTree_2"
		}
	],
	"materials":[
		{
			"doubleSided":true,
			"name":"MapleTree_Bark"
		},
		{
			"doubleSided":true,
			"name":"MapleTree_Leaves"
		}
	],
	"meshes":[
		{
			"name":"Cube.009",
			"primitives":[
				{
					"attributes":{
						"POSITION":0,
						"NORMAL":1,
						"TEXCOORD_0":2,
						"TANGENT":3
					},
					"indices":4,
					"material":0
				},
				{
					"attributes":{
						"POSITION":5,
						"NORMAL":6,
						"TEXCOORD_0":7,
						"TANGENT":8
					},
					"indices":9,
					"material":1
				}
			]
		}
	],
	"accessors":[
		{
			"bufferView":0,
			"componentType":5126,
			"count":2122,
			"max":[
				1.9898109436035156,
				6.314578056335449,
				2.1632957458496094
			],
			"min":[
				-4.147556304931641,
				0.0006933771073818207,
				-2.870760679244995
			],
			"type":"VEC3"
		},
		{
			"bufferView":1,
			"componentType":5126,
			"count":2122,
			"type":"VEC3"
		},
		{
			"bufferView":2,
			"componentType":5126,
			"count":2122,
			"type":"VEC2"
		},
		{
			"bufferView":3,
			"componentType":5126,
			"count":2122,
			"type":"VEC4"
		},
		{
			"bufferView":4,
			"componentType":5123,
			"count":10512,
			"type":"SCALAR"
		},
		{
			"bufferView":5,
			"componentType":5126,
			"count":2592,
			"max":[
				2.3588104248046875,
				6.7145233154296875,
				2.748694658279419
			],
			"min":[
				-4.34197473526001,
				2.8553481101989746,
				-3.4952290058135986
			],
			"type":"VEC3"
		},
		{
			"bufferView":6,
			"componentType":5126,
			"count":2592,
			"type":"VEC3"
		},
		{
			"bufferView":7,
			"componentType":5126,
			"count":2592,
			"type":"VEC2"
		},
		{
			"bufferView":8,
			"componentType":5126,
			"count":2592,
			"type":"VEC4"
		},
		{
			"bufferView":9,
			"componentType":5123,
			"count":3888,
			"type":"SCALAR"
		}
	],
	"bufferViews":[
		{
			"buffer":0,
			"byteLength":25464,
			"byteOffset":0,
			"target":34962
		},
		{
			"buffer":0,
			"byteLength":25464,
			"byteOffset":25464,
			"target":34962
		},
		{
			"buffer":0,
			"byteLength":16976,
			"byteOffset":50928,
			"target":34962
		},
		{
			"buffer":0,
			"byteLength":33952,
			"byteOffset":67904,
			"target":34962
		},
		{
			"buffer":0,
			"byteLength":21024,
			"byteOffset":101856,
			"target":34963
		},
		{
			"buffer":0,
			"byteLength":31104,
			"byteOffset":122880,
			"target":34962
		},
		{
			"buffer":0,
			"byteLength":31104,
			"byteOffset":153984,
			"target":34962
		},
		{
			"buffer":0,
			"byteLength":20736,
			"byteOffset":185088,
			"target":34962
		},
		{
			"buffer":0,
			"byteLength":41472,
			"byteOffset":205824,
			"target":34962
		},
		{
			"buffer":0,
			"byteLength":7776,
			"byteOffset":247296,
			"target":34963
		}
	],
	"buffers":[
		{
			"byteLength":255072,
			"uri":"MapleTree_2-1d7a41e5307d07e4fc75007376c5cf73.bin"
		}
	]
}
