{
	"asset":{
		"generator":"Khronos glTF Blender I/O v5.0.21",
		"version":"2.0"
	},
	"scene":0,
	"scenes":[
		{
			"name":"Scene",
			"nodes":[
				0
			]
		}
	],
	"nodes":[
		{
			"mesh":0,
			"name":"MapleTree_1"
		}
	],
	"materials":[
		{
			"doubleSided":true,
			"name":"MapleTree_Bark"
		},
		{
			"doubleSided":true,
			"name":"MapleTree_Leaves"
		}
	],
	"meshes":[
		{
			"name":"Cube.005",
			"primitives":[
				{
					"attributes":{
						"POSITION":0,
						"NORMAL":1,
						"TEXCOORD_0":2,
						"TANGENT":3
					},
					"indices":4,
					"material":0
				},
				{
					"attributes":{
						"POSITION":5,
						"NORMAL":6,
						"TEXCOORD_0":7,
						"TANGENT":8
					},
					"indices":9,
					"material":1
				}
			]
		}
	],
	"accessors":[
		{
			"bufferView":0,
			"componentType":5126,
			"count":1815,
			"max":[
				3.7677536010742188,
				6.415181636810303,
				1.930820345878601
			],
			"min":[
				-1.6392756700515747,
				0.0006941246683709323,
				-1.368160605430603
			],
			"type":"VEC3"
		},
		{
			"bufferView":1,
			"componentType":5126,
			"count":1815,
			"type":"VEC3"
		},
		{
			"bufferView":2,
			"componentType":5126,
			"count":1815,
			"type":"VEC2"
		},
		{
			"bufferView":3,
			"componentType":5126,
			"count":1815,
			"type":"VEC4"
		},
		{
			"bufferView":4,
			"componentType":5123,
			"count":8952,
			"type":"SCALAR"
		},
		{
			"bufferView":5,
			"componentType":5126,
			"count":1728,
			"max":[
				4.153177738189697,
				6.644845962524414,
				2.4542856216430664
			],
			"min":[
				-2.075911045074463,
				2.7419381141662598,
				-2.4494659900665283
			],
			"type":"VEC3"
		},
		{
			"bufferView":6,
			"componentType":5126,
			"count":1728,
			"type":"VEC3"
		},
		{
			"bufferView":7,
			"componentType":5126,
			"count":1728,
			"type":"VEC2"
		},
		{
			"bufferView":8,
			"componentType":5126,
			"count":1728,
			"type":"VEC4"
		},
		{
			"bufferView":9,
			"componentType":5123,
			"count":2592,
			"type":"SCALAR"
		}
	],
	"bufferViews":[
		{
			"buffer":0,
			"byteLength":21780,
			"byteOffset":0,
			"target":34962
		},
		{
			"buffer":0,
			"byteLength":21780,
			"byteOffset":21780,
			"target":34962
		},
		{
			"buffer":0,
			"byteLength":14520,
			"byteOffset":43560,
			"target":34962
		},
		{
			"buffer":0,
			"byteLength":29040,
			"byteOffset":58080,
			"target":34962
		},
		{
			"buffer":0,
			"byteLength":17904,
			"byteOffset":87120,
			"target":34963
		},
		{
			"buffer":0,
			"byteLength":20736,
			"byteOffset":105024,
			"target":34962
		},
		{
			"buffer":0,
			"byteLength":20736,
			"byteOffset":125760,
			"target":34962
		},
		{
			"buffer":0,
			"byteLength":13824,
			"byteOffset":146496,
			"target":34962
		},
		{
			"buffer":0,
			"byteLength":27648,
			"byteOffset":160320,
			"target":34962
		},
		{
			"buffer":0,
			"byteLength":5184,
			"byteOffset":187968,
			"target":34963
		}
	],
	"buffers":[
		{
			"byteLength":193152,
			"uri":"MapleTree_1-23d2f5d4da29a30058997958df1c3551.bin"
		}
	]
}
