{
	"asset":{
		"generator":"Khronos glTF Blender I/O v5.0.21",
		"version":"2.0"
	},
	"scene":0,
	"scenes":[
		{
			"name":"Scene",
			"nodes":[
				0
			]
		}
	],
	"nodes":[
		{
			"mesh":0,
			"name":"MapleTree_5"
		}
	],
	"materials":[
		{
			"doubleSided":true,
			"name":"MapleTree_Bark"
		},
		{
			"doubleSided":true,
			"name":"MapleTree_Leaves"
		}
	],
	"meshes":[
		{
			"name":"Cube.010",
			"primitives":[
				{
					"attributes":{
						"POSITION":0,
						"NORMAL":1,
						"TEXCOORD_0":2,
						"TANGENT":3
					},
					"indices":4,
					"material":0
				},
				{
					"attributes":{
						"POSITION":5,
						"NORMAL":6,
						"TEXCOORD_0":7,
						"TANGENT":8
					},
					"indices":9,
					"material":1
				}
			]
		}
	],
	"accessors":[
		{
			"bufferView":0,
			"componentType":5126,
			"count":1952,
			"max":[
				2.441612482070923,
				7.126369953155518,
				1.9308204650878906
			],
			"min":[
				-3.0191519260406494,
				0.0006941246683709323,
				-1.3140323162078857
			],
			"type":"VEC3"
		},
		{
			"bufferView":1,
			"componentType":5126,
			"count":1952,
			"type":"VEC3"
		},
		{
			"bufferView":2,
			"componentType":5126,
			"count":1952,
			"type":"VEC2"
		},
		{
			"bufferView":3,
			"componentType":5126,
			"count":1952,
			"type":"VEC4"
		},
		{
			"bufferView":4,
			"componentType":5123,
			"count":9624,
			"type":"SCALAR"
		},
		{
			"bufferView":5,
			"componentType":5126,
			"count":2592,
			"max":[
				3.4032061100006104,
				7.280647277832031,
				2.6457133293151855
			],
			"min":[
				-3.6091811656951904,
				2.538853883743286,
				-2.430192708969116
			],
			"type":"VEC3"
		},
		{
			"bufferView":6,
			"componentType":5126,
			"count":2592,
			"type":"VEC3"
		},
		{
			"bufferView":7,
			"componentType":5126,
			"count":2592,
			"type":"VEC2"
		},
		{
			"bufferView":8,
			"componentType":5126,
			"count":2592,
			"type":"VEC4"
		},
		{
			"bufferView":9,
			"componentType":5123,
			"count":3888,
			"type":"SCALAR"
		}
	],
	"bufferViews":[
		{
			"buffer":0,
			"byteLength":23424,
			"byteOffset":0,
			"target":34962
		},
		{
			"buffer":0,
			"byteLength":23424,
			"byteOffset":23424,
			"target":34962
		},
		{
			"buffer":0,
			"byteLength":15616,
			"byteOffset":46848,
			"target":34962
		},
		{
			"buffer":0,
			"byteLength":31232,
			"byteOffset":62464,
			"target":34962
		},
		{
			"buffer":0,
			"byteLength":19248,
			"byteOffset":93696,
			"target":34963
		},
		{
			"buffer":0,
			"byteLength":31104,
			"byteOffset":112944,
			"target":34962
		},
		{
			"buffer":0,
			"byteLength":31104,
			"byteOffset":144048,
			"target":34962
		},
		{
			"buffer":0,
			"byteLength":20736,
			"byteOffset":175152,
			"target":34962
		},
		{
			"buffer":0,
			"byteLength":41472,
			"byteOffset":195888,
			"target":34962
		},
		{
			"buffer":0,
			"byteLength":7776,
			"byteOffset":237360,
			"target":34963
		}
	],
	"buffers":[
		{
			"byteLength":245136,
			"uri":"MapleTree_5-6d513dfe98e6c3a034fbb17825d7d47b.bin"
		}
	]
}
