{
	"asset":{
		"generator":"Khronos glTF Blender I/O v5.0.21",
		"version":"2.0"
	},
	"scene":0,
	"scenes":[
		{
			"name":"Scene",
			"nodes":[
				0
			]
		}
	],
	"nodes":[
		{
			"mesh":0,
			"name":"MapleTree_4"
		}
	],
	"materials":[
		{
			"doubleSided":true,
			"name":"MapleTree_Bark"
		},
		{
			"doubleSided":true,
			"name":"MapleTree_Leaves"
		}
	],
	"meshes":[
		{
			"name":"Cube.007",
			"primitives":[
				{
					"attributes":{
						"POSITION":0,
						"NORMAL":1,
						"TEXCOORD_0":2,
						"TANGENT":3
					},
					"indices":4,
					"material":0
				},
				{
					"attributes":{
						"POSITION":5,
						"NORMAL":6,
						"TEXCOORD_0":7,
						"TANGENT":8
					},
					"indices":9,
					"material":1
				}
			]
		}
	],
	"accessors":[
		{
			"bufferView":0,
			"componentType":5126,
			"count":511,
			"max":[
				1.3140547275543213,
				3.2964813709259033,
				0.5760939121246338
			],
			"min":[
				-0.7445709705352783,
				-0.005346968770027161,
				-0.14142140746116638
			],
			"type":"VEC3"
		},
		{
			"bufferView":1,
			"componentType":5126,
			"count":511,
			"type":"VEC3"
		},
		{
			"bufferView":2,
			"componentType":5126,
			"count":511,
			"type":"VEC2"
		},
		{
			"bufferView":3,
			"componentType":5126,
			"count":511,
			"type":"VEC4"
		},
		{
			"bufferView":4,
			"componentType":5123,
			"count":2472,
			"type":"SCALAR"
		},
		{
			"bufferView":5,
			"componentType":5126,
			"count":864,
			"max":[
				1.641565203666687,
				3.589116334915161,
				1.1220567226409912
			],
			"min":[
				-1.1284496784210205,
				1.4137372970581055,
				-1.3128786087036133
			],
			"type":"VEC3"
		},
		{
			"bufferView":6,
			"componentType":5126,
			"count":864,
			"type":"VEC3"
		},
		{
			"bufferView":7,
			"componentType":5126,
			"count":864,
			"type":"VEC2"
		},
		{
			"bufferView":8,
			"componentType":5126,
			"count":864,
			"type":"VEC4"
		},
		{
			"bufferView":9,
			"componentType":5123,
			"count":1296,
			"type":"SCALAR"
		}
	],
	"bufferViews":[
		{
			"buffer":0,
			"byteLength":6132,
			"byteOffset":0,
			"target":34962
		},
		{
			"buffer":0,
			"byteLength":6132,
			"byteOffset":6132,
			"target":34962
		},
		{
			"buffer":0,
			"byteLength":4088,
			"byteOffset":12264,
			"target":34962
		},
		{
			"buffer":0,
			"byteLength":8176,
			"byteOffset":16352,
			"target":34962
		},
		{
			"buffer":0,
			"byteLength":4944,
			"byteOffset":24528,
			"target":34963
		},
		{
			"buffer":0,
			"byteLength":10368,
			"byteOffset":29472,
			"target":34962
		},
		{
			"buffer":0,
			"byteLength":10368,
			"byteOffset":39840,
			"target":34962
		},
		{
			"buffer":0,
			"byteLength":6912,
			"byteOffset":50208,
			"target":34962
		},
		{
			"buffer":0,
			"byteLength":13824,
			"byteOffset":57120,
			"target":34962
		},
		{
			"buffer":0,
			"byteLength":2592,
			"byteOffset":70944,
			"target":34963
		}
	],
	"buffers":[
		{
			"byteLength":73536,
			"uri":"MapleTree_4-8b096c47d445b133b3484ff61e882ac1.bin"
		}
	]
}
