{
	"asset":{
		"generator":"Khronos glTF Blender I/O v5.0.21",
		"version":"2.0"
	},
	"scene":0,
	"scenes":[
		{
			"name":"Scene",
			"nodes":[
				0
			]
		}
	],
	"nodes":[
		{
			"mesh":0,
			"name":"NormalTree_4"
		}
	],
	"materials":[
		{
			"doubleSided":true,
			"name":"NormalTree_Bark"
		},
		{
			"doubleSided":true,
			"name":"NormalTree_Leaves"
		}
	],
	"meshes":[
		{
			"name":"Cube.001",
			"primitives":[
				{
					"attributes":{
						"POSITION":0,
						"NORMAL":1,
						"TEXCOORD_0":2,
						"TANGENT":3
					},
					"indices":4,
					"material":0
				},
				{
					"attributes":{
						"POSITION":5,
						"NORMAL":6,
						"TEXCOORD_0":7,
						"TANGENT":8
					},
					"indices":9,
					"material":1
				}
			]
		}
	],
	"accessors":[
		{
			"bufferView":0,
			"componentType":5126,
			"count":2144,
			"max":[
				1.881386399269104,
				4.601271629333496,
				0.7330859303474426
			],
			"min":[
				-2.9681520462036133,
				-0.009213286451995373,
				-0.9362156987190247
			],
			"type":"VEC3"
		},
		{
			"bufferView":1,
			"componentType":5126,
			"count":2144,
			"type":"VEC3"
		},
		{
			"bufferView":2,
			"componentType":5126,
			"count":2144,
			"type":"VEC2"
		},
		{
			"bufferView":3,
			"componentType":5126,
			"count":2144,
			"type":"VEC4"
		},
		{
			"bufferView":4,
			"componentType":5123,
			"count":10584,
			"type":"SCALAR"
		},
		{
			"bufferView":5,
			"componentType":5126,
			"count":5620,
			"max":[
				2.598984956741333,
				5.08693790435791,
				1.1026643514633179
			],
			"min":[
				-3.0739381313323975,
				2.065880060195923,
				-1.298408031463623
			],
			"type":"VEC3"
		},
		{
			"bufferView":6,
			"componentType":5126,
			"count":5620,
			"type":"VEC3"
		},
		{
			"bufferView":7,
			"componentType":5126,
			"count":5620,
			"type":"VEC2"
		},
		{
			"bufferView":8,
			"componentType":5126,
			"count":5620,
			"type":"VEC4"
		},
		{
			"bufferView":9,
			"componentType":5123,
			"count":8430,
			"type":"SCALAR"
		}
	],
	"bufferViews":[
		{
			"buffer":0,
			"byteLength":25728,
			"byteOffset":0,
			"target":34962
		},
		{
			"buffer":0,
			"byteLength":25728,
			"byteOffset":25728,
			"target":34962
		},
		{
			"buffer":0,
			"byteLength":17152,
			"byteOffset":51456,
			"target":34962
		},
		{
			"buffer":0,
			"byteLength":34304,
			"byteOffset":68608,
			"target":34962
		},
		{
			"buffer":0,
			"byteLength":21168,
			"byteOffset":102912,
			"target":34963
		},
		{
			"buffer":0,
			"byteLength":67440,
			"byteOffset":124080,
			"target":34962
		},
		{
			"buffer":0,
			"byteLength":67440,
			"byteOffset":191520,
			"target":34962
		},
		{
			"buffer":0,
			"byteLength":44960,
			"byteOffset":258960,
			"target":34962
		},
		{
			"buffer":0,
			"byteLength":89920,
			"byteOffset":303920,
			"target":34962
		},
		{
			"buffer":0,
			"byteLength":16860,
			"byteOffset":393840,
			"target":34963
		}
	],
	"buffers":[
		{
			"byteLength":410700,
			"uri":"NormalTree_4-e49df062338e4a753ce99061b2175881.bin"
		}
	]
}
