{
	"asset":{
		"generator":"Khronos glTF Blender I/O v5.0.21",
		"version":"2.0"
	},
	"scene":0,
	"scenes":[
		{
			"name":"Scene",
			"nodes":[
				0
			]
		}
	],
	"nodes":[
		{
			"mesh":0,
			"name":"NormalTree_5"
		}
	],
	"materials":[
		{
			"doubleSided":true,
			"name":"NormalTree_Bark"
		},
		{
			"doubleSided":true,
			"name":"NormalTree_Leaves"
		}
	],
	"meshes":[
		{
			"name":"Cylinder.005",
			"primitives":[
				{
					"attributes":{
						"POSITION":0,
						"NORMAL":1,
						"TEXCOORD_0":2,
						"TANGENT":3
					},
					"indices":4,
					"material":0
				},
				{
					"attributes":{
						"POSITION":5,
						"NORMAL":6,
						"TEXCOORD_0":7,
						"TANGENT":8
					},
					"indices":9,
					"material":1
				}
			]
		}
	],
	"accessors":[
		{
			"bufferView":0,
			"componentType":5126,
			"count":825,
			"max":[
				0.7758885622024536,
				2.603219747543335,
				0.724044680595398
			],
			"min":[
				-0.6647953391075134,
				-0.0004049055278301239,
				-0.8096210360527039
			],
			"type":"VEC3"
		},
		{
			"bufferView":1,
			"componentType":5126,
			"count":825,
			"type":"VEC3"
		},
		{
			"bufferView":2,
			"componentType":5126,
			"count":825,
			"type":"VEC2"
		},
		{
			"bufferView":3,
			"componentType":5126,
			"count":825,
			"type":"VEC4"
		},
		{
			"bufferView":4,
			"componentType":5123,
			"count":4080,
			"type":"SCALAR"
		},
		{
			"bufferView":5,
			"componentType":5126,
			"count":1644,
			"max":[
				1.5434595346450806,
				2.979649305343628,
				1.2932003736495972
			],
			"min":[
				-1.5536702871322632,
				0.9221607446670532,
				-1.273291826248169
			],
			"type":"VEC3"
		},
		{
			"bufferView":6,
			"componentType":5126,
			"count":1644,
			"type":"VEC3"
		},
		{
			"bufferView":7,
			"componentType":5126,
			"count":1644,
			"type":"VEC2"
		},
		{
			"bufferView":8,
			"componentType":5126,
			"count":1644,
			"type":"VEC4"
		},
		{
			"bufferView":9,
			"componentType":5123,
			"count":2466,
			"type":"SCALAR"
		}
	],
	"bufferViews":[
		{
			"buffer":0,
			"byteLength":9900,
			"byteOffset":0,
			"target":34962
		},
		{
			"buffer":0,
			"byteLength":9900,
			"byteOffset":9900,
			"target":34962
		},
		{
			"buffer":0,
			"byteLength":6600,
			"byteOffset":19800,
			"target":34962
		},
		{
			"buffer":0,
			"byteLength":13200,
			"byteOffset":26400,
			"target":34962
		},
		{
			"buffer":0,
			"byteLength":8160,
			"byteOffset":39600,
			"target":34963
		},
		{
			"buffer":0,
			"byteLength":19728,
			"byteOffset":47760,
			"target":34962
		},
		{
			"buffer":0,
			"byteLength":19728,
			"byteOffset":67488,
			"target":34962
		},
		{
			"buffer":0,
			"byteLength":13152,
			"byteOffset":87216,
			"target":34962
		},
		{
			"buffer":0,
			"byteLength":26304,
			"byteOffset":100368,
			"target":34962
		},
		{
			"buffer":0,
			"byteLength":4932,
			"byteOffset":126672,
			"target":34963
		}
	],
	"buffers":[
		{
			"byteLength":131604,
			"uri":"NormalTree_5-d09d19cac33ea193f2c9ec215a5928ea.bin"
		}
	]
}
