{
	"asset":{
		"generator":"Khronos glTF Blender I/O v5.0.21",
		"version":"2.0"
	},
	"scene":0,
	"scenes":[
		{
			"name":"Scene",
			"nodes":[
				0
			]
		}
	],
	"nodes":[
		{
			"mesh":0,
			"name":"NormalTree_2"
		}
	],
	"materials":[
		{
			"doubleSided":true,
			"name":"NormalTree_Bark"
		},
		{
			"doubleSided":true,
			"name":"NormalTree_Leaves"
		}
	],
	"meshes":[
		{
			"name":"Cylinder.004",
			"primitives":[
				{
					"attributes":{
						"POSITION":0,
						"NORMAL":1,
						"TEXCOORD_0":2,
						"TANGENT":3
					},
					"indices":4,
					"material":0
				},
				{
					"attributes":{
						"POSITION":5,
						"NORMAL":6,
						"TEXCOORD_0":7,
						"TANGENT":8
					},
					"indices":9,
					"material":1
				}
			]
		}
	],
	"accessors":[
		{
			"bufferView":0,
			"componentType":5126,
			"count":3264,
			"max":[
				1.635667324066162,
				6.185760498046875,
				0.6366407871246338
			],
			"min":[
				-1.7882426977157593,
				-0.010010119527578354,
				-0.8091591000556946
			],
			"type":"VEC3"
		},
		{
			"bufferView":1,
			"componentType":5126,
			"count":3264,
			"type":"VEC3"
		},
		{
			"bufferView":2,
			"componentType":5126,
			"count":3264,
			"type":"VEC2"
		},
		{
			"bufferView":3,
			"componentType":5126,
			"count":3264,
			"type":"VEC4"
		},
		{
			"bufferView":4,
			"componentType":5123,
			"count":16032,
			"type":"SCALAR"
		},
		{
			"bufferView":5,
			"componentType":5126,
			"count":5480,
			"max":[
				2.1825454235076904,
				6.5453200340271,
				1.4443104267120361
			],
			"min":[
				-2.371673107147217,
				1.9914638996124268,
				-1.3416284322738647
			],
			"type":"VEC3"
		},
		{
			"bufferView":6,
			"componentType":5126,
			"count":5480,
			"type":"VEC3"
		},
		{
			"bufferView":7,
			"componentType":5126,
			"count":5480,
			"type":"VEC2"
		},
		{
			"bufferView":8,
			"componentType":5126,
			"count":5480,
			"type":"VEC4"
		},
		{
			"bufferView":9,
			"componentType":5123,
			"count":8220,
			"type":"SCALAR"
		}
	],
	"bufferViews":[
		{
			"buffer":0,
			"byteLength":39168,
			"byteOffset":0,
			"target":34962
		},
		{
			"buffer":0,
			"byteLength":39168,
			"byteOffset":39168,
			"target":34962
		},
		{
			"buffer":0,
			"byteLength":26112,
			"byteOffset":78336,
			"target":34962
		},
		{
			"buffer":0,
			"byteLength":52224,
			"byteOffset":104448,
			"target":34962
		},
		{
			"buffer":0,
			"byteLength":32064,
			"byteOffset":156672,
			"target":34963
		},
		{
			"buffer":0,
			"byteLength":65760,
			"byteOffset":188736,
			"target":34962
		},
		{
			"buffer":0,
			"byteLength":65760,
			"byteOffset":254496,
			"target":34962
		},
		{
			"buffer":0,
			"byteLength":43840,
			"byteOffset":320256,
			"target":34962
		},
		{
			"buffer":0,
			"byteLength":87680,
			"byteOffset":364096,
			"target":34962
		},
		{
			"buffer":0,
			"byteLength":16440,
			"byteOffset":451776,
			"target":34963
		}
	],
	"buffers":[
		{
			"byteLength":468216,
			"uri":"NormalTree_2-6a2f03f9406cbc0bd7868594b7ad6fb4.bin"
		}
	]
}
