{
	"asset":{
		"generator":"Khronos glTF Blender I/O v5.0.21",
		"version":"2.0"
	},
	"scene":0,
	"scenes":[
		{
			"name":"Scene",
			"nodes":[
				0
			]
		}
	],
	"nodes":[
		{
			"mesh":0,
			"name":"NormalTree_3"
		}
	],
	"materials":[
		{
			"doubleSided":true,
			"name":"NormalTree_Bark"
		},
		{
			"doubleSided":true,
			"name":"NormalTree_Leaves"
		}
	],
	"meshes":[
		{
			"name":"Cylinder.009",
			"primitives":[
				{
					"attributes":{
						"POSITION":0,
						"NORMAL":1,
						"TEXCOORD_0":2,
						"TANGENT":3
					},
					"indices":4,
					"material":0
				},
				{
					"attributes":{
						"POSITION":5,
						"NORMAL":6,
						"TEXCOORD_0":7,
						"TANGENT":8
					},
					"indices":9,
					"material":1
				}
			]
		}
	],
	"accessors":[
		{
			"bufferView":0,
			"componentType":5126,
			"count":3004,
			"max":[
				2.8662118911743164,
				4.9478936195373535,
				0.7827639579772949
			],
			"min":[
				-1.3526040315628052,
				-0.010010122321546078,
				-0.918813169002533
			],
			"type":"VEC3"
		},
		{
			"bufferView":1,
			"componentType":5126,
			"count":3004,
			"type":"VEC3"
		},
		{
			"bufferView":2,
			"componentType":5126,
			"count":3004,
			"type":"VEC2"
		},
		{
			"bufferView":3,
			"componentType":5126,
			"count":3004,
			"type":"VEC4"
		},
		{
			"bufferView":4,
			"componentType":5123,
			"count":14784,
			"type":"SCALAR"
		},
		{
			"bufferView":5,
			"componentType":5126,
			"count":4336,
			"max":[
				3.150369882583618,
				5.271028518676758,
				1.4996790885925293
			],
			"min":[
				-1.8887102603912354,
				1.5582914352416992,
				-1.3798961639404297
			],
			"type":"VEC3"
		},
		{
			"bufferView":6,
			"componentType":5126,
			"count":4336,
			"type":"VEC3"
		},
		{
			"bufferView":7,
			"componentType":5126,
			"count":4336,
			"type":"VEC2"
		},
		{
			"bufferView":8,
			"componentType":5126,
			"count":4336,
			"type":"VEC4"
		},
		{
			"bufferView":9,
			"componentType":5123,
			"count":6504,
			"type":"SCALAR"
		}
	],
	"bufferViews":[
		{
			"buffer":0,
			"byteLength":36048,
			"byteOffset":0,
			"target":34962
		},
		{
			"buffer":0,
			"byteLength":36048,
			"byteOffset":36048,
			"target":34962
		},
		{
			"buffer":0,
			"byteLength":24032,
			"byteOffset":72096,
			"target":34962
		},
		{
			"buffer":0,
			"byteLength":48064,
			"byteOffset":96128,
			"target":34962
		},
		{
			"buffer":0,
			"byteLength":29568,
			"byteOffset":144192,
			"target":34963
		},
		{
			"buffer":0,
			"byteLength":52032,
			"byteOffset":173760,
			"target":34962
		},
		{
			"buffer":0,
			"byteLength":52032,
			"byteOffset":225792,
			"target":34962
		},
		{
			"buffer":0,
			"byteLength":34688,
			"byteOffset":277824,
			"target":34962
		},
		{
			"buffer":0,
			"byteLength":69376,
			"byteOffset":312512,
			"target":34962
		},
		{
			"buffer":0,
			"byteLength":13008,
			"byteOffset":381888,
			"target":34963
		}
	],
	"buffers":[
		{
			"byteLength":394896,
			"uri":"NormalTree_3-a74d42e0ed87a6294e0484da96b22d00.bin"
		}
	]
}
