{
	"asset":{
		"generator":"Khronos glTF Blender I/O v5.0.21",
		"version":"2.0"
	},
	"scene":0,
	"scenes":[
		{
			"name":"Scene",
			"nodes":[
				0
			]
		}
	],
	"nodes":[
		{
			"mesh":0,
			"name":"NormalTree_1"
		}
	],
	"materials":[
		{
			"doubleSided":true,
			"name":"NormalTree_Bark"
		},
		{
			"doubleSided":true,
			"name":"NormalTree_Leaves"
		}
	],
	"meshes":[
		{
			"name":"Cylinder.001",
			"primitives":[
				{
					"attributes":{
						"POSITION":0,
						"NORMAL":1,
						"TEXCOORD_0":2,
						"TANGENT":3
					},
					"indices":4,
					"material":0
				},
				{
					"attributes":{
						"POSITION":5,
						"NORMAL":6,
						"TEXCOORD_0":7,
						"TANGENT":8
					},
					"indices":9,
					"material":1
				}
			]
		}
	],
	"accessors":[
		{
			"bufferView":0,
			"componentType":5126,
			"count":2923,
			"max":[
				1.4404239654541016,
				6.185760498046875,
				0.6190109848976135
			],
			"min":[
				-1.6520121097564697,
				-0.009869025088846684,
				-0.676365852355957
			],
			"type":"VEC3"
		},
		{
			"bufferView":1,
			"componentType":5126,
			"count":2923,
			"type":"VEC3"
		},
		{
			"bufferView":2,
			"componentType":5126,
			"count":2923,
			"type":"VEC2"
		},
		{
			"bufferView":3,
			"componentType":5126,
			"count":2923,
			"type":"VEC4"
		},
		{
			"bufferView":4,
			"componentType":5123,
			"count":14376,
			"type":"SCALAR"
		},
		{
			"bufferView":5,
			"componentType":5126,
			"count":7456,
			"max":[
				1.9202561378479004,
				6.856752395629883,
				1.2456235885620117
			],
			"min":[
				-2.1308679580688477,
				2.9108479022979736,
				-1.498358964920044
			],
			"type":"VEC3"
		},
		{
			"bufferView":6,
			"componentType":5126,
			"count":7456,
			"type":"VEC3"
		},
		{
			"bufferView":7,
			"componentType":5126,
			"count":7456,
			"type":"VEC2"
		},
		{
			"bufferView":8,
			"componentType":5126,
			"count":7456,
			"type":"VEC4"
		},
		{
			"bufferView":9,
			"componentType":5123,
			"count":11184,
			"type":"SCALAR"
		}
	],
	"bufferViews":[
		{
			"buffer":0,
			"byteLength":35076,
			"byteOffset":0,
			"target":34962
		},
		{
			"buffer":0,
			"byteLength":35076,
			"byteOffset":35076,
			"target":34962
		},
		{
			"buffer":0,
			"byteLength":23384,
			"byteOffset":70152,
			"target":34962
		},
		{
			"buffer":0,
			"byteLength":46768,
			"byteOffset":93536,
			"target":34962
		},
		{
			"buffer":0,
			"byteLength":28752,
			"byteOffset":140304,
			"target":34963
		},
		{
			"buffer":0,
			"byteLength":89472,
			"byteOffset":169056,
			"target":34962
		},
		{
			"buffer":0,
			"byteLength":89472,
			"byteOffset":258528,
			"target":34962
		},
		{
			"buffer":0,
			"byteLength":59648,
			"byteOffset":348000,
			"target":34962
		},
		{
			"buffer":0,
			"byteLength":119296,
			"byteOffset":407648,
			"target":34962
		},
		{
			"buffer":0,
			"byteLength":22368,
			"byteOffset":526944,
			"target":34963
		}
	],
	"buffers":[
		{
			"byteLength":549312,
			"uri":"NormalTree_1-a7dbe9fce5b54b163462bef7e1a20db2.bin"
		}
	]
}
