{
	"asset":{
		"generator":"Khronos glTF Blender I/O v5.0.21",
		"version":"2.0"
	},
	"scene":0,
	"scenes":[
		{
			"name":"Scene",
			"nodes":[
				0
			]
		}
	],
	"nodes":[
		{
			"mesh":0,
			"name":"PalmTree_3"
		}
	],
	"materials":[
		{
			"doubleSided":true,
			"name":"PalmTree_Trunk"
		},
		{
			"doubleSided":true,
			"name":"PalmTree_Leaves"
		}
	],
	"meshes":[
		{
			"name":"Cube.006",
			"primitives":[
				{
					"attributes":{
						"POSITION":0,
						"NORMAL":1,
						"TEXCOORD_0":2,
						"TANGENT":3
					},
					"indices":4,
					"material":0
				},
				{
					"attributes":{
						"POSITION":5,
						"NORMAL":6,
						"TEXCOORD_0":7,
						"TANGENT":8
					},
					"indices":9,
					"material":1
				}
			]
		}
	],
	"accessors":[
		{
			"bufferView":0,
			"componentType":5126,
			"count":98,
			"max":[
				0.18696677684783936,
				2.9023377895355225,
				0.18195201456546783
			],
			"min":[
				-0.25744321942329407,
				-0.03743772953748703,
				-0.3180404603481293
			],
			"type":"VEC3"
		},
		{
			"bufferView":1,
			"componentType":5126,
			"count":98,
			"type":"VEC3"
		},
		{
			"bufferView":2,
			"componentType":5126,
			"count":98,
			"type":"VEC2"
		},
		{
			"bufferView":3,
			"componentType":5126,
			"count":98,
			"type":"VEC4"
		},
		{
			"bufferView":4,
			"componentType":5123,
			"count":456,
			"type":"SCALAR"
		},
		{
			"bufferView":5,
			"componentType":5126,
			"count":184,
			"max":[
				1.9901334047317505,
				4.628427028656006,
				2.2533249855041504
			],
			"min":[
				-2.482754707336426,
				2.196486711502075,
				-1.9688334465026855
			],
			"type":"VEC3"
		},
		{
			"bufferView":6,
			"componentType":5126,
			"count":184,
			"type":"VEC3"
		},
		{
			"bufferView":7,
			"componentType":5126,
			"count":184,
			"type":"VEC2"
		},
		{
			"bufferView":8,
			"componentType":5126,
			"count":184,
			"type":"VEC4"
		},
		{
			"bufferView":9,
			"componentType":5123,
			"count":576,
			"type":"SCALAR"
		}
	],
	"bufferViews":[
		{
			"buffer":0,
			"byteLength":1176,
			"byteOffset":0,
			"target":34962
		},
		{
			"buffer":0,
			"byteLength":1176,
			"byteOffset":1176,
			"target":34962
		},
		{
			"buffer":0,
			"byteLength":784,
			"byteOffset":2352,
			"target":34962
		},
		{
			"buffer":0,
			"byteLength":1568,
			"byteOffset":3136,
			"target":34962
		},
		{
			"buffer":0,
			"byteLength":912,
			"byteOffset":4704,
			"target":34963
		},
		{
			"buffer":0,
			"byteLength":2208,
			"byteOffset":5616,
			"target":34962
		},
		{
			"buffer":0,
			"byteLength":2208,
			"byteOffset":7824,
			"target":34962
		},
		{
			"buffer":0,
			"byteLength":1472,
			"byteOffset":10032,
			"target":34962
		},
		{
			"buffer":0,
			"byteLength":2944,
			"byteOffset":11504,
			"target":34962
		},
		{
			"buffer":0,
			"byteLength":1152,
			"byteOffset":14448,
			"target":34963
		}
	],
	"buffers":[
		{
			"byteLength":15600,
			"uri":"PalmTree_3-b220aabdd31c177f2db8314744dc24b5.bin"
		}
	]
}
