{
	"asset":{
		"generator":"Khronos glTF Blender I/O v5.0.21",
		"version":"2.0"
	},
	"scene":0,
	"scenes":[
		{
			"name":"Scene",
			"nodes":[
				0
			]
		}
	],
	"nodes":[
		{
			"mesh":0,
			"name":"PalmTree_5"
		}
	],
	"materials":[
		{
			"doubleSided":true,
			"name":"PalmTree_Trunk"
		},
		{
			"doubleSided":true,
			"name":"PalmTree_Leaves"
		}
	],
	"meshes":[
		{
			"name":"Cube.010",
			"primitives":[
				{
					"attributes":{
						"POSITION":0,
						"NORMAL":1,
						"TEXCOORD_0":2,
						"TANGENT":3
					},
					"indices":4,
					"material":0
				},
				{
					"attributes":{
						"POSITION":5,
						"NORMAL":6,
						"TEXCOORD_0":7,
						"TANGENT":8
					},
					"indices":9,
					"material":1
				}
			]
		}
	],
	"accessors":[
		{
			"bufferView":0,
			"componentType":5126,
			"count":53,
			"max":[
				0.17015644907951355,
				1.1615264415740967,
				0.17082935571670532
			],
			"min":[
				-0.190721794962883,
				-0.006913273129612207,
				-0.350021094083786
			],
			"type":"VEC3"
		},
		{
			"bufferView":1,
			"componentType":5126,
			"count":53,
			"type":"VEC3"
		},
		{
			"bufferView":2,
			"componentType":5126,
			"count":53,
			"type":"VEC2"
		},
		{
			"bufferView":3,
			"componentType":5126,
			"count":53,
			"type":"VEC4"
		},
		{
			"bufferView":4,
			"componentType":5123,
			"count":216,
			"type":"SCALAR"
		},
		{
			"bufferView":5,
			"componentType":5126,
			"count":184,
			"max":[
				1.6459791660308838,
				1.7886996269226074,
				1.9967689514160156
			],
			"min":[
				-1.846312403678894,
				0.14712324738502502,
				-1.6256078481674194
			],
			"type":"VEC3"
		},
		{
			"bufferView":6,
			"componentType":5126,
			"count":184,
			"type":"VEC3"
		},
		{
			"bufferView":7,
			"componentType":5126,
			"count":184,
			"type":"VEC2"
		},
		{
			"bufferView":8,
			"componentType":5126,
			"count":184,
			"type":"VEC4"
		},
		{
			"bufferView":9,
			"componentType":5123,
			"count":576,
			"type":"SCALAR"
		}
	],
	"bufferViews":[
		{
			"buffer":0,
			"byteLength":636,
			"byteOffset":0,
			"target":34962
		},
		{
			"buffer":0,
			"byteLength":636,
			"byteOffset":636,
			"target":34962
		},
		{
			"buffer":0,
			"byteLength":424,
			"byteOffset":1272,
			"target":34962
		},
		{
			"buffer":0,
			"byteLength":848,
			"byteOffset":1696,
			"target":34962
		},
		{
			"buffer":0,
			"byteLength":432,
			"byteOffset":2544,
			"target":34963
		},
		{
			"buffer":0,
			"byteLength":2208,
			"byteOffset":2976,
			"target":34962
		},
		{
			"buffer":0,
			"byteLength":2208,
			"byteOffset":5184,
			"target":34962
		},
		{
			"buffer":0,
			"byteLength":1472,
			"byteOffset":7392,
			"target":34962
		},
		{
			"buffer":0,
			"byteLength":2944,
			"byteOffset":8864,
			"target":34962
		},
		{
			"buffer":0,
			"byteLength":1152,
			"byteOffset":11808,
			"target":34963
		}
	],
	"buffers":[
		{
			"byteLength":12960,
			"uri":"PalmTree_5-241f52695b444452826f5a718a302512.bin"
		}
	]
}
