{
	"asset":{
		"generator":"Khronos glTF Blender I/O v5.0.21",
		"version":"2.0"
	},
	"scene":0,
	"scenes":[
		{
			"name":"Scene",
			"nodes":[
				0
			]
		}
	],
	"nodes":[
		{
			"mesh":0,
			"name":"PalmTree_1"
		}
	],
	"materials":[
		{
			"doubleSided":true,
			"name":"PalmTree_Trunk"
		},
		{
			"doubleSided":true,
			"name":"PalmTree_Leaves"
		}
	],
	"meshes":[
		{
			"name":"Cube.003",
			"primitives":[
				{
					"attributes":{
						"POSITION":0,
						"NORMAL":1,
						"TEXCOORD_0":2,
						"TANGENT":3
					},
					"indices":4,
					"material":0
				},
				{
					"attributes":{
						"POSITION":5,
						"NORMAL":6,
						"TEXCOORD_0":7,
						"TANGENT":8
					},
					"indices":9,
					"material":1
				}
			]
		}
	],
	"accessors":[
		{
			"bufferView":0,
			"componentType":5126,
			"count":118,
			"max":[
				0.23065800964832306,
				3.924138307571411,
				0.15678653120994568
			],
			"min":[
				-0.21598833799362183,
				0.01045552734285593,
				-0.29081612825393677
			],
			"type":"VEC3"
		},
		{
			"bufferView":1,
			"componentType":5126,
			"count":118,
			"type":"VEC3"
		},
		{
			"bufferView":2,
			"componentType":5126,
			"count":118,
			"type":"VEC2"
		},
		{
			"bufferView":3,
			"componentType":5126,
			"count":118,
			"type":"VEC4"
		},
		{
			"bufferView":4,
			"componentType":5123,
			"count":552,
			"type":"SCALAR"
		},
		{
			"bufferView":5,
			"componentType":5126,
			"count":270,
			"max":[
				2.357530355453491,
				5.113828659057617,
				2.2219085693359375
			],
			"min":[
				-2.734689950942993,
				2.8158938884735107,
				-2.7246909141540527
			],
			"type":"VEC3"
		},
		{
			"bufferView":6,
			"componentType":5126,
			"count":270,
			"type":"VEC3"
		},
		{
			"bufferView":7,
			"componentType":5126,
			"count":270,
			"type":"VEC2"
		},
		{
			"bufferView":8,
			"componentType":5126,
			"count":270,
			"type":"VEC4"
		},
		{
			"bufferView":9,
			"componentType":5123,
			"count":864,
			"type":"SCALAR"
		}
	],
	"bufferViews":[
		{
			"buffer":0,
			"byteLength":1416,
			"byteOffset":0,
			"target":34962
		},
		{
			"buffer":0,
			"byteLength":1416,
			"byteOffset":1416,
			"target":34962
		},
		{
			"buffer":0,
			"byteLength":944,
			"byteOffset":2832,
			"target":34962
		},
		{
			"buffer":0,
			"byteLength":1888,
			"byteOffset":3776,
			"target":34962
		},
		{
			"buffer":0,
			"byteLength":1104,
			"byteOffset":5664,
			"target":34963
		},
		{
			"buffer":0,
			"byteLength":3240,
			"byteOffset":6768,
			"target":34962
		},
		{
			"buffer":0,
			"byteLength":3240,
			"byteOffset":10008,
			"target":34962
		},
		{
			"buffer":0,
			"byteLength":2160,
			"byteOffset":13248,
			"target":34962
		},
		{
			"buffer":0,
			"byteLength":4320,
			"byteOffset":15408,
			"target":34962
		},
		{
			"buffer":0,
			"byteLength":1728,
			"byteOffset":19728,
			"target":34963
		}
	],
	"buffers":[
		{
			"byteLength":21456,
			"uri":"PalmTree_1-80d2be7ca5f5c307c94181a4ded05988.bin"
		}
	]
}
