{
	"asset":{
		"generator":"Khronos glTF Blender I/O v5.0.21",
		"version":"2.0"
	},
	"scene":0,
	"scenes":[
		{
			"name":"Scene",
			"nodes":[
				0
			]
		}
	],
	"nodes":[
		{
			"mesh":0,
			"name":"PalmTree_2"
		}
	],
	"materials":[
		{
			"doubleSided":true,
			"name":"PalmTree_Trunk"
		},
		{
			"doubleSided":true,
			"name":"PalmTree_Leaves"
		}
	],
	"meshes":[
		{
			"name":"Cube.007",
			"primitives":[
				{
					"attributes":{
						"POSITION":0,
						"NORMAL":1,
						"TEXCOORD_0":2,
						"TANGENT":3
					},
					"indices":4,
					"material":0
				},
				{
					"attributes":{
						"POSITION":5,
						"NORMAL":6,
						"TEXCOORD_0":7,
						"TANGENT":8
					},
					"indices":9,
					"material":1
				}
			]
		}
	],
	"accessors":[
		{
			"bufferView":0,
			"componentType":5126,
			"count":98,
			"max":[
				1.581221580505371,
				2.586073875427246,
				0.21921752393245697
			],
			"min":[
				-0.23141463100910187,
				-0.04019520804286003,
				-0.35375353693962097
			],
			"type":"VEC3"
		},
		{
			"bufferView":1,
			"componentType":5126,
			"count":98,
			"type":"VEC3"
		},
		{
			"bufferView":2,
			"componentType":5126,
			"count":98,
			"type":"VEC2"
		},
		{
			"bufferView":3,
			"componentType":5126,
			"count":98,
			"type":"VEC4"
		},
		{
			"bufferView":4,
			"componentType":5123,
			"count":456,
			"type":"SCALAR"
		},
		{
			"bufferView":5,
			"componentType":5126,
			"count":207,
			"max":[
				4.18393611907959,
				5.239776611328125,
				1.9548131227493286
			],
			"min":[
				-1.3995224237442017,
				1.1650002002716064,
				-2.8144423961639404
			],
			"type":"VEC3"
		},
		{
			"bufferView":6,
			"componentType":5126,
			"count":207,
			"type":"VEC3"
		},
		{
			"bufferView":7,
			"componentType":5126,
			"count":207,
			"type":"VEC2"
		},
		{
			"bufferView":8,
			"componentType":5126,
			"count":207,
			"type":"VEC4"
		},
		{
			"bufferView":9,
			"componentType":5123,
			"count":648,
			"type":"SCALAR"
		}
	],
	"bufferViews":[
		{
			"buffer":0,
			"byteLength":1176,
			"byteOffset":0,
			"target":34962
		},
		{
			"buffer":0,
			"byteLength":1176,
			"byteOffset":1176,
			"target":34962
		},
		{
			"buffer":0,
			"byteLength":784,
			"byteOffset":2352,
			"target":34962
		},
		{
			"buffer":0,
			"byteLength":1568,
			"byteOffset":3136,
			"target":34962
		},
		{
			"buffer":0,
			"byteLength":912,
			"byteOffset":4704,
			"target":34963
		},
		{
			"buffer":0,
			"byteLength":2484,
			"byteOffset":5616,
			"target":34962
		},
		{
			"buffer":0,
			"byteLength":2484,
			"byteOffset":8100,
			"target":34962
		},
		{
			"buffer":0,
			"byteLength":1656,
			"byteOffset":10584,
			"target":34962
		},
		{
			"buffer":0,
			"byteLength":3312,
			"byteOffset":12240,
			"target":34962
		},
		{
			"buffer":0,
			"byteLength":1296,
			"byteOffset":15552,
			"target":34963
		}
	],
	"buffers":[
		{
			"byteLength":16848,
			"uri":"PalmTree_2-ec629b46ce6f5869af313febf5adde7e.bin"
		}
	]
}
