{
	"asset":{
		"generator":"Khronos glTF Blender I/O v5.0.21",
		"version":"2.0"
	},
	"scene":0,
	"scenes":[
		{
			"name":"Scene",
			"nodes":[
				0
			]
		}
	],
	"nodes":[
		{
			"mesh":0,
			"name":"Petals_4",
			"rotation":[
				0.171763077378273,
				0,
				0,
				0.9851382970809937
			]
		}
	],
	"materials":[
		{
			"doubleSided":true,
			"name":"Flowers"
		}
	],
	"meshes":[
		{
			"name":"Plane.033",
			"primitives":[
				{
					"attributes":{
						"POSITION":0,
						"NORMAL":1,
						"TEXCOORD_0":2,
						"TANGENT":3
					},
					"indices":4,
					"material":0
				}
			]
		}
	],
	"accessors":[
		{
			"bufferView":0,
			"componentType":5126,
			"count":7,
			"max":[
				0.20495012402534485,
				0.09794150292873383,
				0.18090376257896423
			],
			"min":[
				-0.2096412181854248,
				-0.006434593815356493,
				-0.18080562353134155
			],
			"type":"VEC3"
		},
		{
			"bufferView":1,
			"componentType":5126,
			"count":7,
			"type":"VEC3"
		},
		{
			"bufferView":2,
			"componentType":5126,
			"count":7,
			"type":"VEC2"
		},
		{
			"bufferView":3,
			"componentType":5126,
			"count":7,
			"type":"VEC4"
		},
		{
			"bufferView":4,
			"componentType":5123,
			"count":18,
			"type":"SCALAR"
		}
	],
	"bufferViews":[
		{
			"buffer":0,
			"byteLength":84,
			"byteOffset":0,
			"target":34962
		},
		{
			"buffer":0,
			"byteLength":84,
			"byteOffset":84,
			"target":34962
		},
		{
			"buffer":0,
			"byteLength":56,
			"byteOffset":168,
			"target":34962
		},
		{
			"buffer":0,
			"byteLength":112,
			"byteOffset":224,
			"target":34962
		},
		{
			"buffer":0,
			"byteLength":36,
			"byteOffset":336,
			"target":34963
		}
	],
	"buffers":[
		{
			"byteLength":372,
			"uri":"Petals_4-56e3f36ec80624139bca00fbdb47d597.bin"
		}
	]
}
