{
	"asset":{
		"generator":"Khronos glTF Blender I/O v5.0.21",
		"version":"2.0"
	},
	"scene":0,
	"scenes":[
		{
			"name":"Scene",
			"nodes":[
				0
			]
		}
	],
	"nodes":[
		{
			"mesh":0,
			"name":"Petals_1",
			"rotation":[
				-0.9483963847160339,
				0.22881989181041718,
				0.21801157295703888,
				0.025625795125961304
			]
		}
	],
	"materials":[
		{
			"doubleSided":true,
			"name":"Flowers"
		}
	],
	"meshes":[
		{
			"name":"Plane.027",
			"primitives":[
				{
					"attributes":{
						"POSITION":0,
						"NORMAL":1,
						"TEXCOORD_0":2,
						"TANGENT":3
					},
					"indices":4,
					"material":0
				}
			]
		}
	],
	"accessors":[
		{
			"bufferView":0,
			"componentType":5126,
			"count":105,
			"max":[
				0.3320668041706085,
				0.2978593409061432,
				0.3219252824783325
			],
			"min":[
				-0.3452664017677307,
				-0.3580484092235565,
				-0.3139239549636841
			],
			"type":"VEC3"
		},
		{
			"bufferView":1,
			"componentType":5126,
			"count":105,
			"type":"VEC3"
		},
		{
			"bufferView":2,
			"componentType":5126,
			"count":105,
			"type":"VEC2"
		},
		{
			"bufferView":3,
			"componentType":5126,
			"count":105,
			"type":"VEC4"
		},
		{
			"bufferView":4,
			"componentType":5123,
			"count":270,
			"type":"SCALAR"
		}
	],
	"bufferViews":[
		{
			"buffer":0,
			"byteLength":1260,
			"byteOffset":0,
			"target":34962
		},
		{
			"buffer":0,
			"byteLength":1260,
			"byteOffset":1260,
			"target":34962
		},
		{
			"buffer":0,
			"byteLength":840,
			"byteOffset":2520,
			"target":34962
		},
		{
			"buffer":0,
			"byteLength":1680,
			"byteOffset":3360,
			"target":34962
		},
		{
			"buffer":0,
			"byteLength":540,
			"byteOffset":5040,
			"target":34963
		}
	],
	"buffers":[
		{
			"byteLength":5580,
			"uri":"Petals_1-0f5003a00e0e9f8bb698df6bcc322816.bin"
		}
	]
}
