{
	"asset":{
		"generator":"Khronos glTF Blender I/O v5.0.21",
		"version":"2.0"
	},
	"scene":0,
	"scenes":[
		{
			"name":"Scene",
			"nodes":[
				0
			]
		}
	],
	"nodes":[
		{
			"mesh":0,
			"name":"PineTree_2"
		}
	],
	"materials":[
		{
			"doubleSided":true,
			"name":"PineTree_Bark"
		},
		{
			"doubleSided":true,
			"name":"PineTree_Leaves"
		}
	],
	"meshes":[
		{
			"name":"Cube.004",
			"primitives":[
				{
					"attributes":{
						"POSITION":0,
						"NORMAL":1,
						"TEXCOORD_0":2
					},
					"indices":3,
					"material":0
				},
				{
					"attributes":{
						"POSITION":4,
						"NORMAL":5,
						"TEXCOORD_0":6
					},
					"indices":7,
					"material":1
				}
			]
		}
	],
	"accessors":[
		{
			"bufferView":0,
			"componentType":5126,
			"count":976,
			"max":[
				0.7040790319442749,
				6.912871837615967,
				0.4176293909549713
			],
			"min":[
				-0.5983111262321472,
				0.004260551184415817,
				-0.4644191265106201
			],
			"type":"VEC3"
		},
		{
			"bufferView":1,
			"componentType":5126,
			"count":976,
			"type":"VEC3"
		},
		{
			"bufferView":2,
			"componentType":5126,
			"count":976,
			"type":"VEC2"
		},
		{
			"bufferView":3,
			"componentType":5123,
			"count":4800,
			"type":"SCALAR"
		},
		{
			"bufferView":4,
			"componentType":5126,
			"count":972,
			"max":[
				1.7228964567184448,
				6.884300231933594,
				1.5616792440414429
			],
			"min":[
				-1.5540348291397095,
				2.2981085777282715,
				-1.4178131818771362
			],
			"type":"VEC3"
		},
		{
			"bufferView":5,
			"componentType":5126,
			"count":972,
			"type":"VEC3"
		},
		{
			"bufferView":6,
			"componentType":5126,
			"count":972,
			"type":"VEC2"
		},
		{
			"bufferView":7,
			"componentType":5123,
			"count":3348,
			"type":"SCALAR"
		}
	],
	"bufferViews":[
		{
			"buffer":0,
			"byteLength":11712,
			"byteOffset":0,
			"target":34962
		},
		{
			"buffer":0,
			"byteLength":11712,
			"byteOffset":11712,
			"target":34962
		},
		{
			"buffer":0,
			"byteLength":7808,
			"byteOffset":23424,
			"target":34962
		},
		{
			"buffer":0,
			"byteLength":9600,
			"byteOffset":31232,
			"target":34963
		},
		{
			"buffer":0,
			"byteLength":11664,
			"byteOffset":40832,
			"target":34962
		},
		{
			"buffer":0,
			"byteLength":11664,
			"byteOffset":52496,
			"target":34962
		},
		{
			"buffer":0,
			"byteLength":7776,
			"byteOffset":64160,
			"target":34962
		},
		{
			"buffer":0,
			"byteLength":6696,
			"byteOffset":71936,
			"target":34963
		}
	],
	"buffers":[
		{
			"byteLength":78632,
			"uri":"PineTree_2-5ea768e4d8cfa0090e3916234d994fde.bin"
		}
	]
}
