{
	"asset":{
		"generator":"Khronos glTF Blender I/O v5.0.21",
		"version":"2.0"
	},
	"scene":0,
	"scenes":[
		{
			"name":"Scene",
			"nodes":[
				0
			]
		}
	],
	"nodes":[
		{
			"mesh":0,
			"name":"PineTree_4"
		}
	],
	"materials":[
		{
			"doubleSided":true,
			"name":"PineTree_Bark"
		},
		{
			"doubleSided":true,
			"name":"PineTree_Leaves"
		}
	],
	"meshes":[
		{
			"name":"Cube.014",
			"primitives":[
				{
					"attributes":{
						"POSITION":0,
						"NORMAL":1,
						"TEXCOORD_0":2
					},
					"indices":3,
					"material":0
				},
				{
					"attributes":{
						"POSITION":4,
						"NORMAL":5,
						"TEXCOORD_0":6
					},
					"indices":7,
					"material":1
				}
			]
		}
	],
	"accessors":[
		{
			"bufferView":0,
			"componentType":5126,
			"count":1011,
			"max":[
				3.502697229385376,
				3.3134217262268066,
				0.8293107748031616
			],
			"min":[
				-1.1578720808029175,
				-0.010055785067379475,
				0.010178587399423122
			],
			"type":"VEC3"
		},
		{
			"bufferView":1,
			"componentType":5126,
			"count":1011,
			"type":"VEC3"
		},
		{
			"bufferView":2,
			"componentType":5126,
			"count":1011,
			"type":"VEC2"
		},
		{
			"bufferView":3,
			"componentType":5123,
			"count":4992,
			"type":"SCALAR"
		},
		{
			"bufferView":4,
			"componentType":5126,
			"count":874,
			"max":[
				3.6323556900024414,
				4.474750995635986,
				2.024956464767456
			],
			"min":[
				-1.2101242542266846,
				1.223146677017212,
				-1.2248066663742065
			],
			"type":"VEC3"
		},
		{
			"bufferView":5,
			"componentType":5126,
			"count":874,
			"type":"VEC3"
		},
		{
			"bufferView":6,
			"componentType":5126,
			"count":874,
			"type":"VEC2"
		},
		{
			"bufferView":7,
			"componentType":5123,
			"count":3066,
			"type":"SCALAR"
		}
	],
	"bufferViews":[
		{
			"buffer":0,
			"byteLength":12132,
			"byteOffset":0,
			"target":34962
		},
		{
			"buffer":0,
			"byteLength":12132,
			"byteOffset":12132,
			"target":34962
		},
		{
			"buffer":0,
			"byteLength":8088,
			"byteOffset":24264,
			"target":34962
		},
		{
			"buffer":0,
			"byteLength":9984,
			"byteOffset":32352,
			"target":34963
		},
		{
			"buffer":0,
			"byteLength":10488,
			"byteOffset":42336,
			"target":34962
		},
		{
			"buffer":0,
			"byteLength":10488,
			"byteOffset":52824,
			"target":34962
		},
		{
			"buffer":0,
			"byteLength":6992,
			"byteOffset":63312,
			"target":34962
		},
		{
			"buffer":0,
			"byteLength":6132,
			"byteOffset":70304,
			"target":34963
		}
	],
	"buffers":[
		{
			"byteLength":76436,
			"uri":"PineTree_4-c7ae921928773f7797f9c39fb37e3c13.bin"
		}
	]
}
