{
	"asset":{
		"generator":"Khronos glTF Blender I/O v5.0.21",
		"version":"2.0"
	},
	"scene":0,
	"scenes":[
		{
			"name":"Scene",
			"nodes":[
				0
			]
		}
	],
	"nodes":[
		{
			"mesh":0,
			"name":"PineTree_3"
		}
	],
	"materials":[
		{
			"doubleSided":true,
			"name":"PineTree_Bark"
		},
		{
			"doubleSided":true,
			"name":"PineTree_Leaves"
		}
	],
	"meshes":[
		{
			"name":"Cube.008",
			"primitives":[
				{
					"attributes":{
						"POSITION":0,
						"NORMAL":1,
						"TEXCOORD_0":2
					},
					"indices":3,
					"material":0
				},
				{
					"attributes":{
						"POSITION":4,
						"NORMAL":5,
						"TEXCOORD_0":6
					},
					"indices":7,
					"material":1
				}
			]
		}
	],
	"accessors":[
		{
			"bufferView":0,
			"componentType":5126,
			"count":912,
			"max":[
				0.5073130130767822,
				2.348637104034424,
				0.4018295705318451
			],
			"min":[
				-0.6416347622871399,
				0.001675799721851945,
				-0.3556956648826599
			],
			"type":"VEC3"
		},
		{
			"bufferView":1,
			"componentType":5126,
			"count":912,
			"type":"VEC3"
		},
		{
			"bufferView":2,
			"componentType":5126,
			"count":912,
			"type":"VEC2"
		},
		{
			"bufferView":3,
			"componentType":5123,
			"count":4488,
			"type":"SCALAR"
		},
		{
			"bufferView":4,
			"componentType":5126,
			"count":434,
			"max":[
				0.9194961786270142,
				2.3273913860321045,
				0.9201787114143372
			],
			"min":[
				-0.843676745891571,
				0.8846760988235474,
				-0.8292273283004761
			],
			"type":"VEC3"
		},
		{
			"bufferView":5,
			"componentType":5126,
			"count":434,
			"type":"VEC3"
		},
		{
			"bufferView":6,
			"componentType":5126,
			"count":434,
			"type":"VEC2"
		},
		{
			"bufferView":7,
			"componentType":5123,
			"count":1506,
			"type":"SCALAR"
		}
	],
	"bufferViews":[
		{
			"buffer":0,
			"byteLength":10944,
			"byteOffset":0,
			"target":34962
		},
		{
			"buffer":0,
			"byteLength":10944,
			"byteOffset":10944,
			"target":34962
		},
		{
			"buffer":0,
			"byteLength":7296,
			"byteOffset":21888,
			"target":34962
		},
		{
			"buffer":0,
			"byteLength":8976,
			"byteOffset":29184,
			"target":34963
		},
		{
			"buffer":0,
			"byteLength":5208,
			"byteOffset":38160,
			"target":34962
		},
		{
			"buffer":0,
			"byteLength":5208,
			"byteOffset":43368,
			"target":34962
		},
		{
			"buffer":0,
			"byteLength":3472,
			"byteOffset":48576,
			"target":34962
		},
		{
			"buffer":0,
			"byteLength":3012,
			"byteOffset":52048,
			"target":34963
		}
	],
	"buffers":[
		{
			"byteLength":55060,
			"uri":"PineTree_3-717005a9dfe4e3306eb156c0d0685aac.bin"
		}
	]
}
