{
	"asset":{
		"generator":"Khronos glTF Blender I/O v5.0.21",
		"version":"2.0"
	},
	"scene":0,
	"scenes":[
		{
			"name":"Scene",
			"nodes":[
				0
			]
		}
	],
	"nodes":[
		{
			"mesh":0,
			"name":"Pipes"
		}
	],
	"materials":[
		{
			"doubleSided":true,
			"name":"Pipes",
			"pbrMetallicRoughness":{
				"baseColorFactor":[
					0.01884707622230053,
					0.01884707622230053,
					0.01884707622230053,
					1
				],
				"metallicFactor":0,
				"roughnessFactor":0.5
			}
		}
	],
	"meshes":[
		{
			"name":"CUBezierCurve.002",
			"primitives":[
				{
					"attributes":{
						"POSITION":0,
						"NORMAL":1
					},
					"indices":2,
					"material":0
				}
			]
		}
	],
	"accessors":[
		{
			"bufferView":0,
			"componentType":5126,
			"count":452,
			"max":[
				1.831690788269043,
				4.355196952819824,
				0.34051018953323364
			],
			"min":[
				-1.676757574081421,
				3.9850687980651855,
				0.21292400360107422
			],
			"type":"VEC3"
		},
		{
			"bufferView":1,
			"componentType":5126,
			"count":452,
			"type":"VEC3"
		},
		{
			"bufferView":2,
			"componentType":5123,
			"count":1068,
			"type":"SCALAR"
		}
	],
	"bufferViews":[
		{
			"buffer":0,
			"byteLength":5424,
			"byteOffset":0,
			"target":34962
		},
		{
			"buffer":0,
			"byteLength":5424,
			"byteOffset":5424,
			"target":34962
		},
		{
			"buffer":0,
			"byteLength":2136,
			"byteOffset":10848,
			"target":34963
		}
	],
	"buffers":[
		{
			"byteLength":12984,
			"uri":"Pipes-91d41232e492074e464afeb09a7ba233.bin"
		}
	]
}
