{
	"asset":{
		"generator":"Khronos glTF Blender I/O v5.0.21",
		"version":"2.0"
	},
	"scene":0,
	"scenes":[
		{
			"name":"Scene",
			"nodes":[
				0
			]
		}
	],
	"nodes":[
		{
			"mesh":0,
			"name":"Plant_Flowers",
			"rotation":[
				0.10428822785615921,
				0,
				0,
				0.9945471286773682
			]
		}
	],
	"materials":[
		{
			"doubleSided":true,
			"name":"Flowers"
		}
	],
	"meshes":[
		{
			"name":"Plane.034",
			"primitives":[
				{
					"attributes":{
						"POSITION":0,
						"NORMAL":1,
						"TEXCOORD_0":2,
						"TANGENT":3
					},
					"indices":4,
					"material":0
				}
			]
		}
	],
	"accessors":[
		{
			"bufferView":0,
			"componentType":5126,
			"count":307,
			"max":[
				0.7391819953918457,
				1.0995957851409912,
				0.8120817542076111
			],
			"min":[
				-0.745380699634552,
				-0.08639717102050781,
				-0.772153913974762
			],
			"type":"VEC3"
		},
		{
			"bufferView":1,
			"componentType":5126,
			"count":307,
			"type":"VEC3"
		},
		{
			"bufferView":2,
			"componentType":5126,
			"count":307,
			"type":"VEC2"
		},
		{
			"bufferView":3,
			"componentType":5126,
			"count":307,
			"type":"VEC4"
		},
		{
			"bufferView":4,
			"componentType":5123,
			"count":990,
			"type":"SCALAR"
		}
	],
	"bufferViews":[
		{
			"buffer":0,
			"byteLength":3684,
			"byteOffset":0,
			"target":34962
		},
		{
			"buffer":0,
			"byteLength":3684,
			"byteOffset":3684,
			"target":34962
		},
		{
			"buffer":0,
			"byteLength":2456,
			"byteOffset":7368,
			"target":34962
		},
		{
			"buffer":0,
			"byteLength":4912,
			"byteOffset":9824,
			"target":34962
		},
		{
			"buffer":0,
			"byteLength":1980,
			"byteOffset":14736,
			"target":34963
		}
	],
	"buffers":[
		{
			"byteLength":16716,
			"uri":"Plant_Flowers-0c95cc6dc3322ef87eac0cd9b8d101f4.bin"
		}
	]
}
