{
	"asset":{
		"generator":"Khronos glTF Blender I/O v5.0.21",
		"version":"2.0"
	},
	"scene":0,
	"scenes":[
		{
			"name":"Scene",
			"nodes":[
				0
			]
		}
	],
	"nodes":[
		{
			"mesh":0,
			"name":"Props_Capsule"
		}
	],
	"materials":[
		{
			"doubleSided":true,
			"name":"Main",
			"pbrMetallicRoughness":{
				"baseColorFactor":[
					0.40196332335472107,
					0.40196332335472107,
					0.40196332335472107,
					1
				],
				"metallicFactor":0,
				"roughnessFactor":0.5
			}
		},
		{
			"doubleSided":true,
			"name":"Accent",
			"pbrMetallicRoughness":{
				"baseColorFactor":[
					0.559592604637146,
					0.29767245054244995,
					0.06678982824087143,
					1
				],
				"metallicFactor":0,
				"roughnessFactor":0.5
			}
		},
		{
			"doubleSided":true,
			"name":"DarkGrey",
			"pbrMetallicRoughness":{
				"baseColorFactor":[
					0.23954731225967407,
					0.23954731225967407,
					0.23954731225967407,
					1
				],
				"metallicFactor":0,
				"roughnessFactor":0.5
			}
		},
		{
			"doubleSided":true,
			"name":"Black",
			"pbrMetallicRoughness":{
				"baseColorFactor":[
					0.04202548414468765,
					0.04202548414468765,
					0.04202548414468765,
					1
				],
				"metallicFactor":0,
				"roughnessFactor":0.5
			}
		},
		{
			"doubleSided":true,
			"name":"DarkAccent",
			"pbrMetallicRoughness":{
				"baseColorFactor":[
					0.226578950881958,
					0.12337818741798401,
					0.030147360637784004,
					1
				],
				"metallicFactor":0,
				"roughnessFactor":0.5
			}
		}
	],
	"meshes":[
		{
			"name":"Cylinder.014",
			"primitives":[
				{
					"attributes":{
						"POSITION":0,
						"NORMAL":1
					},
					"indices":2,
					"material":0
				},
				{
					"attributes":{
						"POSITION":3,
						"NORMAL":4
					},
					"indices":5,
					"material":1
				},
				{
					"attributes":{
						"POSITION":6,
						"NORMAL":7
					},
					"indices":8,
					"material":2
				},
				{
					"attributes":{
						"POSITION":9,
						"NORMAL":10
					},
					"indices":11,
					"material":3
				},
				{
					"attributes":{
						"POSITION":12,
						"NORMAL":13
					},
					"indices":14,
					"material":4
				}
			]
		}
	],
	"accessors":[
		{
			"bufferView":0,
			"componentType":5126,
			"count":752,
			"max":[
				0.4293421804904938,
				1.4097774028778076,
				0.4293421804904938
			],
			"min":[
				-0.4293421804904938,
				0.2059345245361328,
				-0.4293421804904938
			],
			"type":"VEC3"
		},
		{
			"bufferView":1,
			"componentType":5126,
			"count":752,
			"type":"VEC3"
		},
		{
			"bufferView":2,
			"componentType":5123,
			"count":1224,
			"type":"SCALAR"
		},
		{
			"bufferView":3,
			"componentType":5126,
			"count":576,
			"max":[
				0.41975560784339905,
				1.6174349784851074,
				0.41975560784339905
			],
			"min":[
				-0.41975560784339905,
				-0.0017229914665222168,
				-0.41975560784339905
			],
			"type":"VEC3"
		},
		{
			"bufferView":4,
			"componentType":5126,
			"count":576,
			"type":"VEC3"
		},
		{
			"bufferView":5,
			"componentType":5123,
			"count":960,
			"type":"SCALAR"
		},
		{
			"bufferView":6,
			"componentType":5126,
			"count":128,
			"max":[
				0.39785489439964294,
				1.1943864822387695,
				0.39785489439964294
			],
			"min":[
				-0.39785489439964294,
				0.4213254749774933,
				-0.39785489439964294
			],
			"type":"VEC3"
		},
		{
			"bufferView":7,
			"componentType":5126,
			"count":128,
			"type":"VEC3"
		},
		{
			"bufferView":8,
			"componentType":5123,
			"count":192,
			"type":"SCALAR"
		},
		{
			"bufferView":9,
			"componentType":5126,
			"count":816,
			"max":[
				0.43465176224708557,
				1.5568814277648926,
				0.43465176224708557
			],
			"min":[
				-0.43465176224708557,
				0.05883049964904785,
				-0.43465176224708557
			],
			"type":"VEC3"
		},
		{
			"bufferView":10,
			"componentType":5126,
			"count":816,
			"type":"VEC3"
		},
		{
			"bufferView":11,
			"componentType":5123,
			"count":1224,
			"type":"SCALAR"
		},
		{
			"bufferView":12,
			"componentType":5126,
			"count":96,
			"max":[
				0.39785489439964294,
				1.605492353439331,
				0.39785489439964294
			],
			"min":[
				-0.39785489439964294,
				0.010219573974609375,
				-0.39785489439964294
			],
			"type":"VEC3"
		},
		{
			"bufferView":13,
			"componentType":5126,
			"count":96,
			"type":"VEC3"
		},
		{
			"bufferView":14,
			"componentType":5123,
			"count":180,
			"type":"SCALAR"
		}
	],
	"bufferViews":[
		{
			"buffer":0,
			"byteLength":9024,
			"byteOffset":0,
			"target":34962
		},
		{
			"buffer":0,
			"byteLength":9024,
			"byteOffset":9024,
			"target":34962
		},
		{
			"buffer":0,
			"byteLength":2448,
			"byteOffset":18048,
			"target":34963
		},
		{
			"buffer":0,
			"byteLength":6912,
			"byteOffset":20496,
			"target":34962
		},
		{
			"buffer":0,
			"byteLength":6912,
			"byteOffset":27408,
			"target":34962
		},
		{
			"buffer":0,
			"byteLength":1920,
			"byteOffset":34320,
			"target":34963
		},
		{
			"buffer":0,
			"byteLength":1536,
			"byteOffset":36240,
			"target":34962
		},
		{
			"buffer":0,
			"byteLength":1536,
			"byteOffset":37776,
			"target":34962
		},
		{
			"buffer":0,
			"byteLength":384,
			"byteOffset":39312,
			"target":34963
		},
		{
			"buffer":0,
			"byteLength":9792,
			"byteOffset":39696,
			"target":34962
		},
		{
			"buffer":0,
			"byteLength":9792,
			"byteOffset":49488,
			"target":34962
		},
		{
			"buffer":0,
			"byteLength":2448,
			"byteOffset":59280,
			"target":34963
		},
		{
			"buffer":0,
			"byteLength":1152,
			"byteOffset":61728,
			"target":34962
		},
		{
			"buffer":0,
			"byteLength":1152,
			"byteOffset":62880,
			"target":34962
		},
		{
			"buffer":0,
			"byteLength":360,
			"byteOffset":64032,
			"target":34963
		}
	],
	"buffers":[
		{
			"byteLength":64392,
			"uri":"Props_Capsule-855033ed0eec1160b374466127fb50a4.bin"
		}
	]
}
