{
	"asset":{
		"generator":"Khronos glTF Blender I/O v5.0.21",
		"version":"2.0"
	},
	"scene":0,
	"scenes":[
		{
			"name":"Scene",
			"nodes":[
				0
			]
		}
	],
	"nodes":[
		{
			"mesh":0,
			"name":"Props_Shelf_Tall"
		}
	],
	"materials":[
		{
			"doubleSided":true,
			"name":"Accent",
			"pbrMetallicRoughness":{
				"baseColorFactor":[
					0.559592604637146,
					0.29767245054244995,
					0.06678982824087143,
					1
				],
				"metallicFactor":0,
				"roughnessFactor":0.5
			}
		},
		{
			"doubleSided":true,
			"name":"Main",
			"pbrMetallicRoughness":{
				"baseColorFactor":[
					0.40196332335472107,
					0.40196332335472107,
					0.40196332335472107,
					1
				],
				"metallicFactor":0,
				"roughnessFactor":0.5
			}
		},
		{
			"doubleSided":true,
			"name":"DarkGrey",
			"pbrMetallicRoughness":{
				"baseColorFactor":[
					0.23954731225967407,
					0.23954731225967407,
					0.23954731225967407,
					1
				],
				"metallicFactor":0,
				"roughnessFactor":0.5
			}
		}
	],
	"meshes":[
		{
			"name":"Cube.005",
			"primitives":[
				{
					"attributes":{
						"POSITION":0,
						"NORMAL":1
					},
					"indices":2,
					"material":0
				},
				{
					"attributes":{
						"POSITION":3,
						"NORMAL":4
					},
					"indices":5,
					"material":1
				},
				{
					"attributes":{
						"POSITION":6,
						"NORMAL":7
					},
					"indices":8,
					"material":2
				}
			]
		}
	],
	"accessors":[
		{
			"bufferView":0,
			"componentType":5126,
			"count":448,
			"max":[
				1.0044718980789185,
				3.1102070808410645,
				0.4053950011730194
			],
			"min":[
				-1.0044718980789185,
				0.0035080909729003906,
				-0.4053950011730194
			],
			"type":"VEC3"
		},
		{
			"bufferView":1,
			"componentType":5126,
			"count":448,
			"type":"VEC3"
		},
		{
			"bufferView":2,
			"componentType":5123,
			"count":768,
			"type":"SCALAR"
		},
		{
			"bufferView":3,
			"componentType":5126,
			"count":440,
			"max":[
				1.028458595275879,
				2.8673152923583984,
				0.38427215814590454
			],
			"min":[
				-1.028458595275879,
				0.3885594308376312,
				-0.38427215814590454
			],
			"type":"VEC3"
		},
		{
			"bufferView":4,
			"componentType":5126,
			"count":440,
			"type":"VEC3"
		},
		{
			"bufferView":5,
			"componentType":5123,
			"count":780,
			"type":"SCALAR"
		},
		{
			"bufferView":6,
			"componentType":5126,
			"count":40,
			"max":[
				0.9838398694992065,
				2.850524425506592,
				0.34593620896339417
			],
			"min":[
				-0.9838398694992065,
				0.41267213225364685,
				-0.34593620896339417
			],
			"type":"VEC3"
		},
		{
			"bufferView":7,
			"componentType":5126,
			"count":40,
			"type":"VEC3"
		},
		{
			"bufferView":8,
			"componentType":5123,
			"count":60,
			"type":"SCALAR"
		}
	],
	"bufferViews":[
		{
			"buffer":0,
			"byteLength":5376,
			"byteOffset":0,
			"target":34962
		},
		{
			"buffer":0,
			"byteLength":5376,
			"byteOffset":5376,
			"target":34962
		},
		{
			"buffer":0,
			"byteLength":1536,
			"byteOffset":10752,
			"target":34963
		},
		{
			"buffer":0,
			"byteLength":5280,
			"byteOffset":12288,
			"target":34962
		},
		{
			"buffer":0,
			"byteLength":5280,
			"byteOffset":17568,
			"target":34962
		},
		{
			"buffer":0,
			"byteLength":1560,
			"byteOffset":22848,
			"target":34963
		},
		{
			"buffer":0,
			"byteLength":480,
			"byteOffset":24408,
			"target":34962
		},
		{
			"buffer":0,
			"byteLength":480,
			"byteOffset":24888,
			"target":34962
		},
		{
			"buffer":0,
			"byteLength":120,
			"byteOffset":25368,
			"target":34963
		}
	],
	"buffers":[
		{
			"byteLength":25488,
			"uri":"Props_Shelf_Tall-60f80a2d9ff57cc1f8f6629abf9337d7.bin"
		}
	]
}
