{
	"asset":{
		"generator":"Khronos glTF Blender I/O v5.0.21",
		"version":"2.0"
	},
	"scene":0,
	"scenes":[
		{
			"name":"Scene",
			"nodes":[
				0
			]
		}
	],
	"nodes":[
		{
			"mesh":0,
			"name":"Props_Statue"
		}
	],
	"materials":[
		{
			"doubleSided":true,
			"name":"Main",
			"pbrMetallicRoughness":{
				"baseColorFactor":[
					0.40196332335472107,
					0.40196332335472107,
					0.40196332335472107,
					1
				],
				"metallicFactor":0,
				"roughnessFactor":0.5
			}
		},
		{
			"doubleSided":true,
			"name":"DarkGrey",
			"pbrMetallicRoughness":{
				"baseColorFactor":[
					0.23954731225967407,
					0.23954731225967407,
					0.23954731225967407,
					1
				],
				"metallicFactor":0,
				"roughnessFactor":0.5
			}
		},
		{
			"doubleSided":true,
			"name":"Accent",
			"pbrMetallicRoughness":{
				"baseColorFactor":[
					0.559592604637146,
					0.29767245054244995,
					0.06678982824087143,
					1
				],
				"metallicFactor":0,
				"roughnessFactor":0.5
			}
		}
	],
	"meshes":[
		{
			"name":"Cylinder.012",
			"primitives":[
				{
					"attributes":{
						"POSITION":0,
						"NORMAL":1
					},
					"indices":2,
					"material":0
				},
				{
					"attributes":{
						"POSITION":3,
						"NORMAL":4
					},
					"indices":5,
					"material":1
				},
				{
					"attributes":{
						"POSITION":6,
						"NORMAL":7
					},
					"indices":8,
					"material":2
				}
			]
		}
	],
	"accessors":[
		{
			"bufferView":0,
			"componentType":5126,
			"count":636,
			"max":[
				0.37341222167015076,
				2.292632818222046,
				0.3730175793170929
			],
			"min":[
				-0.37281423807144165,
				0.20363865792751312,
				-0.37301942706108093
			],
			"type":"VEC3"
		},
		{
			"bufferView":1,
			"componentType":5126,
			"count":636,
			"type":"VEC3"
		},
		{
			"bufferView":2,
			"componentType":5123,
			"count":1038,
			"type":"SCALAR"
		},
		{
			"bufferView":3,
			"componentType":5126,
			"count":680,
			"max":[
				0.5700448751449585,
				2.611198902130127,
				0.727057695388794
			],
			"min":[
				-0.589161217212677,
				0.0013907277025282383,
				-0.7368044853210449
			],
			"type":"VEC3"
		},
		{
			"bufferView":4,
			"componentType":5126,
			"count":680,
			"type":"VEC3"
		},
		{
			"bufferView":5,
			"componentType":5123,
			"count":1074,
			"type":"SCALAR"
		},
		{
			"bufferView":6,
			"componentType":5126,
			"count":848,
			"max":[
				0.5826787948608398,
				2.368441343307495,
				0.5944933295249939
			],
			"min":[
				-0.6022037267684937,
				0.3569534718990326,
				-0.5903895497322083
			],
			"type":"VEC3"
		},
		{
			"bufferView":7,
			"componentType":5126,
			"count":848,
			"type":"VEC3"
		},
		{
			"bufferView":8,
			"componentType":5123,
			"count":1272,
			"type":"SCALAR"
		}
	],
	"bufferViews":[
		{
			"buffer":0,
			"byteLength":7632,
			"byteOffset":0,
			"target":34962
		},
		{
			"buffer":0,
			"byteLength":7632,
			"byteOffset":7632,
			"target":34962
		},
		{
			"buffer":0,
			"byteLength":2076,
			"byteOffset":15264,
			"target":34963
		},
		{
			"buffer":0,
			"byteLength":8160,
			"byteOffset":17340,
			"target":34962
		},
		{
			"buffer":0,
			"byteLength":8160,
			"byteOffset":25500,
			"target":34962
		},
		{
			"buffer":0,
			"byteLength":2148,
			"byteOffset":33660,
			"target":34963
		},
		{
			"buffer":0,
			"byteLength":10176,
			"byteOffset":35808,
			"target":34962
		},
		{
			"buffer":0,
			"byteLength":10176,
			"byteOffset":45984,
			"target":34962
		},
		{
			"buffer":0,
			"byteLength":2544,
			"byteOffset":56160,
			"target":34963
		}
	],
	"buffers":[
		{
			"byteLength":58704,
			"uri":"Props_Statue-e7734cc2d5275d4ab170adeb339dda4d.bin"
		}
	]
}
