{
	"asset":{
		"generator":"Khronos glTF Blender I/O v5.0.21",
		"version":"2.0"
	},
	"scene":0,
	"scenes":[
		{
			"name":"Scene",
			"nodes":[
				0
			]
		}
	],
	"nodes":[
		{
			"mesh":0,
			"name":"Props_Teleporter_1"
		}
	],
	"materials":[
		{
			"doubleSided":true,
			"name":"Main",
			"pbrMetallicRoughness":{
				"baseColorFactor":[
					0.40196332335472107,
					0.40196332335472107,
					0.40196332335472107,
					1
				],
				"metallicFactor":0,
				"roughnessFactor":0.5
			}
		},
		{
			"doubleSided":true,
			"name":"DarkGrey",
			"pbrMetallicRoughness":{
				"baseColorFactor":[
					0.23954731225967407,
					0.23954731225967407,
					0.23954731225967407,
					1
				],
				"metallicFactor":0,
				"roughnessFactor":0.5
			}
		},
		{
			"doubleSided":true,
			"name":"Accent",
			"pbrMetallicRoughness":{
				"baseColorFactor":[
					0.559592604637146,
					0.29767245054244995,
					0.06678982824087143,
					1
				],
				"metallicFactor":0,
				"roughnessFactor":0.5
			}
		}
	],
	"meshes":[
		{
			"name":"Cylinder.011",
			"primitives":[
				{
					"attributes":{
						"POSITION":0,
						"NORMAL":1
					},
					"indices":2,
					"material":0
				},
				{
					"attributes":{
						"POSITION":3,
						"NORMAL":4
					},
					"indices":5,
					"material":1
				},
				{
					"attributes":{
						"POSITION":6,
						"NORMAL":7
					},
					"indices":8,
					"material":2
				}
			]
		}
	],
	"accessors":[
		{
			"bufferView":0,
			"componentType":5126,
			"count":376,
			"max":[
				0.6028957366943359,
				0.5649011135101318,
				0.6028947830200195
			],
			"min":[
				-0.6028938889503479,
				-0.004148006439208984,
				-0.6028949022293091
			],
			"type":"VEC3"
		},
		{
			"bufferView":1,
			"componentType":5126,
			"count":376,
			"type":"VEC3"
		},
		{
			"bufferView":2,
			"componentType":5123,
			"count":636,
			"type":"SCALAR"
		},
		{
			"bufferView":3,
			"componentType":5126,
			"count":520,
			"max":[
				0.5906358361244202,
				0.8817253112792969,
				0.5906350016593933
			],
			"min":[
				-0.5906341671943665,
				0.1385272741317749,
				-0.5906351208686829
			],
			"type":"VEC3"
		},
		{
			"bufferView":4,
			"componentType":5126,
			"count":520,
			"type":"VEC3"
		},
		{
			"bufferView":5,
			"componentType":5123,
			"count":828,
			"type":"SCALAR"
		},
		{
			"bufferView":6,
			"componentType":5126,
			"count":380,
			"max":[
				0.5424304604530334,
				0.9003839492797852,
				0.5424288511276245
			],
			"min":[
				-0.5424278974533081,
				0.20712962746620178,
				-0.5424293279647827
			],
			"type":"VEC3"
		},
		{
			"bufferView":7,
			"componentType":5126,
			"count":380,
			"type":"VEC3"
		},
		{
			"bufferView":8,
			"componentType":5123,
			"count":600,
			"type":"SCALAR"
		}
	],
	"bufferViews":[
		{
			"buffer":0,
			"byteLength":4512,
			"byteOffset":0,
			"target":34962
		},
		{
			"buffer":0,
			"byteLength":4512,
			"byteOffset":4512,
			"target":34962
		},
		{
			"buffer":0,
			"byteLength":1272,
			"byteOffset":9024,
			"target":34963
		},
		{
			"buffer":0,
			"byteLength":6240,
			"byteOffset":10296,
			"target":34962
		},
		{
			"buffer":0,
			"byteLength":6240,
			"byteOffset":16536,
			"target":34962
		},
		{
			"buffer":0,
			"byteLength":1656,
			"byteOffset":22776,
			"target":34963
		},
		{
			"buffer":0,
			"byteLength":4560,
			"byteOffset":24432,
			"target":34962
		},
		{
			"buffer":0,
			"byteLength":4560,
			"byteOffset":28992,
			"target":34962
		},
		{
			"buffer":0,
			"byteLength":1200,
			"byteOffset":33552,
			"target":34963
		}
	],
	"buffers":[
		{
			"byteLength":34752,
			"uri":"Props_Teleporter_1-d2efacfb8ec695ed3fb1c98b84bee35f.bin"
		}
	]
}
