{
	"asset":{
		"generator":"Khronos glTF Blender I/O v5.0.21",
		"version":"2.0"
	},
	"scene":0,
	"scenes":[
		{
			"name":"Scene",
			"nodes":[
				0,
				1
			]
		}
	],
	"nodes":[
		{
			"mesh":0,
			"name":"Props_ChestBottom"
		},
		{
			"mesh":1,
			"name":"Props_ChestTop",
			"translation":[
				0,
				0.6004564166069031,
				-0.3701176643371582
			]
		}
	],
	"materials":[
		{
			"doubleSided":true,
			"name":"Main",
			"pbrMetallicRoughness":{
				"baseColorFactor":[
					0.40196332335472107,
					0.40196332335472107,
					0.40196332335472107,
					1
				],
				"metallicFactor":0,
				"roughnessFactor":0.5
			}
		},
		{
			"doubleSided":true,
			"name":"Accent",
			"pbrMetallicRoughness":{
				"baseColorFactor":[
					0.559592604637146,
					0.29767245054244995,
					0.06678982824087143,
					1
				],
				"metallicFactor":0,
				"roughnessFactor":0.5
			}
		},
		{
			"doubleSided":true,
			"name":"DarkGrey",
			"pbrMetallicRoughness":{
				"baseColorFactor":[
					0.23954731225967407,
					0.23954731225967407,
					0.23954731225967407,
					1
				],
				"metallicFactor":0,
				"roughnessFactor":0.5
			}
		},
		{
			"doubleSided":true,
			"name":"DarkAccent",
			"pbrMetallicRoughness":{
				"baseColorFactor":[
					0.226578950881958,
					0.12337818741798401,
					0.030147360637784004,
					1
				],
				"metallicFactor":0,
				"roughnessFactor":0.5
			}
		},
		{
			"doubleSided":true,
			"name":"Black",
			"pbrMetallicRoughness":{
				"baseColorFactor":[
					0.04202548414468765,
					0.04202548414468765,
					0.04202548414468765,
					1
				],
				"metallicFactor":0,
				"roughnessFactor":0.5
			}
		}
	],
	"meshes":[
		{
			"name":"Cube.022",
			"primitives":[
				{
					"attributes":{
						"POSITION":0,
						"NORMAL":1
					},
					"indices":2,
					"material":0
				},
				{
					"attributes":{
						"POSITION":3,
						"NORMAL":4
					},
					"indices":5,
					"material":1
				},
				{
					"attributes":{
						"POSITION":6,
						"NORMAL":7
					},
					"indices":8,
					"material":2
				},
				{
					"attributes":{
						"POSITION":9,
						"NORMAL":10
					},
					"indices":11,
					"material":3
				},
				{
					"attributes":{
						"POSITION":12,
						"NORMAL":13
					},
					"indices":14,
					"material":4
				}
			]
		},
		{
			"name":"Cube.024",
			"primitives":[
				{
					"attributes":{
						"POSITION":15,
						"NORMAL":16
					},
					"indices":17,
					"material":0
				},
				{
					"attributes":{
						"POSITION":18,
						"NORMAL":19
					},
					"indices":20,
					"material":1
				},
				{
					"attributes":{
						"POSITION":21,
						"NORMAL":22
					},
					"indices":23,
					"material":2
				},
				{
					"attributes":{
						"POSITION":24,
						"NORMAL":25
					},
					"indices":26,
					"material":3
				},
				{
					"attributes":{
						"POSITION":27,
						"NORMAL":28
					},
					"indices":29,
					"material":4
				}
			]
		}
	],
	"accessors":[
		{
			"bufferView":0,
			"componentType":5126,
			"count":1823,
			"max":[
				0.6331607699394226,
				0.6284012198448181,
				0.39953458309173584
			],
			"min":[
				-0.6388657689094543,
				0.004513084888458252,
				-0.3999265432357788
			],
			"type":"VEC3"
		},
		{
			"bufferView":1,
			"componentType":5126,
			"count":1823,
			"type":"VEC3"
		},
		{
			"bufferView":2,
			"componentType":5123,
			"count":3192,
			"type":"SCALAR"
		},
		{
			"bufferView":3,
			"componentType":5126,
			"count":760,
			"max":[
				0.6216381192207336,
				0.5731011629104614,
				0.3911973834037781
			],
			"min":[
				-0.6273430585861206,
				0.012852758169174194,
				-0.3915844261646271
			],
			"type":"VEC3"
		},
		{
			"bufferView":4,
			"componentType":5126,
			"count":760,
			"type":"VEC3"
		},
		{
			"bufferView":5,
			"componentType":5123,
			"count":1524,
			"type":"SCALAR"
		},
		{
			"bufferView":6,
			"componentType":5126,
			"count":44,
			"max":[
				0.4305174946784973,
				0.14776548743247986,
				0.3726937472820282
			],
			"min":[
				-0.43622228503227234,
				0.03137767314910889,
				-0.3730382025241852
			],
			"type":"VEC3"
		},
		{
			"bufferView":7,
			"componentType":5126,
			"count":44,
			"type":"VEC3"
		},
		{
			"bufferView":8,
			"componentType":5123,
			"count":72,
			"type":"SCALAR"
		},
		{
			"bufferView":9,
			"componentType":5126,
			"count":2928,
			"max":[
				0.643799364566803,
				0.6003481149673462,
				0.4025929868221283
			],
			"min":[
				-0.6437994837760925,
				0.043581411242485046,
				-0.4025929868221283
			],
			"type":"VEC3"
		},
		{
			"bufferView":10,
			"componentType":5126,
			"count":2928,
			"type":"VEC3"
		},
		{
			"bufferView":11,
			"componentType":5123,
			"count":4836,
			"type":"SCALAR"
		},
		{
			"bufferView":12,
			"componentType":5126,
			"count":124,
			"max":[
				0.6046215295791626,
				0.4709264039993286,
				0.33895477652549744
			],
			"min":[
				-0.6103264093399048,
				0.0650930404663086,
				-0.33934664726257324
			],
			"type":"VEC3"
		},
		{
			"bufferView":13,
			"componentType":5126,
			"count":124,
			"type":"VEC3"
		},
		{
			"bufferView":14,
			"componentType":5123,
			"count":306,
			"type":"SCALAR"
		},
		{
			"bufferView":15,
			"componentType":5126,
			"count":1802,
			"max":[
				0.6331607103347778,
				0.3150631785392761,
				0.7666072249412537
			],
			"min":[
				-0.6388657093048096,
				0.027246443554759026,
				-0.0328538604080677
			],
			"type":"VEC3"
		},
		{
			"bufferView":16,
			"componentType":5126,
			"count":1802,
			"type":"VEC3"
		},
		{
			"bufferView":17,
			"componentType":5123,
			"count":3156,
			"type":"SCALAR"
		},
		{
			"bufferView":18,
			"componentType":5126,
			"count":296,
			"max":[
				0.6202460527420044,
				0.31036755442619324,
				0.7582700252532959
			],
			"min":[
				-0.6259509921073914,
				0.027246447280049324,
				-0.02451176382601261
			],
			"type":"VEC3"
		},
		{
			"bufferView":19,
			"componentType":5126,
			"count":296,
			"type":"VEC3"
		},
		{
			"bufferView":20,
			"componentType":5123,
			"count":564,
			"type":"SCALAR"
		},
		{
			"bufferView":21,
			"componentType":5126,
			"count":44,
			"max":[
				0.43051737546920776,
				0.2999371886253357,
				0.7397664189338684
			],
			"min":[
				-0.4362223744392395,
				0.23440545797348022,
				-0.0059655578806996346
			],
			"type":"VEC3"
		},
		{
			"bufferView":22,
			"componentType":5126,
			"count":44,
			"type":"VEC3"
		},
		{
			"bufferView":23,
			"componentType":5123,
			"count":72,
			"type":"SCALAR"
		},
		{
			"bufferView":24,
			"componentType":5126,
			"count":592,
			"max":[
				0.6437994837760925,
				0.2930659055709839,
				0.7696655988693237
			],
			"min":[
				-0.643799364566803,
				-2.729245522914425e-07,
				-0.03552032262086868
			],
			"type":"VEC3"
		},
		{
			"bufferView":25,
			"componentType":5126,
			"count":592,
			"type":"VEC3"
		},
		{
			"bufferView":26,
			"componentType":5123,
			"count":1260,
			"type":"SCALAR"
		},
		{
			"bufferView":27,
			"componentType":5126,
			"count":36,
			"max":[
				0.32271385192871094,
				0.28095391392707825,
				0.5462470650672913
			],
			"min":[
				-0.33268919587135315,
				0.2809537351131439,
				0.19061771035194397
			],
			"type":"VEC3"
		},
		{
			"bufferView":28,
			"componentType":5126,
			"count":36,
			"type":"VEC3"
		},
		{
			"bufferView":29,
			"componentType":5123,
			"count":90,
			"type":"SCALAR"
		}
	],
	"bufferViews":[
		{
			"buffer":0,
			"byteLength":21876,
			"byteOffset":0,
			"target":34962
		},
		{
			"buffer":0,
			"byteLength":21876,
			"byteOffset":21876,
			"target":34962
		},
		{
			"buffer":0,
			"byteLength":6384,
			"byteOffset":43752,
			"target":34963
		},
		{
			"buffer":0,
			"byteLength":9120,
			"byteOffset":50136,
			"target":34962
		},
		{
			"buffer":0,
			"byteLength":9120,
			"byteOffset":59256,
			"target":34962
		},
		{
			"buffer":0,
			"byteLength":3048,
			"byteOffset":68376,
			"target":34963
		},
		{
			"buffer":0,
			"byteLength":528,
			"byteOffset":71424,
			"target":34962
		},
		{
			"buffer":0,
			"byteLength":528,
			"byteOffset":71952,
			"target":34962
		},
		{
			"buffer":0,
			"byteLength":144,
			"byteOffset":72480,
			"target":34963
		},
		{
			"buffer":0,
			"byteLength":35136,
			"byteOffset":72624,
			"target":34962
		},
		{
			"buffer":0,
			"byteLength":35136,
			"byteOffset":107760,
			"target":34962
		},
		{
			"buffer":0,
			"byteLength":9672,
			"byteOffset":142896,
			"target":34963
		},
		{
			"buffer":0,
			"byteLength":1488,
			"byteOffset":152568,
			"target":34962
		},
		{
			"buffer":0,
			"byteLength":1488,
			"byteOffset":154056,
			"target":34962
		},
		{
			"buffer":0,
			"byteLength":612,
			"byteOffset":155544,
			"target":34963
		},
		{
			"buffer":0,
			"byteLength":21624,
			"byteOffset":156156,
			"target":34962
		},
		{
			"buffer":0,
			"byteLength":21624,
			"byteOffset":177780,
			"target":34962
		},
		{
			"buffer":0,
			"byteLength":6312,
			"byteOffset":199404,
			"target":34963
		},
		{
			"buffer":0,
			"byteLength":3552,
			"byteOffset":205716,
			"target":34962
		},
		{
			"buffer":0,
			"byteLength":3552,
			"byteOffset":209268,
			"target":34962
		},
		{
			"buffer":0,
			"byteLength":1128,
			"byteOffset":212820,
			"target":34963
		},
		{
			"buffer":0,
			"byteLength":528,
			"byteOffset":213948,
			"target":34962
		},
		{
			"buffer":0,
			"byteLength":528,
			"byteOffset":214476,
			"target":34962
		},
		{
			"buffer":0,
			"byteLength":144,
			"byteOffset":215004,
			"target":34963
		},
		{
			"buffer":0,
			"byteLength":7104,
			"byteOffset":215148,
			"target":34962
		},
		{
			"buffer":0,
			"byteLength":7104,
			"byteOffset":222252,
			"target":34962
		},
		{
			"buffer":0,
			"byteLength":2520,
			"byteOffset":229356,
			"target":34963
		},
		{
			"buffer":0,
			"byteLength":432,
			"byteOffset":231876,
			"target":34962
		},
		{
			"buffer":0,
			"byteLength":432,
			"byteOffset":232308,
			"target":34962
		},
		{
			"buffer":0,
			"byteLength":180,
			"byteOffset":232740,
			"target":34963
		}
	],
	"buffers":[
		{
			"byteLength":232920,
			"uri":"Props_Chest-d3015b1d8a8f2f4a35cc212912019800.bin"
		}
	]
}
