{
	"asset":{
		"generator":"Khronos glTF Blender I/O v5.0.21",
		"version":"2.0"
	},
	"scene":0,
	"scenes":[
		{
			"name":"Scene",
			"nodes":[
				0
			]
		}
	],
	"nodes":[
		{
			"mesh":0,
			"name":"Props_Computer"
		}
	],
	"materials":[
		{
			"doubleSided":true,
			"name":"Main",
			"pbrMetallicRoughness":{
				"baseColorFactor":[
					0.40196332335472107,
					0.40196332335472107,
					0.40196332335472107,
					1
				],
				"metallicFactor":0,
				"roughnessFactor":0.5
			}
		},
		{
			"doubleSided":true,
			"name":"DarkGrey",
			"pbrMetallicRoughness":{
				"baseColorFactor":[
					0.23954731225967407,
					0.23954731225967407,
					0.23954731225967407,
					1
				],
				"metallicFactor":0,
				"roughnessFactor":0.5
			}
		},
		{
			"doubleSided":true,
			"name":"Black",
			"pbrMetallicRoughness":{
				"baseColorFactor":[
					0.04202548414468765,
					0.04202548414468765,
					0.04202548414468765,
					1
				],
				"metallicFactor":0,
				"roughnessFactor":0.5
			}
		},
		{
			"doubleSided":true,
			"name":"Accent",
			"pbrMetallicRoughness":{
				"baseColorFactor":[
					0.559592604637146,
					0.29767245054244995,
					0.06678982824087143,
					1
				],
				"metallicFactor":0,
				"roughnessFactor":0.5
			}
		},
		{
			"doubleSided":true,
			"name":"DarkAccent",
			"pbrMetallicRoughness":{
				"baseColorFactor":[
					0.226578950881958,
					0.12337818741798401,
					0.030147360637784004,
					1
				],
				"metallicFactor":0,
				"roughnessFactor":0.5
			}
		}
	],
	"meshes":[
		{
			"name":"Cube.028",
			"primitives":[
				{
					"attributes":{
						"POSITION":0,
						"NORMAL":1,
						"TEXCOORD_0":2
					},
					"indices":3,
					"material":0
				},
				{
					"attributes":{
						"POSITION":4,
						"NORMAL":5,
						"TEXCOORD_0":6
					},
					"indices":7,
					"material":1
				},
				{
					"attributes":{
						"POSITION":8,
						"NORMAL":9,
						"TEXCOORD_0":10
					},
					"indices":11,
					"material":2
				},
				{
					"attributes":{
						"POSITION":12,
						"NORMAL":13,
						"TEXCOORD_0":14
					},
					"indices":15,
					"material":3
				},
				{
					"attributes":{
						"POSITION":16,
						"NORMAL":17,
						"TEXCOORD_0":18
					},
					"indices":19,
					"material":4
				}
			]
		}
	],
	"accessors":[
		{
			"bufferView":0,
			"componentType":5126,
			"count":144,
			"max":[
				0.26128190755844116,
				1.6695014238357544,
				0.21737414598464966
			],
			"min":[
				-0.26128190755844116,
				-0.00037142279325053096,
				-0.09129323065280914
			],
			"type":"VEC3"
		},
		{
			"bufferView":1,
			"componentType":5126,
			"count":144,
			"type":"VEC3"
		},
		{
			"bufferView":2,
			"componentType":5126,
			"count":144,
			"type":"VEC2"
		},
		{
			"bufferView":3,
			"componentType":5123,
			"count":372,
			"type":"SCALAR"
		},
		{
			"bufferView":4,
			"componentType":5126,
			"count":128,
			"max":[
				0.290206640958786,
				2.0641183853149414,
				0.37921661138534546
			],
			"min":[
				-0.290206640958786,
				-0.0041689444333314896,
				-0.24162398278713226
			],
			"type":"VEC3"
		},
		{
			"bufferView":5,
			"componentType":5126,
			"count":128,
			"type":"VEC3"
		},
		{
			"bufferView":6,
			"componentType":5126,
			"count":128,
			"type":"VEC2"
		},
		{
			"bufferView":7,
			"componentType":5123,
			"count":234,
			"type":"SCALAR"
		},
		{
			"bufferView":8,
			"componentType":5126,
			"count":20,
			"max":[
				0.2708589732646942,
				2.0370635986328125,
				0.3796837627887726
			],
			"min":[
				-0.2708589732646942,
				0.2673971354961395,
				-0.063416987657547
			],
			"type":"VEC3"
		},
		{
			"bufferView":9,
			"componentType":5126,
			"count":20,
			"type":"VEC3"
		},
		{
			"bufferView":10,
			"componentType":5126,
			"count":20,
			"type":"VEC2"
		},
		{
			"bufferView":11,
			"componentType":5123,
			"count":42,
			"type":"SCALAR"
		},
		{
			"bufferView":12,
			"componentType":5126,
			"count":454,
			"max":[
				0.2864457368850708,
				2.0753161907196045,
				0.40245193243026733
			],
			"min":[
				-0.2864457368850708,
				0.22051902115345,
				-0.11723018437623978
			],
			"type":"VEC3"
		},
		{
			"bufferView":13,
			"componentType":5126,
			"count":454,
			"type":"VEC3"
		},
		{
			"bufferView":14,
			"componentType":5126,
			"count":454,
			"type":"VEC2"
		},
		{
			"bufferView":15,
			"componentType":5123,
			"count":888,
			"type":"SCALAR"
		},
		{
			"bufferView":16,
			"componentType":5126,
			"count":224,
			"max":[
				0.2788841724395752,
				0.41931673884391785,
				0.09348475933074951
			],
			"min":[
				-0.2788841724395752,
				0.2716293931007385,
				-0.07602860033512115
			],
			"type":"VEC3"
		},
		{
			"bufferView":17,
			"componentType":5126,
			"count":224,
			"type":"VEC3"
		},
		{
			"bufferView":18,
			"componentType":5126,
			"count":224,
			"type":"VEC2"
		},
		{
			"bufferView":19,
			"componentType":5123,
			"count":336,
			"type":"SCALAR"
		}
	],
	"bufferViews":[
		{
			"buffer":0,
			"byteLength":1728,
			"byteOffset":0,
			"target":34962
		},
		{
			"buffer":0,
			"byteLength":1728,
			"byteOffset":1728,
			"target":34962
		},
		{
			"buffer":0,
			"byteLength":1152,
			"byteOffset":3456,
			"target":34962
		},
		{
			"buffer":0,
			"byteLength":744,
			"byteOffset":4608,
			"target":34963
		},
		{
			"buffer":0,
			"byteLength":1536,
			"byteOffset":5352,
			"target":34962
		},
		{
			"buffer":0,
			"byteLength":1536,
			"byteOffset":6888,
			"target":34962
		},
		{
			"buffer":0,
			"byteLength":1024,
			"byteOffset":8424,
			"target":34962
		},
		{
			"buffer":0,
			"byteLength":468,
			"byteOffset":9448,
			"target":34963
		},
		{
			"buffer":0,
			"byteLength":240,
			"byteOffset":9916,
			"target":34962
		},
		{
			"buffer":0,
			"byteLength":240,
			"byteOffset":10156,
			"target":34962
		},
		{
			"buffer":0,
			"byteLength":160,
			"byteOffset":10396,
			"target":34962
		},
		{
			"buffer":0,
			"byteLength":84,
			"byteOffset":10556,
			"target":34963
		},
		{
			"buffer":0,
			"byteLength":5448,
			"byteOffset":10640,
			"target":34962
		},
		{
			"buffer":0,
			"byteLength":5448,
			"byteOffset":16088,
			"target":34962
		},
		{
			"buffer":0,
			"byteLength":3632,
			"byteOffset":21536,
			"target":34962
		},
		{
			"buffer":0,
			"byteLength":1776,
			"byteOffset":25168,
			"target":34963
		},
		{
			"buffer":0,
			"byteLength":2688,
			"byteOffset":26944,
			"target":34962
		},
		{
			"buffer":0,
			"byteLength":2688,
			"byteOffset":29632,
			"target":34962
		},
		{
			"buffer":0,
			"byteLength":1792,
			"byteOffset":32320,
			"target":34962
		},
		{
			"buffer":0,
			"byteLength":672,
			"byteOffset":34112,
			"target":34963
		}
	],
	"buffers":[
		{
			"byteLength":34784,
			"uri":"Props_Computer-ca8d3c5747c766e38e15e419557a574f.bin"
		}
	]
}
