{
	"asset":{
		"generator":"Khronos glTF Blender I/O v5.0.21",
		"version":"2.0"
	},
	"scene":0,
	"scenes":[
		{
			"name":"Scene",
			"nodes":[
				0
			]
		}
	],
	"nodes":[
		{
			"mesh":0,
			"name":"Props_Shelf"
		}
	],
	"materials":[
		{
			"doubleSided":true,
			"name":"Accent",
			"pbrMetallicRoughness":{
				"baseColorFactor":[
					0.559592604637146,
					0.29767245054244995,
					0.06678982824087143,
					1
				],
				"metallicFactor":0,
				"roughnessFactor":0.5
			}
		},
		{
			"doubleSided":true,
			"name":"Main",
			"pbrMetallicRoughness":{
				"baseColorFactor":[
					0.40196332335472107,
					0.40196332335472107,
					0.40196332335472107,
					1
				],
				"metallicFactor":0,
				"roughnessFactor":0.5
			}
		},
		{
			"doubleSided":true,
			"name":"DarkGrey",
			"pbrMetallicRoughness":{
				"baseColorFactor":[
					0.23954731225967407,
					0.23954731225967407,
					0.23954731225967407,
					1
				],
				"metallicFactor":0,
				"roughnessFactor":0.5
			}
		}
	],
	"meshes":[
		{
			"name":"Cube.001",
			"primitives":[
				{
					"attributes":{
						"POSITION":0,
						"NORMAL":1
					},
					"indices":2,
					"material":0
				},
				{
					"attributes":{
						"POSITION":3,
						"NORMAL":4
					},
					"indices":5,
					"material":1
				},
				{
					"attributes":{
						"POSITION":6,
						"NORMAL":7
					},
					"indices":8,
					"material":2
				}
			]
		}
	],
	"accessors":[
		{
			"bufferView":0,
			"componentType":5126,
			"count":448,
			"max":[
				0.8697828054428101,
				2.5035810470581055,
				0.4053950011730194
			],
			"min":[
				-0.8697828054428101,
				0.0035080909729003906,
				-0.4053950011730194
			],
			"type":"VEC3"
		},
		{
			"bufferView":1,
			"componentType":5126,
			"count":448,
			"type":"VEC3"
		},
		{
			"bufferView":2,
			"componentType":5123,
			"count":768,
			"type":"SCALAR"
		},
		{
			"bufferView":3,
			"componentType":5126,
			"count":176,
			"max":[
				0.8944985866546631,
				2.2513957023620605,
				0.38427215814590454
			],
			"min":[
				-0.8944985866546631,
				0.3821028470993042,
				-0.38427215814590454
			],
			"type":"VEC3"
		},
		{
			"bufferView":4,
			"componentType":5126,
			"count":176,
			"type":"VEC3"
		},
		{
			"bufferView":5,
			"componentType":5123,
			"count":312,
			"type":"SCALAR"
		},
		{
			"bufferView":6,
			"componentType":5126,
			"count":16,
			"max":[
				0.8498798608779907,
				2.234604835510254,
				0.34593620896339417
			],
			"min":[
				-0.8498798608779907,
				0.4062155485153198,
				-0.34593620896339417
			],
			"type":"VEC3"
		},
		{
			"bufferView":7,
			"componentType":5126,
			"count":16,
			"type":"VEC3"
		},
		{
			"bufferView":8,
			"componentType":5123,
			"count":24,
			"type":"SCALAR"
		}
	],
	"bufferViews":[
		{
			"buffer":0,
			"byteLength":5376,
			"byteOffset":0,
			"target":34962
		},
		{
			"buffer":0,
			"byteLength":5376,
			"byteOffset":5376,
			"target":34962
		},
		{
			"buffer":0,
			"byteLength":1536,
			"byteOffset":10752,
			"target":34963
		},
		{
			"buffer":0,
			"byteLength":2112,
			"byteOffset":12288,
			"target":34962
		},
		{
			"buffer":0,
			"byteLength":2112,
			"byteOffset":14400,
			"target":34962
		},
		{
			"buffer":0,
			"byteLength":624,
			"byteOffset":16512,
			"target":34963
		},
		{
			"buffer":0,
			"byteLength":192,
			"byteOffset":17136,
			"target":34962
		},
		{
			"buffer":0,
			"byteLength":192,
			"byteOffset":17328,
			"target":34962
		},
		{
			"buffer":0,
			"byteLength":48,
			"byteOffset":17520,
			"target":34963
		}
	],
	"buffers":[
		{
			"byteLength":17568,
			"uri":"Props_Shelf-e023ff89a2265cc20d4e7811baf501b2.bin"
		}
	]
}
