{
	"asset":{
		"generator":"Khronos glTF Blender I/O v5.0.21",
		"version":"2.0"
	},
	"scene":0,
	"scenes":[
		{
			"name":"Scene",
			"nodes":[
				0
			]
		}
	],
	"nodes":[
		{
			"mesh":0,
			"name":"Props_Base"
		}
	],
	"materials":[
		{
			"doubleSided":true,
			"name":"Main",
			"pbrMetallicRoughness":{
				"baseColorFactor":[
					0.40196332335472107,
					0.40196332335472107,
					0.40196332335472107,
					1
				],
				"metallicFactor":0,
				"roughnessFactor":0.5
			}
		},
		{
			"doubleSided":true,
			"name":"Accent",
			"pbrMetallicRoughness":{
				"baseColorFactor":[
					0.559592604637146,
					0.29767245054244995,
					0.06678982824087143,
					1
				],
				"metallicFactor":0,
				"roughnessFactor":0.5
			}
		},
		{
			"doubleSided":true,
			"name":"DarkGrey",
			"pbrMetallicRoughness":{
				"baseColorFactor":[
					0.23954731225967407,
					0.23954731225967407,
					0.23954731225967407,
					1
				],
				"metallicFactor":0,
				"roughnessFactor":0.5
			}
		}
	],
	"meshes":[
		{
			"name":"Cylinder",
			"primitives":[
				{
					"attributes":{
						"POSITION":0,
						"NORMAL":1
					},
					"indices":2,
					"material":0
				},
				{
					"attributes":{
						"POSITION":3,
						"NORMAL":4
					},
					"indices":5,
					"material":1
				},
				{
					"attributes":{
						"POSITION":6,
						"NORMAL":7
					},
					"indices":8,
					"material":2
				}
			]
		}
	],
	"accessors":[
		{
			"bufferView":0,
			"componentType":5126,
			"count":464,
			"max":[
				1.1861885786056519,
				0.3204689919948578,
				1.1861884593963623
			],
			"min":[
				-1.1861884593963623,
				0.09492124617099762,
				-1.1861884593963623
			],
			"type":"VEC3"
		},
		{
			"bufferView":1,
			"componentType":5126,
			"count":464,
			"type":"VEC3"
		},
		{
			"bufferView":2,
			"componentType":5123,
			"count":714,
			"type":"SCALAR"
		},
		{
			"bufferView":3,
			"componentType":5126,
			"count":184,
			"max":[
				0.8413529992103577,
				0.28429436683654785,
				0.8413531184196472
			],
			"min":[
				-0.8413529992103577,
				0.005234836600720882,
				-0.8413532376289368
			],
			"type":"VEC3"
		},
		{
			"bufferView":4,
			"componentType":5126,
			"count":184,
			"type":"VEC3"
		},
		{
			"bufferView":5,
			"componentType":5123,
			"count":288,
			"type":"SCALAR"
		},
		{
			"bufferView":6,
			"componentType":5126,
			"count":364,
			"max":[
				1.1980234384536743,
				0.3091569244861603,
				1.1980234384536743
			],
			"min":[
				-1.1980234384536743,
				0.00015637213073205203,
				-1.1980234384536743
			],
			"type":"VEC3"
		},
		{
			"bufferView":7,
			"componentType":5126,
			"count":364,
			"type":"VEC3"
		},
		{
			"bufferView":8,
			"componentType":5123,
			"count":666,
			"type":"SCALAR"
		}
	],
	"bufferViews":[
		{
			"buffer":0,
			"byteLength":5568,
			"byteOffset":0,
			"target":34962
		},
		{
			"buffer":0,
			"byteLength":5568,
			"byteOffset":5568,
			"target":34962
		},
		{
			"buffer":0,
			"byteLength":1428,
			"byteOffset":11136,
			"target":34963
		},
		{
			"buffer":0,
			"byteLength":2208,
			"byteOffset":12564,
			"target":34962
		},
		{
			"buffer":0,
			"byteLength":2208,
			"byteOffset":14772,
			"target":34962
		},
		{
			"buffer":0,
			"byteLength":576,
			"byteOffset":16980,
			"target":34963
		},
		{
			"buffer":0,
			"byteLength":4368,
			"byteOffset":17556,
			"target":34962
		},
		{
			"buffer":0,
			"byteLength":4368,
			"byteOffset":21924,
			"target":34962
		},
		{
			"buffer":0,
			"byteLength":1332,
			"byteOffset":26292,
			"target":34963
		}
	],
	"buffers":[
		{
			"byteLength":27624,
			"uri":"Props_Base-99b1248362436b0fbdd2179af6c75e2d.bin"
		}
	]
}
