{
	"asset":{
		"generator":"Khronos glTF Blender I/O v5.0.21",
		"version":"2.0"
	},
	"scene":0,
	"scenes":[
		{
			"name":"Scene",
			"nodes":[
				0
			]
		}
	],
	"nodes":[
		{
			"mesh":0,
			"name":"Props_Vessel_Short"
		}
	],
	"materials":[
		{
			"doubleSided":true,
			"name":"Main",
			"pbrMetallicRoughness":{
				"baseColorFactor":[
					0.40196332335472107,
					0.40196332335472107,
					0.40196332335472107,
					1
				],
				"metallicFactor":0,
				"roughnessFactor":0.5
			}
		},
		{
			"doubleSided":true,
			"name":"Accent",
			"pbrMetallicRoughness":{
				"baseColorFactor":[
					0.559592604637146,
					0.29767245054244995,
					0.06678982824087143,
					1
				],
				"metallicFactor":0,
				"roughnessFactor":0.5
			}
		},
		{
			"doubleSided":true,
			"name":"DarkGrey",
			"pbrMetallicRoughness":{
				"baseColorFactor":[
					0.23954731225967407,
					0.23954731225967407,
					0.23954731225967407,
					1
				],
				"metallicFactor":0,
				"roughnessFactor":0.5
			}
		}
	],
	"meshes":[
		{
			"name":"Cube.034",
			"primitives":[
				{
					"attributes":{
						"POSITION":0,
						"NORMAL":1
					},
					"indices":2,
					"material":0
				},
				{
					"attributes":{
						"POSITION":3,
						"NORMAL":4
					},
					"indices":5,
					"material":1
				},
				{
					"attributes":{
						"POSITION":6,
						"NORMAL":7
					},
					"indices":8,
					"material":2
				}
			]
		}
	],
	"accessors":[
		{
			"bufferView":0,
			"componentType":5126,
			"count":416,
			"max":[
				0.1436549872159958,
				0.5312124490737915,
				0.14365491271018982
			],
			"min":[
				-0.1436549723148346,
				-0.006814628839492798,
				-0.14365489780902863
			],
			"type":"VEC3"
		},
		{
			"bufferView":1,
			"componentType":5126,
			"count":416,
			"type":"VEC3"
		},
		{
			"bufferView":2,
			"componentType":5123,
			"count":624,
			"type":"SCALAR"
		},
		{
			"bufferView":3,
			"componentType":5126,
			"count":64,
			"max":[
				0.13491223752498627,
				0.42128705978393555,
				0.13491219282150269
			],
			"min":[
				-0.13491225242614746,
				0.10311083495616913,
				-0.1349121779203415
			],
			"type":"VEC3"
		},
		{
			"bufferView":4,
			"componentType":5126,
			"count":64,
			"type":"VEC3"
		},
		{
			"bufferView":5,
			"componentType":5123,
			"count":96,
			"type":"SCALAR"
		},
		{
			"bufferView":6,
			"componentType":5126,
			"count":16,
			"max":[
				0.05932982638478279,
				0.511772871017456,
				0.05932974815368652
			],
			"min":[
				-0.059329789131879807,
				0.012625008821487427,
				-0.059329744428396225
			],
			"type":"VEC3"
		},
		{
			"bufferView":7,
			"componentType":5126,
			"count":16,
			"type":"VEC3"
		},
		{
			"bufferView":8,
			"componentType":5123,
			"count":36,
			"type":"SCALAR"
		}
	],
	"bufferViews":[
		{
			"buffer":0,
			"byteLength":4992,
			"byteOffset":0,
			"target":34962
		},
		{
			"buffer":0,
			"byteLength":4992,
			"byteOffset":4992,
			"target":34962
		},
		{
			"buffer":0,
			"byteLength":1248,
			"byteOffset":9984,
			"target":34963
		},
		{
			"buffer":0,
			"byteLength":768,
			"byteOffset":11232,
			"target":34962
		},
		{
			"buffer":0,
			"byteLength":768,
			"byteOffset":12000,
			"target":34962
		},
		{
			"buffer":0,
			"byteLength":192,
			"byteOffset":12768,
			"target":34963
		},
		{
			"buffer":0,
			"byteLength":192,
			"byteOffset":12960,
			"target":34962
		},
		{
			"buffer":0,
			"byteLength":192,
			"byteOffset":13152,
			"target":34962
		},
		{
			"buffer":0,
			"byteLength":72,
			"byteOffset":13344,
			"target":34963
		}
	],
	"buffers":[
		{
			"byteLength":13416,
			"uri":"Props_Vessel_Short-fbe6c9dcf8053f11adf9d7e1d066481c.bin"
		}
	]
}
