{
	"asset":{
		"generator":"Khronos glTF Blender I/O v5.0.21",
		"version":"2.0"
	},
	"scene":0,
	"scenes":[
		{
			"name":"Scene",
			"nodes":[
				0
			]
		}
	],
	"nodes":[
		{
			"mesh":0,
			"name":"Props_Pod"
		}
	],
	"materials":[
		{
			"doubleSided":true,
			"name":"Main",
			"pbrMetallicRoughness":{
				"baseColorFactor":[
					0.40196332335472107,
					0.40196332335472107,
					0.40196332335472107,
					1
				],
				"metallicFactor":0,
				"roughnessFactor":0.5
			}
		},
		{
			"doubleSided":true,
			"name":"DarkGrey",
			"pbrMetallicRoughness":{
				"baseColorFactor":[
					0.23954731225967407,
					0.23954731225967407,
					0.23954731225967407,
					1
				],
				"metallicFactor":0,
				"roughnessFactor":0.5
			}
		},
		{
			"doubleSided":true,
			"name":"Glass"
		},
		{
			"doubleSided":true,
			"name":"DarkAccent",
			"pbrMetallicRoughness":{
				"baseColorFactor":[
					0.226578950881958,
					0.12337818741798401,
					0.030147360637784004,
					1
				],
				"metallicFactor":0,
				"roughnessFactor":0.5
			}
		},
		{
			"doubleSided":true,
			"name":"Accent",
			"pbrMetallicRoughness":{
				"baseColorFactor":[
					0.559592604637146,
					0.29767245054244995,
					0.06678982824087143,
					1
				],
				"metallicFactor":0,
				"roughnessFactor":0.5
			}
		}
	],
	"meshes":[
		{
			"name":"Cube.003",
			"primitives":[
				{
					"attributes":{
						"POSITION":0,
						"NORMAL":1
					},
					"indices":2,
					"material":0
				},
				{
					"attributes":{
						"POSITION":3,
						"NORMAL":4
					},
					"indices":5,
					"material":1
				},
				{
					"attributes":{
						"POSITION":6,
						"NORMAL":7
					},
					"indices":8,
					"material":2
				},
				{
					"attributes":{
						"POSITION":9,
						"NORMAL":10
					},
					"indices":11,
					"material":3
				},
				{
					"attributes":{
						"POSITION":12,
						"NORMAL":13
					},
					"indices":14,
					"material":4
				}
			]
		}
	],
	"accessors":[
		{
			"bufferView":0,
			"componentType":5126,
			"count":2444,
			"max":[
				0.9049946069717407,
				3.614391803741455,
				0.9049946069717407
			],
			"min":[
				-0.9049944877624512,
				0.0019461726769804955,
				-0.9049943685531616
			],
			"type":"VEC3"
		},
		{
			"bufferView":1,
			"componentType":5126,
			"count":2444,
			"type":"VEC3"
		},
		{
			"bufferView":2,
			"componentType":5123,
			"count":3828,
			"type":"SCALAR"
		},
		{
			"bufferView":3,
			"componentType":5126,
			"count":488,
			"max":[
				0.9044718742370605,
				3.5787718296051025,
				0.7404612302780151
			],
			"min":[
				-0.904471755027771,
				0.01326522883027792,
				-0.9050779938697815
			],
			"type":"VEC3"
		},
		{
			"bufferView":4,
			"componentType":5126,
			"count":488,
			"type":"VEC3"
		},
		{
			"bufferView":5,
			"componentType":5123,
			"count":750,
			"type":"SCALAR"
		},
		{
			"bufferView":6,
			"componentType":5126,
			"count":120,
			"max":[
				0.6194989085197449,
				3.014833927154541,
				0.6194988489151001
			],
			"min":[
				-0.6194988489151001,
				0.5897484421730042,
				-0.6194988489151001
			],
			"type":"VEC3"
		},
		{
			"bufferView":7,
			"componentType":5126,
			"count":120,
			"type":"VEC3"
		},
		{
			"bufferView":8,
			"componentType":5123,
			"count":240,
			"type":"SCALAR"
		},
		{
			"bufferView":9,
			"componentType":5126,
			"count":720,
			"max":[
				0.8208770751953125,
				3.4178123474121094,
				0.8202708959579468
			],
			"min":[
				-0.8208770751953125,
				0.18677034974098206,
				-0.8214831948280334
			],
			"type":"VEC3"
		},
		{
			"bufferView":10,
			"componentType":5126,
			"count":720,
			"type":"VEC3"
		},
		{
			"bufferView":11,
			"componentType":5123,
			"count":1200,
			"type":"SCALAR"
		},
		{
			"bufferView":12,
			"componentType":5126,
			"count":424,
			"max":[
				0.6424027681350708,
				2.9195985794067383,
				0.6424028277397156
			],
			"min":[
				-0.6424027681350708,
				0.6849841475486755,
				-0.6424027681350708
			],
			"type":"VEC3"
		},
		{
			"bufferView":13,
			"componentType":5126,
			"count":424,
			"type":"VEC3"
		},
		{
			"bufferView":14,
			"componentType":5123,
			"count":720,
			"type":"SCALAR"
		}
	],
	"bufferViews":[
		{
			"buffer":0,
			"byteLength":29328,
			"byteOffset":0,
			"target":34962
		},
		{
			"buffer":0,
			"byteLength":29328,
			"byteOffset":29328,
			"target":34962
		},
		{
			"buffer":0,
			"byteLength":7656,
			"byteOffset":58656,
			"target":34963
		},
		{
			"buffer":0,
			"byteLength":5856,
			"byteOffset":66312,
			"target":34962
		},
		{
			"buffer":0,
			"byteLength":5856,
			"byteOffset":72168,
			"target":34962
		},
		{
			"buffer":0,
			"byteLength":1500,
			"byteOffset":78024,
			"target":34963
		},
		{
			"buffer":0,
			"byteLength":1440,
			"byteOffset":79524,
			"target":34962
		},
		{
			"buffer":0,
			"byteLength":1440,
			"byteOffset":80964,
			"target":34962
		},
		{
			"buffer":0,
			"byteLength":480,
			"byteOffset":82404,
			"target":34963
		},
		{
			"buffer":0,
			"byteLength":8640,
			"byteOffset":82884,
			"target":34962
		},
		{
			"buffer":0,
			"byteLength":8640,
			"byteOffset":91524,
			"target":34962
		},
		{
			"buffer":0,
			"byteLength":2400,
			"byteOffset":100164,
			"target":34963
		},
		{
			"buffer":0,
			"byteLength":5088,
			"byteOffset":102564,
			"target":34962
		},
		{
			"buffer":0,
			"byteLength":5088,
			"byteOffset":107652,
			"target":34962
		},
		{
			"buffer":0,
			"byteLength":1440,
			"byteOffset":112740,
			"target":34963
		}
	],
	"buffers":[
		{
			"byteLength":114180,
			"uri":"Props_Pod-4dc81b97aae3496d4ae300d97b6278a3.bin"
		}
	]
}
