{
	"asset":{
		"generator":"Khronos glTF Blender I/O v5.0.21",
		"version":"2.0"
	},
	"scene":0,
	"scenes":[
		{
			"name":"Scene",
			"nodes":[
				0
			]
		}
	],
	"nodes":[
		{
			"mesh":0,
			"name":"Rock_3"
		}
	],
	"materials":[
		{
			"doubleSided":true,
			"name":"Rock"
		}
	],
	"meshes":[
		{
			"name":"Cube.004",
			"primitives":[
				{
					"attributes":{
						"POSITION":0,
						"NORMAL":1,
						"TEXCOORD_0":2
					},
					"indices":3,
					"material":0
				}
			]
		}
	],
	"accessors":[
		{
			"bufferView":0,
			"componentType":5126,
			"count":923,
			"max":[
				0.36539578437805176,
				1.1872820854187012,
				0.44592878222465515
			],
			"min":[
				-0.4782258868217468,
				-0.12579791247844696,
				-0.4512418806552887
			],
			"type":"VEC3"
		},
		{
			"bufferView":1,
			"componentType":5126,
			"count":923,
			"type":"VEC3"
		},
		{
			"bufferView":2,
			"componentType":5126,
			"count":923,
			"type":"VEC2"
		},
		{
			"bufferView":3,
			"componentType":5123,
			"count":2136,
			"type":"SCALAR"
		}
	],
	"bufferViews":[
		{
			"buffer":0,
			"byteLength":11076,
			"byteOffset":0,
			"target":34962
		},
		{
			"buffer":0,
			"byteLength":11076,
			"byteOffset":11076,
			"target":34962
		},
		{
			"buffer":0,
			"byteLength":7384,
			"byteOffset":22152,
			"target":34962
		},
		{
			"buffer":0,
			"byteLength":4272,
			"byteOffset":29536,
			"target":34963
		}
	],
	"buffers":[
		{
			"byteLength":33808,
			"uri":"Rock_3-4893b976492cdbbfd934ef8becc36327.bin"
		}
	]
}
