{
	"asset":{
		"generator":"Khronos glTF Blender I/O v5.0.21",
		"version":"2.0"
	},
	"scene":0,
	"scenes":[
		{
			"name":"Scene",
			"nodes":[
				0
			]
		}
	],
	"nodes":[
		{
			"mesh":0,
			"name":"RoofTile_Sides_Pipes",
			"rotation":[
				0,
				0,
				1,
				1.6292068494294654e-07
			]
		}
	],
	"materials":[
		{
			"doubleSided":true,
			"name":"Accent",
			"pbrMetallicRoughness":{
				"baseColorFactor":[
					0.559592604637146,
					0.29767245054244995,
					0.06678982824087143,
					1
				],
				"metallicFactor":0,
				"roughnessFactor":0.5
			}
		},
		{
			"doubleSided":true,
			"name":"Black",
			"pbrMetallicRoughness":{
				"baseColorFactor":[
					0.04202548414468765,
					0.04202548414468765,
					0.04202548414468765,
					1
				],
				"metallicFactor":0,
				"roughnessFactor":0.5
			}
		},
		{
			"doubleSided":true,
			"name":"Main",
			"pbrMetallicRoughness":{
				"baseColorFactor":[
					0.40196332335472107,
					0.40196332335472107,
					0.40196332335472107,
					1
				],
				"metallicFactor":0,
				"roughnessFactor":0.5
			}
		},
		{
			"doubleSided":true,
			"name":"DarkGrey",
			"pbrMetallicRoughness":{
				"baseColorFactor":[
					0.23954731225967407,
					0.23954731225967407,
					0.23954731225967407,
					1
				],
				"metallicFactor":0,
				"roughnessFactor":0.5
			}
		}
	],
	"meshes":[
		{
			"name":"Plane.109",
			"primitives":[
				{
					"attributes":{
						"POSITION":0,
						"NORMAL":1
					},
					"indices":2,
					"material":0
				},
				{
					"attributes":{
						"POSITION":3,
						"NORMAL":4
					},
					"indices":5,
					"material":1
				},
				{
					"attributes":{
						"POSITION":6,
						"NORMAL":7
					},
					"indices":8,
					"material":2
				},
				{
					"attributes":{
						"POSITION":9,
						"NORMAL":10
					},
					"indices":11,
					"material":3
				}
			]
		}
	],
	"accessors":[
		{
			"bufferView":0,
			"componentType":5126,
			"count":96,
			"max":[
				0.7654792666435242,
				0.04020977020263672,
				0.8262283205986023
			],
			"min":[
				-0.8075345754623413,
				-0.04516246169805527,
				-0.34691333770751953
			],
			"type":"VEC3"
		},
		{
			"bufferView":1,
			"componentType":5126,
			"count":96,
			"type":"VEC3"
		},
		{
			"bufferView":2,
			"componentType":5123,
			"count":144,
			"type":"SCALAR"
		},
		{
			"bufferView":3,
			"componentType":5126,
			"count":4,
			"max":[
				0.8190031051635742,
				0.03298286348581314,
				0.8190035223960876
			],
			"min":[
				-0.8190035820007324,
				0.03298286348581314,
				-0.33839941024780273
			],
			"type":"VEC3"
		},
		{
			"bufferView":4,
			"componentType":5126,
			"count":4,
			"type":"VEC3"
		},
		{
			"bufferView":5,
			"componentType":5123,
			"count":6,
			"type":"SCALAR"
		},
		{
			"bufferView":6,
			"componentType":5126,
			"count":60,
			"max":[
				1,
				0.039000190794467926,
				1
			],
			"min":[
				-1,
				-0.059429921209812164,
				-1
			],
			"type":"VEC3"
		},
		{
			"bufferView":7,
			"componentType":5126,
			"count":60,
			"type":"VEC3"
		},
		{
			"bufferView":8,
			"componentType":5123,
			"count":102,
			"type":"SCALAR"
		},
		{
			"bufferView":9,
			"componentType":5126,
			"count":414,
			"max":[
				0.9474878311157227,
				0.0402098149061203,
				0.9474879503250122
			],
			"min":[
				-0.9474878311157227,
				-0.07310567051172256,
				-0.9474879503250122
			],
			"type":"VEC3"
		},
		{
			"bufferView":10,
			"componentType":5126,
			"count":414,
			"type":"VEC3"
		},
		{
			"bufferView":11,
			"componentType":5123,
			"count":672,
			"type":"SCALAR"
		}
	],
	"bufferViews":[
		{
			"buffer":0,
			"byteLength":1152,
			"byteOffset":0,
			"target":34962
		},
		{
			"buffer":0,
			"byteLength":1152,
			"byteOffset":1152,
			"target":34962
		},
		{
			"buffer":0,
			"byteLength":288,
			"byteOffset":2304,
			"target":34963
		},
		{
			"buffer":0,
			"byteLength":48,
			"byteOffset":2592,
			"target":34962
		},
		{
			"buffer":0,
			"byteLength":48,
			"byteOffset":2640,
			"target":34962
		},
		{
			"buffer":0,
			"byteLength":12,
			"byteOffset":2688,
			"target":34963
		},
		{
			"buffer":0,
			"byteLength":720,
			"byteOffset":2700,
			"target":34962
		},
		{
			"buffer":0,
			"byteLength":720,
			"byteOffset":3420,
			"target":34962
		},
		{
			"buffer":0,
			"byteLength":204,
			"byteOffset":4140,
			"target":34963
		},
		{
			"buffer":0,
			"byteLength":4968,
			"byteOffset":4344,
			"target":34962
		},
		{
			"buffer":0,
			"byteLength":4968,
			"byteOffset":9312,
			"target":34962
		},
		{
			"buffer":0,
			"byteLength":1344,
			"byteOffset":14280,
			"target":34963
		}
	],
	"buffers":[
		{
			"byteLength":15624,
			"uri":"RoofTile_Sides_Pipes-663306ac90b31a928326e0e32d599a31.bin"
		}
	]
}
