{
	"asset":{
		"generator":"Khronos glTF Blender I/O v5.0.21",
		"version":"2.0"
	},
	"scene":0,
	"scenes":[
		{
			"name":"Scene",
			"nodes":[
				0
			]
		}
	],
	"nodes":[
		{
			"mesh":0,
			"name":"RoofTile_OrangeVent"
		}
	],
	"materials":[
		{
			"doubleSided":true,
			"name":"Accent",
			"pbrMetallicRoughness":{
				"baseColorFactor":[
					0.559592604637146,
					0.29767245054244995,
					0.06678982824087143,
					1
				],
				"metallicFactor":0,
				"roughnessFactor":0.5
			}
		},
		{
			"doubleSided":true,
			"name":"DarkAccent",
			"pbrMetallicRoughness":{
				"baseColorFactor":[
					0.226578950881958,
					0.12337818741798401,
					0.030147360637784004,
					1
				],
				"metallicFactor":0,
				"roughnessFactor":0.5
			}
		},
		{
			"doubleSided":true,
			"name":"Black",
			"pbrMetallicRoughness":{
				"baseColorFactor":[
					0.04202548414468765,
					0.04202548414468765,
					0.04202548414468765,
					1
				],
				"metallicFactor":0,
				"roughnessFactor":0.5
			}
		},
		{
			"doubleSided":true,
			"name":"Main",
			"pbrMetallicRoughness":{
				"baseColorFactor":[
					0.40196332335472107,
					0.40196332335472107,
					0.40196332335472107,
					1
				],
				"metallicFactor":0,
				"roughnessFactor":0.5
			}
		},
		{
			"doubleSided":true,
			"name":"DarkGrey",
			"pbrMetallicRoughness":{
				"baseColorFactor":[
					0.23954731225967407,
					0.23954731225967407,
					0.23954731225967407,
					1
				],
				"metallicFactor":0,
				"roughnessFactor":0.5
			}
		}
	],
	"meshes":[
		{
			"name":"Plane.123",
			"primitives":[
				{
					"attributes":{
						"POSITION":0,
						"NORMAL":1
					},
					"indices":2,
					"material":0
				},
				{
					"attributes":{
						"POSITION":3,
						"NORMAL":4
					},
					"indices":5,
					"material":1
				},
				{
					"attributes":{
						"POSITION":6,
						"NORMAL":7
					},
					"indices":8,
					"material":2
				},
				{
					"attributes":{
						"POSITION":9,
						"NORMAL":10
					},
					"indices":11,
					"material":3
				},
				{
					"attributes":{
						"POSITION":12,
						"NORMAL":13
					},
					"indices":14,
					"material":4
				}
			]
		}
	],
	"accessors":[
		{
			"bufferView":0,
			"componentType":5126,
			"count":168,
			"max":[
				0.7377539277076721,
				0.09060440212488174,
				0.43685343861579895
			],
			"min":[
				-0.7377540469169617,
				-0.02506648749113083,
				-0.4316500127315521
			],
			"type":"VEC3"
		},
		{
			"bufferView":1,
			"componentType":5126,
			"count":168,
			"type":"VEC3"
		},
		{
			"bufferView":2,
			"componentType":5123,
			"count":306,
			"type":"SCALAR"
		},
		{
			"bufferView":3,
			"componentType":5126,
			"count":112,
			"max":[
				0.6172403693199158,
				0.06405191123485565,
				0.2573797404766083
			],
			"min":[
				-0.6172403693199158,
				0.029530756175518036,
				-0.2612239122390747
			],
			"type":"VEC3"
		},
		{
			"bufferView":4,
			"componentType":5126,
			"count":112,
			"type":"VEC3"
		},
		{
			"bufferView":5,
			"componentType":5123,
			"count":168,
			"type":"SCALAR"
		},
		{
			"bufferView":6,
			"componentType":5126,
			"count":8,
			"max":[
				0.5974940657615662,
				0.035871509462594986,
				0.27224114537239075
			],
			"min":[
				-0.5974940657615662,
				0.03587131202220917,
				-0.26703768968582153
			],
			"type":"VEC3"
		},
		{
			"bufferView":7,
			"componentType":5126,
			"count":8,
			"type":"VEC3"
		},
		{
			"bufferView":8,
			"componentType":5123,
			"count":18,
			"type":"SCALAR"
		},
		{
			"bufferView":9,
			"componentType":5126,
			"count":108,
			"max":[
				1,
				0.07310567051172256,
				1
			],
			"min":[
				-1,
				-0.004232235252857208,
				-1
			],
			"type":"VEC3"
		},
		{
			"bufferView":10,
			"componentType":5126,
			"count":108,
			"type":"VEC3"
		},
		{
			"bufferView":11,
			"componentType":5123,
			"count":198,
			"type":"SCALAR"
		},
		{
			"bufferView":12,
			"componentType":5126,
			"count":4,
			"max":[
				0.8190031051635742,
				0.033287666738033295,
				0.8190035223960876
			],
			"min":[
				-0.8190035820007324,
				0.033287666738033295,
				-0.8190035223960876
			],
			"type":"VEC3"
		},
		{
			"bufferView":13,
			"componentType":5126,
			"count":4,
			"type":"VEC3"
		},
		{
			"bufferView":14,
			"componentType":5123,
			"count":6,
			"type":"SCALAR"
		}
	],
	"bufferViews":[
		{
			"buffer":0,
			"byteLength":2016,
			"byteOffset":0,
			"target":34962
		},
		{
			"buffer":0,
			"byteLength":2016,
			"byteOffset":2016,
			"target":34962
		},
		{
			"buffer":0,
			"byteLength":612,
			"byteOffset":4032,
			"target":34963
		},
		{
			"buffer":0,
			"byteLength":1344,
			"byteOffset":4644,
			"target":34962
		},
		{
			"buffer":0,
			"byteLength":1344,
			"byteOffset":5988,
			"target":34962
		},
		{
			"buffer":0,
			"byteLength":336,
			"byteOffset":7332,
			"target":34963
		},
		{
			"buffer":0,
			"byteLength":96,
			"byteOffset":7668,
			"target":34962
		},
		{
			"buffer":0,
			"byteLength":96,
			"byteOffset":7764,
			"target":34962
		},
		{
			"buffer":0,
			"byteLength":36,
			"byteOffset":7860,
			"target":34963
		},
		{
			"buffer":0,
			"byteLength":1296,
			"byteOffset":7896,
			"target":34962
		},
		{
			"buffer":0,
			"byteLength":1296,
			"byteOffset":9192,
			"target":34962
		},
		{
			"buffer":0,
			"byteLength":396,
			"byteOffset":10488,
			"target":34963
		},
		{
			"buffer":0,
			"byteLength":48,
			"byteOffset":10884,
			"target":34962
		},
		{
			"buffer":0,
			"byteLength":48,
			"byteOffset":10932,
			"target":34962
		},
		{
			"buffer":0,
			"byteLength":12,
			"byteOffset":10980,
			"target":34963
		}
	],
	"buffers":[
		{
			"byteLength":10992,
			"uri":"RoofTile_OrangeVent-46eeef8e1323b7ffc003aad56a22f9ff.bin"
		}
	]
}
