{
	"asset":{
		"generator":"Khronos glTF Blender I/O v5.0.21",
		"version":"2.0"
	},
	"scene":0,
	"scenes":[
		{
			"name":"Scene",
			"nodes":[
				0
			]
		}
	],
	"nodes":[
		{
			"mesh":0,
			"name":"RoofTile_Pipes2"
		}
	],
	"materials":[
		{
			"doubleSided":true,
			"name":"Accent",
			"pbrMetallicRoughness":{
				"baseColorFactor":[
					0.559592604637146,
					0.29767245054244995,
					0.06678982824087143,
					1
				],
				"metallicFactor":0,
				"roughnessFactor":0.5
			}
		},
		{
			"doubleSided":true,
			"name":"Black",
			"pbrMetallicRoughness":{
				"baseColorFactor":[
					0.04202548414468765,
					0.04202548414468765,
					0.04202548414468765,
					1
				],
				"metallicFactor":0,
				"roughnessFactor":0.5
			}
		},
		{
			"doubleSided":true,
			"name":"Main",
			"pbrMetallicRoughness":{
				"baseColorFactor":[
					0.40196332335472107,
					0.40196332335472107,
					0.40196332335472107,
					1
				],
				"metallicFactor":0,
				"roughnessFactor":0.5
			}
		},
		{
			"doubleSided":true,
			"name":"DarkGrey",
			"pbrMetallicRoughness":{
				"baseColorFactor":[
					0.23954731225967407,
					0.23954731225967407,
					0.23954731225967407,
					1
				],
				"metallicFactor":0,
				"roughnessFactor":0.5
			}
		}
	],
	"meshes":[
		{
			"name":"Plane.068",
			"primitives":[
				{
					"attributes":{
						"POSITION":0,
						"NORMAL":1
					},
					"indices":2,
					"material":0
				},
				{
					"attributes":{
						"POSITION":3,
						"NORMAL":4
					},
					"indices":5,
					"material":1
				},
				{
					"attributes":{
						"POSITION":6,
						"NORMAL":7
					},
					"indices":8,
					"material":2
				},
				{
					"attributes":{
						"POSITION":9,
						"NORMAL":10
					},
					"indices":11,
					"material":3
				}
			]
		}
	],
	"accessors":[
		{
			"bufferView":0,
			"componentType":5126,
			"count":256,
			"max":[
				0.7876734733581543,
				0.045162200927734375,
				0.7847582697868347
			],
			"min":[
				-0.7913045883178711,
				-0.04020948335528374,
				-0.8084333539009094
			],
			"type":"VEC3"
		},
		{
			"bufferView":1,
			"componentType":5126,
			"count":256,
			"type":"VEC3"
		},
		{
			"bufferView":2,
			"componentType":5123,
			"count":384,
			"type":"SCALAR"
		},
		{
			"bufferView":3,
			"componentType":5126,
			"count":4,
			"max":[
				0.8190031051635742,
				-0.03298286348581314,
				0.8190035223960876
			],
			"min":[
				-0.8190035820007324,
				-0.03298286348581314,
				-0.8190035223960876
			],
			"type":"VEC3"
		},
		{
			"bufferView":4,
			"componentType":5126,
			"count":4,
			"type":"VEC3"
		},
		{
			"bufferView":5,
			"componentType":5123,
			"count":6,
			"type":"SCALAR"
		},
		{
			"bufferView":6,
			"componentType":5126,
			"count":60,
			"max":[
				1,
				0.059429921209812164,
				1
			],
			"min":[
				-1,
				-0.039000190794467926,
				-1
			],
			"type":"VEC3"
		},
		{
			"bufferView":7,
			"componentType":5126,
			"count":60,
			"type":"VEC3"
		},
		{
			"bufferView":8,
			"componentType":5123,
			"count":102,
			"type":"SCALAR"
		},
		{
			"bufferView":9,
			"componentType":5126,
			"count":1336,
			"max":[
				0.9474878311157227,
				0.07459253072738647,
				0.9474879503250122
			],
			"min":[
				-0.9474878311157227,
				-0.04020948335528374,
				-0.9474879503250122
			],
			"type":"VEC3"
		},
		{
			"bufferView":10,
			"componentType":5126,
			"count":1336,
			"type":"VEC3"
		},
		{
			"bufferView":11,
			"componentType":5123,
			"count":2208,
			"type":"SCALAR"
		}
	],
	"bufferViews":[
		{
			"buffer":0,
			"byteLength":3072,
			"byteOffset":0,
			"target":34962
		},
		{
			"buffer":0,
			"byteLength":3072,
			"byteOffset":3072,
			"target":34962
		},
		{
			"buffer":0,
			"byteLength":768,
			"byteOffset":6144,
			"target":34963
		},
		{
			"buffer":0,
			"byteLength":48,
			"byteOffset":6912,
			"target":34962
		},
		{
			"buffer":0,
			"byteLength":48,
			"byteOffset":6960,
			"target":34962
		},
		{
			"buffer":0,
			"byteLength":12,
			"byteOffset":7008,
			"target":34963
		},
		{
			"buffer":0,
			"byteLength":720,
			"byteOffset":7020,
			"target":34962
		},
		{
			"buffer":0,
			"byteLength":720,
			"byteOffset":7740,
			"target":34962
		},
		{
			"buffer":0,
			"byteLength":204,
			"byteOffset":8460,
			"target":34963
		},
		{
			"buffer":0,
			"byteLength":16032,
			"byteOffset":8664,
			"target":34962
		},
		{
			"buffer":0,
			"byteLength":16032,
			"byteOffset":24696,
			"target":34962
		},
		{
			"buffer":0,
			"byteLength":4416,
			"byteOffset":40728,
			"target":34963
		}
	],
	"buffers":[
		{
			"byteLength":45144,
			"uri":"RoofTile_Pipes2-e4121a55b9f5c61c4559059bfaed9a10.bin"
		}
	]
}
