{
	"asset":{
		"generator":"Khronos glTF Blender I/O v5.0.21",
		"version":"2.0"
	},
	"scene":0,
	"scenes":[
		{
			"name":"Scene",
			"nodes":[
				0
			]
		}
	],
	"nodes":[
		{
			"mesh":0,
			"name":"RoofTile_SmallVents"
		}
	],
	"materials":[
		{
			"doubleSided":true,
			"name":"Accent",
			"pbrMetallicRoughness":{
				"baseColorFactor":[
					0.559592604637146,
					0.29767245054244995,
					0.06678982824087143,
					1
				],
				"metallicFactor":0,
				"roughnessFactor":0.5
			}
		},
		{
			"doubleSided":true,
			"name":"DarkAccent",
			"pbrMetallicRoughness":{
				"baseColorFactor":[
					0.226578950881958,
					0.12337818741798401,
					0.030147360637784004,
					1
				],
				"metallicFactor":0,
				"roughnessFactor":0.5
			}
		},
		{
			"doubleSided":true,
			"name":"Black",
			"pbrMetallicRoughness":{
				"baseColorFactor":[
					0.04202548414468765,
					0.04202548414468765,
					0.04202548414468765,
					1
				],
				"metallicFactor":0,
				"roughnessFactor":0.5
			}
		},
		{
			"doubleSided":true,
			"name":"Main",
			"pbrMetallicRoughness":{
				"baseColorFactor":[
					0.40196332335472107,
					0.40196332335472107,
					0.40196332335472107,
					1
				],
				"metallicFactor":0,
				"roughnessFactor":0.5
			}
		},
		{
			"doubleSided":true,
			"name":"DarkGrey",
			"pbrMetallicRoughness":{
				"baseColorFactor":[
					0.23954731225967407,
					0.23954731225967407,
					0.23954731225967407,
					1
				],
				"metallicFactor":0,
				"roughnessFactor":0.5
			}
		}
	],
	"meshes":[
		{
			"name":"Plane.122",
			"primitives":[
				{
					"attributes":{
						"POSITION":0,
						"NORMAL":1
					},
					"indices":2,
					"material":0
				},
				{
					"attributes":{
						"POSITION":3,
						"NORMAL":4
					},
					"indices":5,
					"material":1
				},
				{
					"attributes":{
						"POSITION":6,
						"NORMAL":7
					},
					"indices":8,
					"material":2
				},
				{
					"attributes":{
						"POSITION":9,
						"NORMAL":10
					},
					"indices":11,
					"material":3
				},
				{
					"attributes":{
						"POSITION":12,
						"NORMAL":13
					},
					"indices":14,
					"material":4
				}
			]
		}
	],
	"accessors":[
		{
			"bufferView":0,
			"componentType":5126,
			"count":300,
			"max":[
				0.7673370242118835,
				0.08642725646495819,
				0.7407295107841492
			],
			"min":[
				-0.7673367261886597,
				0.013275180011987686,
				-0.7407297492027283
			],
			"type":"VEC3"
		},
		{
			"bufferView":1,
			"componentType":5126,
			"count":300,
			"type":"VEC3"
		},
		{
			"bufferView":2,
			"componentType":5123,
			"count":456,
			"type":"SCALAR"
		},
		{
			"bufferView":3,
			"componentType":5126,
			"count":224,
			"max":[
				0.69112229347229,
				0.06963503360748291,
				0.6272273659706116
			],
			"min":[
				-0.6911219954490662,
				0.04780334606766701,
				-0.6272276639938354
			],
			"type":"VEC3"
		},
		{
			"bufferView":4,
			"componentType":5126,
			"count":224,
			"type":"VEC3"
		},
		{
			"bufferView":5,
			"componentType":5123,
			"count":336,
			"type":"SCALAR"
		},
		{
			"bufferView":6,
			"componentType":5126,
			"count":12,
			"max":[
				0.6786344051361084,
				0.051813289523124695,
				0.6366260051727295
			],
			"min":[
				-0.6786341071128845,
				0.051813215017318726,
				-0.6366263031959534
			],
			"type":"VEC3"
		},
		{
			"bufferView":7,
			"componentType":5126,
			"count":12,
			"type":"VEC3"
		},
		{
			"bufferView":8,
			"componentType":5123,
			"count":24,
			"type":"SCALAR"
		},
		{
			"bufferView":9,
			"componentType":5126,
			"count":108,
			"max":[
				1,
				0.07310567051172256,
				1
			],
			"min":[
				-1,
				-0.004232235252857208,
				-1
			],
			"type":"VEC3"
		},
		{
			"bufferView":10,
			"componentType":5126,
			"count":108,
			"type":"VEC3"
		},
		{
			"bufferView":11,
			"componentType":5123,
			"count":198,
			"type":"SCALAR"
		},
		{
			"bufferView":12,
			"componentType":5126,
			"count":4,
			"max":[
				0.8190031051635742,
				0.033287666738033295,
				0.8190035223960876
			],
			"min":[
				-0.8190035820007324,
				0.033287666738033295,
				-0.8190035223960876
			],
			"type":"VEC3"
		},
		{
			"bufferView":13,
			"componentType":5126,
			"count":4,
			"type":"VEC3"
		},
		{
			"bufferView":14,
			"componentType":5123,
			"count":6,
			"type":"SCALAR"
		}
	],
	"bufferViews":[
		{
			"buffer":0,
			"byteLength":3600,
			"byteOffset":0,
			"target":34962
		},
		{
			"buffer":0,
			"byteLength":3600,
			"byteOffset":3600,
			"target":34962
		},
		{
			"buffer":0,
			"byteLength":912,
			"byteOffset":7200,
			"target":34963
		},
		{
			"buffer":0,
			"byteLength":2688,
			"byteOffset":8112,
			"target":34962
		},
		{
			"buffer":0,
			"byteLength":2688,
			"byteOffset":10800,
			"target":34962
		},
		{
			"buffer":0,
			"byteLength":672,
			"byteOffset":13488,
			"target":34963
		},
		{
			"buffer":0,
			"byteLength":144,
			"byteOffset":14160,
			"target":34962
		},
		{
			"buffer":0,
			"byteLength":144,
			"byteOffset":14304,
			"target":34962
		},
		{
			"buffer":0,
			"byteLength":48,
			"byteOffset":14448,
			"target":34963
		},
		{
			"buffer":0,
			"byteLength":1296,
			"byteOffset":14496,
			"target":34962
		},
		{
			"buffer":0,
			"byteLength":1296,
			"byteOffset":15792,
			"target":34962
		},
		{
			"buffer":0,
			"byteLength":396,
			"byteOffset":17088,
			"target":34963
		},
		{
			"buffer":0,
			"byteLength":48,
			"byteOffset":17484,
			"target":34962
		},
		{
			"buffer":0,
			"byteLength":48,
			"byteOffset":17532,
			"target":34962
		},
		{
			"buffer":0,
			"byteLength":12,
			"byteOffset":17580,
			"target":34963
		}
	],
	"buffers":[
		{
			"byteLength":17592,
			"uri":"RoofTile_SmallVents-2a53b1ecaaf18c7e88240d017ba68085.bin"
		}
	]
}
