{
	"asset":{
		"generator":"Khronos glTF Blender I/O v5.0.21",
		"version":"2.0"
	},
	"scene":0,
	"scenes":[
		{
			"name":"Scene",
			"nodes":[
				0
			]
		}
	],
	"nodes":[
		{
			"mesh":0,
			"name":"RoofTile_Vents"
		}
	],
	"materials":[
		{
			"doubleSided":true,
			"name":"Accent",
			"pbrMetallicRoughness":{
				"baseColorFactor":[
					0.559592604637146,
					0.29767245054244995,
					0.06678982824087143,
					1
				],
				"metallicFactor":0,
				"roughnessFactor":0.5
			}
		},
		{
			"doubleSided":true,
			"name":"Black",
			"pbrMetallicRoughness":{
				"baseColorFactor":[
					0.04202548414468765,
					0.04202548414468765,
					0.04202548414468765,
					1
				],
				"metallicFactor":0,
				"roughnessFactor":0.5
			}
		},
		{
			"doubleSided":true,
			"name":"Main",
			"pbrMetallicRoughness":{
				"baseColorFactor":[
					0.40196332335472107,
					0.40196332335472107,
					0.40196332335472107,
					1
				],
				"metallicFactor":0,
				"roughnessFactor":0.5
			}
		},
		{
			"doubleSided":true,
			"name":"DarkGrey",
			"pbrMetallicRoughness":{
				"baseColorFactor":[
					0.23954731225967407,
					0.23954731225967407,
					0.23954731225967407,
					1
				],
				"metallicFactor":0,
				"roughnessFactor":0.5
			}
		}
	],
	"meshes":[
		{
			"name":"Plane.121",
			"primitives":[
				{
					"attributes":{
						"POSITION":0,
						"NORMAL":1
					},
					"indices":2,
					"material":0
				},
				{
					"attributes":{
						"POSITION":3,
						"NORMAL":4
					},
					"indices":5,
					"material":1
				},
				{
					"attributes":{
						"POSITION":6,
						"NORMAL":7
					},
					"indices":8,
					"material":2
				},
				{
					"attributes":{
						"POSITION":9,
						"NORMAL":10
					},
					"indices":11,
					"material":3
				}
			]
		}
	],
	"accessors":[
		{
			"bufferView":0,
			"componentType":5126,
			"count":720,
			"max":[
				0.782181441783905,
				0.06346378475427628,
				0.625943124294281
			],
			"min":[
				-0.7821813225746155,
				0.029200434684753418,
				-0.6259428262710571
			],
			"type":"VEC3"
		},
		{
			"bufferView":1,
			"componentType":5126,
			"count":720,
			"type":"VEC3"
		},
		{
			"bufferView":2,
			"componentType":5123,
			"count":1512,
			"type":"SCALAR"
		},
		{
			"bufferView":3,
			"componentType":5126,
			"count":144,
			"max":[
				0.7059909105300903,
				0.04172658175230026,
				0.6460791826248169
			],
			"min":[
				-0.7059909105300903,
				0.037651464343070984,
				-0.6460789442062378
			],
			"type":"VEC3"
		},
		{
			"bufferView":4,
			"componentType":5126,
			"count":144,
			"type":"VEC3"
		},
		{
			"bufferView":5,
			"componentType":5123,
			"count":216,
			"type":"SCALAR"
		},
		{
			"bufferView":6,
			"componentType":5126,
			"count":1292,
			"max":[
				1,
				0.07310567051172256,
				1
			],
			"min":[
				-1,
				-0.004232235252857208,
				-1
			],
			"type":"VEC3"
		},
		{
			"bufferView":7,
			"componentType":5126,
			"count":1292,
			"type":"VEC3"
		},
		{
			"bufferView":8,
			"componentType":5123,
			"count":3132,
			"type":"SCALAR"
		},
		{
			"bufferView":9,
			"componentType":5126,
			"count":4,
			"max":[
				0.8190031051635742,
				0.033287666738033295,
				0.8190035223960876
			],
			"min":[
				-0.8190035820007324,
				0.033287666738033295,
				-0.8190035223960876
			],
			"type":"VEC3"
		},
		{
			"bufferView":10,
			"componentType":5126,
			"count":4,
			"type":"VEC3"
		},
		{
			"bufferView":11,
			"componentType":5123,
			"count":6,
			"type":"SCALAR"
		}
	],
	"bufferViews":[
		{
			"buffer":0,
			"byteLength":8640,
			"byteOffset":0,
			"target":34962
		},
		{
			"buffer":0,
			"byteLength":8640,
			"byteOffset":8640,
			"target":34962
		},
		{
			"buffer":0,
			"byteLength":3024,
			"byteOffset":17280,
			"target":34963
		},
		{
			"buffer":0,
			"byteLength":1728,
			"byteOffset":20304,
			"target":34962
		},
		{
			"buffer":0,
			"byteLength":1728,
			"byteOffset":22032,
			"target":34962
		},
		{
			"buffer":0,
			"byteLength":432,
			"byteOffset":23760,
			"target":34963
		},
		{
			"buffer":0,
			"byteLength":15504,
			"byteOffset":24192,
			"target":34962
		},
		{
			"buffer":0,
			"byteLength":15504,
			"byteOffset":39696,
			"target":34962
		},
		{
			"buffer":0,
			"byteLength":6264,
			"byteOffset":55200,
			"target":34963
		},
		{
			"buffer":0,
			"byteLength":48,
			"byteOffset":61464,
			"target":34962
		},
		{
			"buffer":0,
			"byteLength":48,
			"byteOffset":61512,
			"target":34962
		},
		{
			"buffer":0,
			"byteLength":12,
			"byteOffset":61560,
			"target":34963
		}
	],
	"buffers":[
		{
			"byteLength":61572,
			"uri":"RoofTile_Vents-0f25ba52e423beb12b821061bd8bedd9.bin"
		}
	]
}
