{
	"asset":{
		"generator":"Khronos glTF Blender I/O v5.0.21",
		"version":"2.0"
	},
	"scene":0,
	"scenes":[
		{
			"name":"Scene",
			"nodes":[
				0
			]
		}
	],
	"nodes":[
		{
			"mesh":0,
			"name":"RoofTile_Plate"
		}
	],
	"materials":[
		{
			"doubleSided":true,
			"name":"Accent",
			"pbrMetallicRoughness":{
				"baseColorFactor":[
					0.559592604637146,
					0.29767245054244995,
					0.06678982824087143,
					1
				],
				"metallicFactor":0,
				"roughnessFactor":0.5
			}
		},
		{
			"doubleSided":true,
			"name":"Main",
			"pbrMetallicRoughness":{
				"baseColorFactor":[
					0.40196332335472107,
					0.40196332335472107,
					0.40196332335472107,
					1
				],
				"metallicFactor":0,
				"roughnessFactor":0.5
			}
		},
		{
			"doubleSided":true,
			"name":"DarkGrey",
			"pbrMetallicRoughness":{
				"baseColorFactor":[
					0.23954731225967407,
					0.23954731225967407,
					0.23954731225967407,
					1
				],
				"metallicFactor":0,
				"roughnessFactor":0.5
			}
		}
	],
	"meshes":[
		{
			"name":"Plane.120",
			"primitives":[
				{
					"attributes":{
						"POSITION":0,
						"NORMAL":1
					},
					"indices":2,
					"material":0
				},
				{
					"attributes":{
						"POSITION":3,
						"NORMAL":4
					},
					"indices":5,
					"material":1
				},
				{
					"attributes":{
						"POSITION":6,
						"NORMAL":7
					},
					"indices":8,
					"material":2
				}
			]
		}
	],
	"accessors":[
		{
			"bufferView":0,
			"componentType":5126,
			"count":288,
			"max":[
				0.6559126377105713,
				0.05736897885799408,
				0.8142032027244568
			],
			"min":[
				-0.6674759984016418,
				0.02545640803873539,
				-0.8171928524971008
			],
			"type":"VEC3"
		},
		{
			"bufferView":1,
			"componentType":5126,
			"count":288,
			"type":"VEC3"
		},
		{
			"bufferView":2,
			"componentType":5123,
			"count":504,
			"type":"SCALAR"
		},
		{
			"bufferView":3,
			"componentType":5126,
			"count":396,
			"max":[
				1,
				0.07310567051172256,
				1
			],
			"min":[
				-1,
				-0.004232235252857208,
				-1
			],
			"type":"VEC3"
		},
		{
			"bufferView":4,
			"componentType":5126,
			"count":396,
			"type":"VEC3"
		},
		{
			"bufferView":5,
			"componentType":5123,
			"count":762,
			"type":"SCALAR"
		},
		{
			"bufferView":6,
			"componentType":5126,
			"count":4,
			"max":[
				0.8190031051635742,
				0.033287666738033295,
				0.8190035223960876
			],
			"min":[
				-0.8190035820007324,
				0.033287666738033295,
				-0.8190035223960876
			],
			"type":"VEC3"
		},
		{
			"bufferView":7,
			"componentType":5126,
			"count":4,
			"type":"VEC3"
		},
		{
			"bufferView":8,
			"componentType":5123,
			"count":6,
			"type":"SCALAR"
		}
	],
	"bufferViews":[
		{
			"buffer":0,
			"byteLength":3456,
			"byteOffset":0,
			"target":34962
		},
		{
			"buffer":0,
			"byteLength":3456,
			"byteOffset":3456,
			"target":34962
		},
		{
			"buffer":0,
			"byteLength":1008,
			"byteOffset":6912,
			"target":34963
		},
		{
			"buffer":0,
			"byteLength":4752,
			"byteOffset":7920,
			"target":34962
		},
		{
			"buffer":0,
			"byteLength":4752,
			"byteOffset":12672,
			"target":34962
		},
		{
			"buffer":0,
			"byteLength":1524,
			"byteOffset":17424,
			"target":34963
		},
		{
			"buffer":0,
			"byteLength":48,
			"byteOffset":18948,
			"target":34962
		},
		{
			"buffer":0,
			"byteLength":48,
			"byteOffset":18996,
			"target":34962
		},
		{
			"buffer":0,
			"byteLength":12,
			"byteOffset":19044,
			"target":34963
		}
	],
	"buffers":[
		{
			"byteLength":19056,
			"uri":"RoofTile_Plate-bb9a1bbf1989f7071a2bd63fa402ef92.bin"
		}
	]
}
