{
	"asset":{
		"generator":"Khronos glTF Blender I/O v5.0.21",
		"version":"2.0"
	},
	"extensionsUsed":[
		"KHR_materials_emissive_strength"
	],
	"scene":0,
	"scenes":[
		{
			"name":"Scene",
			"nodes":[
				0
			]
		}
	],
	"nodes":[
		{
			"mesh":0,
			"name":"Window_Wall_SideB"
		}
	],
	"materials":[
		{
			"doubleSided":true,
			"name":"Main",
			"pbrMetallicRoughness":{
				"baseColorFactor":[
					0.40196332335472107,
					0.40196332335472107,
					0.40196332335472107,
					1
				],
				"metallicFactor":0,
				"roughnessFactor":0.5
			}
		},
		{
			"doubleSided":true,
			"name":"Accent",
			"pbrMetallicRoughness":{
				"baseColorFactor":[
					0.559592604637146,
					0.29767245054244995,
					0.06678982824087143,
					1
				],
				"metallicFactor":0,
				"roughnessFactor":0.5
			}
		},
		{
			"doubleSided":true,
			"name":"Glass"
		},
		{
			"doubleSided":true,
			"name":"DarkGrey",
			"pbrMetallicRoughness":{
				"baseColorFactor":[
					0.23954731225967407,
					0.23954731225967407,
					0.23954731225967407,
					1
				],
				"metallicFactor":0,
				"roughnessFactor":0.5
			}
		},
		{
			"doubleSided":true,
			"emissiveFactor":[
				1,
				0.8120468854904175,
				0.3343311548233032
			],
			"extensions":{
				"KHR_materials_emissive_strength":{
					"emissiveStrength":3.0999999046325684
				}
			},
			"name":"Light",
			"pbrMetallicRoughness":{
				"baseColorFactor":[
					0,
					0,
					0,
					1
				]
			}
		}
	],
	"meshes":[
		{
			"name":"Plane.013",
			"primitives":[
				{
					"attributes":{
						"POSITION":0,
						"NORMAL":1
					},
					"indices":2,
					"material":0
				},
				{
					"attributes":{
						"POSITION":3,
						"NORMAL":4
					},
					"indices":5,
					"material":1
				},
				{
					"attributes":{
						"POSITION":6,
						"NORMAL":7
					},
					"indices":8,
					"material":2
				},
				{
					"attributes":{
						"POSITION":9,
						"NORMAL":10
					},
					"indices":11,
					"material":3
				},
				{
					"attributes":{
						"POSITION":12,
						"NORMAL":13
					},
					"indices":14,
					"material":4
				}
			]
		}
	],
	"accessors":[
		{
			"bufferView":0,
			"componentType":5126,
			"count":226,
			"max":[
				2.000002145767212,
				4.430893898010254,
				0.2556566596031189
			],
			"min":[
				-2.000000238418579,
				0,
				-0.24346187710762024
			],
			"type":"VEC3"
		},
		{
			"bufferView":1,
			"componentType":5126,
			"count":226,
			"type":"VEC3"
		},
		{
			"bufferView":2,
			"componentType":5123,
			"count":474,
			"type":"SCALAR"
		},
		{
			"bufferView":3,
			"componentType":5126,
			"count":216,
			"max":[
				2.000002145767212,
				3.382575750350952,
				-0.1210569217801094
			],
			"min":[
				-1.9999998807907104,
				0.8757244348526001,
				-0.27988654375076294
			],
			"type":"VEC3"
		},
		{
			"bufferView":4,
			"componentType":5126,
			"count":216,
			"type":"VEC3"
		},
		{
			"bufferView":5,
			"componentType":5123,
			"count":324,
			"type":"SCALAR"
		},
		{
			"bufferView":6,
			"componentType":5126,
			"count":8,
			"max":[
				1.4650249481201172,
				2.8304667472839355,
				-0.1836896538734436
			],
			"min":[
				-1.4521558284759521,
				1.666551113128662,
				-0.18369153141975403
			],
			"type":"VEC3"
		},
		{
			"bufferView":7,
			"componentType":5126,
			"count":8,
			"type":"VEC3"
		},
		{
			"bufferView":8,
			"componentType":5123,
			"count":18,
			"type":"SCALAR"
		},
		{
			"bufferView":9,
			"componentType":5126,
			"count":68,
			"max":[
				2.000001907348633,
				3.610365867614746,
				0.12058467417955399
			],
			"min":[
				-1.9999995231628418,
				0,
				-0.24346187710762024
			],
			"type":"VEC3"
		},
		{
			"bufferView":10,
			"componentType":5126,
			"count":68,
			"type":"VEC3"
		},
		{
			"bufferView":11,
			"componentType":5123,
			"count":126,
			"type":"SCALAR"
		},
		{
			"bufferView":12,
			"componentType":5126,
			"count":4,
			"max":[
				0.4496535658836365,
				3.557717800140381,
				0.06526736915111542
			],
			"min":[
				-0.5358982086181641,
				3.5190441608428955,
				0.006624551955610514
			],
			"type":"VEC3"
		},
		{
			"bufferView":13,
			"componentType":5126,
			"count":4,
			"type":"VEC3"
		},
		{
			"bufferView":14,
			"componentType":5123,
			"count":6,
			"type":"SCALAR"
		}
	],
	"bufferViews":[
		{
			"buffer":0,
			"byteLength":2712,
			"byteOffset":0,
			"target":34962
		},
		{
			"buffer":0,
			"byteLength":2712,
			"byteOffset":2712,
			"target":34962
		},
		{
			"buffer":0,
			"byteLength":948,
			"byteOffset":5424,
			"target":34963
		},
		{
			"buffer":0,
			"byteLength":2592,
			"byteOffset":6372,
			"target":34962
		},
		{
			"buffer":0,
			"byteLength":2592,
			"byteOffset":8964,
			"target":34962
		},
		{
			"buffer":0,
			"byteLength":648,
			"byteOffset":11556,
			"target":34963
		},
		{
			"buffer":0,
			"byteLength":96,
			"byteOffset":12204,
			"target":34962
		},
		{
			"buffer":0,
			"byteLength":96,
			"byteOffset":12300,
			"target":34962
		},
		{
			"buffer":0,
			"byteLength":36,
			"byteOffset":12396,
			"target":34963
		},
		{
			"buffer":0,
			"byteLength":816,
			"byteOffset":12432,
			"target":34962
		},
		{
			"buffer":0,
			"byteLength":816,
			"byteOffset":13248,
			"target":34962
		},
		{
			"buffer":0,
			"byteLength":252,
			"byteOffset":14064,
			"target":34963
		},
		{
			"buffer":0,
			"byteLength":48,
			"byteOffset":14316,
			"target":34962
		},
		{
			"buffer":0,
			"byteLength":48,
			"byteOffset":14364,
			"target":34962
		},
		{
			"buffer":0,
			"byteLength":12,
			"byteOffset":14412,
			"target":34963
		}
	],
	"buffers":[
		{
			"byteLength":14424,
			"uri":"Window_Wall_SideB-c4af677e3e6b5b4afff94769d84b75ec.bin"
		}
	]
}
